<svg width="34" height="34" viewBox="0 0 34 34" fill="none" xmlns="http://www.w3.org/2000/svg">
<g clip-path="url(#clip0_8719_2005)">
<path fill-rule="evenodd" clip-rule="evenodd" d="M17.9142 5.61877C17.9118 6.98923 18.1541 8.3467 18.6272 9.61365C19.1002 10.8806 19.7948 12.0323 20.6713 13.0028C21.5478 13.9734 22.589 14.7439 23.7354 15.2703C24.8819 15.7968 26.1111 16.0688 27.353 16.071L27.353 16.1152L27.353 16.1152L27.3504 17.6152L27.3504 17.6152L27.3503 17.6594C26.1084 17.6573 24.8782 17.9251 23.7299 18.4476C22.5817 18.97 21.5378 19.737 20.658 20.7045C19.7782 21.672 19.0796 22.8213 18.6022 24.0866C18.1248 25.3519 17.8778 26.7085 17.8754 28.079L16.3419 28.0764C16.3517 22.4154 19.8414 18.6648 24.534 17.6104L7.35043 17.5807L7.35302 16.0807L24.5367 16.1104C19.8477 15.0398 16.3709 11.2771 16.3807 5.61613L17.9142 5.61877Z" fill="#252424"/>
</g>
<defs>
<clipPath id="clip0_8719_2005">
<rect width="20" height="20" fill="white" transform="translate(7.33594 26.8315) rotate(-89.9012)"/>
</clipPath>
</defs>
</svg>
