<svg width="24" height="24" viewBox="0 0 24 24" fill="none" xmlns="http://www.w3.org/2000/svg">
<path d="M14.7711 19.7498H9.26109C8.82109 19.7498 8.26109 19.6998 7.89109 19.3198C7.53109 18.9498 7.54109 18.4898 7.55109 18.1798V17.2898C5.03109 15.6098 3.37109 12.6898 3.37109 9.9098C3.37109 7.2798 4.55109 4.8198 6.60109 3.1698C8.65109 1.5198 11.3411 0.899803 13.9711 1.4798C16.4711 2.0298 18.6311 3.6998 19.7511 5.9498C21.9211 10.3198 19.8311 15.0498 16.4911 17.2998V18.0498C16.5011 18.3398 16.5111 18.8698 16.1011 19.2898C15.7911 19.5898 15.3511 19.7498 14.7711 19.7498ZM9.04109 18.2398C9.09109 18.2398 9.16109 18.2498 9.25109 18.2498H14.7711C14.8711 18.2498 14.9411 18.2398 14.9811 18.2298C14.9811 18.1998 14.9811 18.1598 14.9811 18.1298V16.8698C14.9811 16.6098 15.1211 16.3598 15.3411 16.2298C18.3011 14.4398 20.2611 10.3498 18.3911 6.5998C17.4711 4.7498 15.6911 3.3798 13.6311 2.9298C11.4511 2.4498 9.22109 2.9598 7.52109 4.3298C5.82109 5.6998 4.85109 7.7298 4.85109 9.9098C4.85109 12.6898 6.77109 15.0898 8.67109 16.2398C8.90109 16.3798 9.03109 16.6198 9.03109 16.8798V18.2298C9.04109 18.2298 9.04109 18.2298 9.04109 18.2398Z" fill="#EC7373"/>
<path d="M15.4993 22.7499C15.4293 22.7499 15.3593 22.7399 15.2893 22.7199C13.1293 22.0999 10.8593 22.0999 8.69928 22.7199C8.29928 22.8299 7.88928 22.5999 7.76928 22.1999C7.64928 21.7999 7.88928 21.3899 8.28928 21.2699C10.7093 20.5799 13.2793 20.5799 15.6993 21.2699C16.0993 21.3799 16.3293 21.7999 16.2193 22.1999C16.1293 22.5399 15.8293 22.7499 15.4993 22.7499Z" fill="#EC7373"/>
</svg>
