<svg width="24" height="24" viewBox="0 0 24 24" fill="none" xmlns="http://www.w3.org/2000/svg">
<path d="M18.0003 7.90977C17.9703 7.90977 17.9503 7.90977 17.9203 7.90977H17.8703C15.9803 7.84977 14.5703 6.38977 14.5703 4.58977C14.5703 2.74977 16.0703 1.25977 17.9003 1.25977C19.7303 1.25977 21.2303 2.75977 21.2303 4.58977C21.2203 6.39977 19.8103 7.85977 18.0103 7.91977C18.0103 7.90977 18.0103 7.90977 18.0003 7.90977ZM17.9003 2.74977C16.8903 2.74977 16.0703 3.56977 16.0703 4.57977C16.0703 5.56977 16.8403 6.36977 17.8303 6.40977C17.8403 6.39977 17.9203 6.39977 18.0103 6.40977C18.9803 6.35977 19.7303 5.55977 19.7403 4.57977C19.7403 3.56977 18.9203 2.74977 17.9003 2.74977Z" fill="#EC7373"/>
<path d="M18.0085 15.2801C17.6185 15.2801 17.2285 15.2501 16.8385 15.1801C16.4285 15.1101 16.1585 14.7201 16.2285 14.3101C16.2985 13.9001 16.6885 13.6301 17.0985 13.7001C18.3285 13.9101 19.6285 13.6802 20.4985 13.1002C20.9685 12.7902 21.2185 12.4001 21.2185 12.0101C21.2185 11.6201 20.9585 11.2401 20.4985 10.9301C19.6285 10.3501 18.3085 10.1201 17.0685 10.3401C16.6585 10.4201 16.2685 10.1401 16.1985 9.73015C16.1285 9.32015 16.3985 8.93015 16.8085 8.86015C18.4385 8.57015 20.1285 8.88014 21.3285 9.68014C22.2085 10.2701 22.7185 11.1101 22.7185 12.0101C22.7185 12.9001 22.2185 13.7502 21.3285 14.3502C20.4185 14.9502 19.2385 15.2801 18.0085 15.2801Z" fill="#EC7373"/>
<path d="M5.97047 7.91C5.96047 7.91 5.95047 7.91 5.95047 7.91C4.15047 7.85 2.74047 6.39 2.73047 4.59C2.73047 2.75 4.23047 1.25 6.06047 1.25C7.89047 1.25 9.39047 2.75 9.39047 4.58C9.39047 6.39 7.98047 7.85 6.18047 7.91L5.97047 7.16L6.04047 7.91C6.02047 7.91 5.99047 7.91 5.97047 7.91ZM6.07047 6.41C6.13047 6.41 6.18047 6.41 6.24047 6.42C7.13047 6.38 7.91047 5.58 7.91047 4.59C7.91047 3.58 7.09047 2.75999 6.08047 2.75999C5.07047 2.75999 4.25047 3.58 4.25047 4.59C4.25047 5.57 5.01047 6.36 5.98047 6.42C5.99047 6.41 6.03047 6.41 6.07047 6.41Z" fill="#EC7373"/>
<path d="M5.96 15.2801C4.73 15.2801 3.55 14.9502 2.64 14.3502C1.76 13.7602 1.25 12.9101 1.25 12.0101C1.25 11.1201 1.76 10.2701 2.64 9.68014C3.84 8.88014 5.53 8.57015 7.16 8.86015C7.57 8.93015 7.84 9.32015 7.77 9.73015C7.7 10.1401 7.31 10.4201 6.9 10.3401C5.66 10.1201 4.35 10.3501 3.47 10.9301C3 11.2401 2.75 11.6201 2.75 12.0101C2.75 12.4001 3.01 12.7902 3.47 13.1002C4.34 13.6802 5.64 13.9101 6.87 13.7001C7.28 13.6301 7.67 13.9101 7.74 14.3101C7.81 14.7201 7.54 15.1101 7.13 15.1801C6.74 15.2501 6.35 15.2801 5.96 15.2801Z" fill="#EC7373"/>
<path d="M12.0003 15.38C11.9703 15.38 11.9503 15.38 11.9203 15.38H11.8703C9.98031 15.32 8.57031 13.86 8.57031 12.06C8.57031 10.22 10.0703 8.72998 11.9003 8.72998C13.7303 8.72998 15.2303 10.23 15.2303 12.06C15.2203 13.87 13.8103 15.33 12.0103 15.39C12.0103 15.38 12.0103 15.38 12.0003 15.38ZM11.9003 10.22C10.8903 10.22 10.0703 11.04 10.0703 12.05C10.0703 13.04 10.8403 13.84 11.8303 13.88C11.8403 13.87 11.9203 13.87 12.0103 13.88C12.9803 13.83 13.7303 13.03 13.7403 12.05C13.7403 11.05 12.9203 10.22 11.9003 10.22Z" fill="#EC7373"/>
<path d="M12.0013 22.7597C10.8013 22.7597 9.60125 22.4497 8.67125 21.8197C7.79125 21.2297 7.28125 20.3897 7.28125 19.4897C7.28125 18.5997 7.78125 17.7397 8.67125 17.1497C10.5412 15.9097 13.4713 15.9097 15.3313 17.1497C16.2113 17.7397 16.7213 18.5797 16.7213 19.4797C16.7213 20.3697 16.2213 21.2297 15.3313 21.8197C14.4013 22.4397 13.2013 22.7597 12.0013 22.7597ZM9.50125 18.4097C9.03125 18.7197 8.78125 19.1097 8.78125 19.4997C8.78125 19.8897 9.04125 20.2697 9.50125 20.5797C10.8513 21.4897 13.1413 21.4897 14.4913 20.5797C14.9613 20.2697 15.2113 19.8797 15.2113 19.4897C15.2113 19.0997 14.9513 18.7197 14.4913 18.4097C13.1513 17.4997 10.8613 17.5097 9.50125 18.4097Z" fill="#EC7373"/>
</svg>
