<svg width="24" height="24" viewBox="0 0 24 24" fill="none" xmlns="http://www.w3.org/2000/svg">
<path d="M12.0014 19.3701C10.2114 19.3701 8.42141 18.6901 7.05141 17.3201C4.32141 14.5901 4.32141 10.1501 7.05141 7.42006C9.78141 4.69006 14.2214 4.69006 16.9514 7.42006C19.6814 10.1501 19.6814 14.5901 16.9514 17.3201C15.5814 18.6901 13.7914 19.3701 12.0014 19.3701ZM12.0014 6.87007C10.5914 6.87007 9.1814 7.41006 8.1114 8.48006C5.9714 10.6301 5.9714 14.1101 8.1114 16.2601C10.2614 18.4101 13.7514 18.4001 15.8914 16.2601C18.0314 14.1101 18.0314 10.6301 15.8914 8.48006C14.8214 7.41006 13.4114 6.87007 12.0014 6.87007Z" fill="#EC7373"/>
<path d="M8.24906 22.3899C8.15906 22.3899 8.05906 22.3699 7.96906 22.3399C5.71906 21.4399 3.89905 19.8499 2.67905 17.7499C1.49905 15.6999 1.02905 13.3799 1.33905 11.0199C1.38905 10.6099 1.76905 10.3199 2.17905 10.3699C2.58905 10.4199 2.87904 10.7999 2.82904 11.2099C2.56904 13.2299 2.96907 15.2299 3.97907 16.9899C5.01907 18.7899 6.58905 20.1599 8.51905 20.9299C8.89905 21.0899 9.08906 21.5198 8.93906 21.9098C8.82906 22.2098 8.53906 22.3899 8.24906 22.3899Z" fill="#EC7373"/>
<path d="M5.84961 5.22986C5.62961 5.22986 5.40961 5.12988 5.25961 4.93988C4.99961 4.60988 5.05962 4.13989 5.38962 3.88989C7.29962 2.39989 9.57961 1.60986 11.9996 1.60986C14.3596 1.60986 16.6096 2.36988 18.4996 3.80988C18.8296 4.05988 18.8896 4.52986 18.6396 4.85986C18.3896 5.18986 17.9196 5.24988 17.5896 4.99988C15.9696 3.75988 14.0396 3.10986 11.9996 3.10986C9.91961 3.10986 7.9496 3.78989 6.3096 5.06989C6.1696 5.17989 6.00961 5.22986 5.84961 5.22986Z" fill="#EC7373"/>
<path d="M15.7487 22.3901C15.4487 22.3901 15.1687 22.2101 15.0487 21.9201C14.8987 21.5401 15.0787 21.1001 15.4687 20.9401C17.3987 20.1601 18.9688 18.8001 20.0088 17.0001C21.0288 15.2401 21.4287 13.2401 21.1587 11.2201C21.1087 10.8101 21.3987 10.4301 21.8087 10.3801C22.2087 10.3301 22.5987 10.6201 22.6487 11.0301C22.9487 13.3801 22.4887 15.7101 21.3087 17.7601C20.0987 19.8601 18.2687 21.4401 16.0187 22.3501C15.9387 22.3701 15.8487 22.3901 15.7487 22.3901Z" fill="#EC7373"/>
</svg>
