<svg width="24" height="24" viewBox="0 0 24 24" fill="none" xmlns="http://www.w3.org/2000/svg">
<path d="M11.9688 22.75C6.04875 22.75 1.21875 17.93 1.21875 12C1.21875 6.07 6.04875 1.25 11.9688 1.25C17.8888 1.25 22.7188 6.07 22.7188 12C22.7188 17.93 17.8988 22.75 11.9688 22.75ZM11.9688 2.75C6.86875 2.75 2.71875 6.9 2.71875 12C2.71875 17.1 6.86875 21.25 11.9688 21.25C17.0688 21.25 21.2188 17.1 21.2188 12C21.2188 6.9 17.0688 2.75 11.9688 2.75Z" fill="#EC7373"/>
<path d="M11.9999 19.2499C9.84988 19.2499 7.82988 18.1999 6.59988 16.4299C6.35988 16.0899 6.44988 15.6199 6.78988 15.3899C7.12988 15.1499 7.59988 15.2399 7.82988 15.5799C8.77988 16.9399 10.3399 17.7599 11.9999 17.7599C13.6599 17.7599 15.2199 16.9499 16.1699 15.5799C16.4099 15.2399 16.8699 15.1599 17.2099 15.3899C17.5499 15.6299 17.6299 16.0899 17.3999 16.4299C16.1699 18.1999 14.1499 19.2499 11.9999 19.2499Z" fill="#EC7373"/>
</svg>
