<svg width="48" height="33" viewBox="0 0 48 33" fill="none" xmlns="http://www.w3.org/2000/svg">
<path d="M0.140522 25.9998H15.9002V6.91618H15.7618L7.997 0L0.232172 6.91618H0.140522V6.99781L0.09375 7.03947L0.140522 7.08113V25.9998Z" fill="#FDFEFE"/>
<path d="M15.9003 25.9605L7.9971 33L0.0938518 25.9605L7.9971 18.9211L15.9003 25.9605Z" fill="#FDFEFE"/>
<line x1="8.03119" y1="0.043457" x2="8.03119" y2="18.9645" stroke="#FDFEFE" stroke-width="0.156128"/>
<path d="M32.1405 25.9998H47.9002V6.91618H47.7618L39.997 0L32.2322 6.91618H32.1405V6.99781L32.0938 7.03947L32.1405 7.08113V25.9998Z" fill="#FDFEFE"/>
<path d="M47.9003 25.9605L39.9971 33L32.0939 25.9605L39.9971 18.9211L47.9003 25.9605Z" fill="#FDFEFE"/>
<line x1="40.0312" y1="0.043457" x2="40.0312" y2="18.9645" stroke="#FDFEFE" stroke-width="0.156128"/>
</svg>
