<svg width="48" height="49" viewBox="0 0 48 49" fill="none" xmlns="http://www.w3.org/2000/svg">
<rect x="0.5" y="1" width="47" height="47" rx="23.5" stroke="#F4AFAF"/>
<g clip-path="url(#clip0_8650_1054)">
<path fill-rule="evenodd" clip-rule="evenodd" d="M24.9142 13.1188C24.9118 14.4892 25.1541 15.8467 25.6272 17.1137C26.1002 18.3806 26.7948 19.5323 27.6713 20.5028C28.5478 21.4734 29.589 22.2439 30.7354 22.7703C31.8819 23.2968 33.1111 23.5688 34.353 23.571L34.353 23.6152L34.353 23.6152L34.3504 25.1152L34.3504 25.1152L34.3503 25.1594C33.1084 25.1573 31.8782 25.4251 30.7299 25.9476C29.5817 26.47 28.5378 27.237 27.658 28.2045C26.7782 29.172 26.0796 30.3213 25.6022 31.5866C25.1248 32.8519 24.8778 34.2085 24.8754 35.579L23.3419 35.5764C23.3517 29.9154 26.8414 26.1648 31.534 25.1104L14.3504 25.0807L14.353 23.5807L31.5367 23.6104C26.8477 22.5398 23.3709 18.7771 23.3807 13.1161L24.9142 13.1188Z" fill="#E75050"/>
</g>
<defs>
<clipPath id="clip0_8650_1054">
<rect width="20" height="20" fill="white" transform="translate(14.3359 34.3315) rotate(-89.9012)"/>
</clipPath>
</defs>
</svg>
