<svg width="48" height="49" viewBox="0 0 48 49" fill="none" xmlns="http://www.w3.org/2000/svg">
<rect x="-0.5" y="0.5" width="47" height="47" rx="23.5" transform="matrix(-1 0 0 1 47 0.5)" fill="#E75050"/>
<rect x="-0.5" y="0.5" width="47" height="47" rx="23.5" transform="matrix(-1 0 0 1 47 0.5)" stroke="#F8C9C9"/>
<g clip-path="url(#clip0_8650_1048)">
<path fill-rule="evenodd" clip-rule="evenodd" d="M23.0858 13.1188C23.0882 14.4892 22.8459 15.8467 22.3728 17.1137C21.8998 18.3806 21.2052 19.5323 20.3287 20.5028C19.4522 21.4734 18.411 22.2439 17.2646 22.7703C16.1181 23.2968 14.8889 23.5688 13.647 23.571L13.647 23.6152L13.647 23.6152L13.6496 25.1152L13.6496 25.1152L13.6497 25.1594C14.8916 25.1573 16.1218 25.4251 17.2701 25.9476C18.4183 26.47 19.4622 27.237 20.342 28.2045C21.2218 29.172 21.9204 30.3213 22.3978 31.5866C22.8752 32.8519 23.1222 34.2085 23.1246 35.579L24.6581 35.5764C24.6483 29.9154 21.1586 26.1648 16.466 25.1104L33.6496 25.0807L33.647 23.5807L16.4633 23.6104C21.1523 22.5398 24.6291 18.7771 24.6193 13.1161L23.0858 13.1188Z" fill="#E6F0EA"/>
</g>
<defs>
<clipPath id="clip0_8650_1048">
<rect width="20" height="20" fill="white" transform="matrix(-0.00172503 -0.999999 -0.999999 0.00172503 33.6641 34.3315)"/>
</clipPath>
</defs>
</svg>
