<svg width="21" height="21" viewBox="0 0 21 21" fill="none" xmlns="http://www.w3.org/2000/svg">
<path fill-rule="evenodd" clip-rule="evenodd" d="M10.0858 -0.881227C10.0882 0.489233 9.8459 1.8467 9.37284 3.11365C8.89977 4.38061 8.20517 5.53226 7.32869 6.50283C6.45222 7.47341 5.41103 8.24391 4.26458 8.77034C3.11812 9.29677 1.88886 9.56883 0.646969 9.57097L0.647045 9.61522L0.647015 9.61522L0.649602 11.1152L0.649633 11.1152L0.649709 11.1594C1.8916 11.1573 3.12179 11.4251 4.27006 11.9476C5.41832 12.47 6.46216 13.237 7.34198 14.2045C8.2218 15.172 8.92037 16.3213 9.3978 17.5866C9.87524 18.8519 10.1222 20.2085 10.1246 21.579L11.6581 21.5764C11.6483 15.9154 8.1586 12.1648 3.46602 11.1104L20.6496 11.0807L20.647 9.58072L3.46332 9.61036C8.15229 8.53975 11.6291 4.77711 11.6193 -0.883872L10.0858 -0.881227Z" fill="#E6F0EA"/>
</svg>
