<svg width="72" height="72" viewBox="0 0 72 72" fill="none" xmlns="http://www.w3.org/2000/svg">
<rect width="72" height="72" rx="36" fill="#E6F0EA"/>
<path d="M43.7472 27.3198V28.3065L39.0272 25.5732C37.2406 24.5465 34.7472 24.5465 32.9739 25.5732L28.2539 28.3198V27.3198C28.2539 24.3198 29.8939 22.6665 32.8939 22.6665H39.1072C42.1072 22.6665 43.7472 24.3198 43.7472 27.3198Z" fill="#549A72"/>
<path d="M43.788 30.6265L43.6013 30.5332L41.788 29.4932L38.028 27.3198C36.8813 26.6532 35.1213 26.6532 33.9746 27.3198L30.2146 29.4798L28.4013 30.5465L28.1613 30.6665C25.828 32.2398 25.668 32.5332 25.668 35.0532V41.0798C25.668 43.5998 25.828 43.8932 28.2146 45.5065L33.9746 48.8265C34.548 49.1732 35.268 49.3198 36.0013 49.3198C36.7213 49.3198 37.4546 49.1598 38.028 48.8265L43.8413 45.4665C46.188 43.8932 46.3346 43.6132 46.3346 41.0798V35.0532C46.3346 32.5332 46.1746 32.2398 43.788 30.6265ZM39.7213 37.9998L38.908 38.9998C38.7746 39.1465 38.6813 39.4265 38.6946 39.6265L38.7746 40.9065C38.828 41.6932 38.268 42.0932 37.5346 41.8132L36.348 41.3332C36.1613 41.2665 35.8546 41.2665 35.668 41.3332L34.4813 41.7998C33.748 42.0932 33.188 41.6798 33.2413 40.8932L33.3213 39.6132C33.3346 39.4132 33.2413 39.1332 33.108 38.9865L32.2813 37.9998C31.7746 37.3998 32.0013 36.7332 32.7613 36.5332L34.0013 36.2132C34.2013 36.1598 34.428 35.9732 34.5346 35.8132L35.228 34.7465C35.6546 34.0798 36.3346 34.0798 36.7746 34.7465L37.468 35.8132C37.5746 35.9865 37.8146 36.1598 38.0013 36.2132L39.2413 36.5332C40.0013 36.7332 40.228 37.3998 39.7213 37.9998Z" fill="#549A72"/>
</svg>
