<svg width="32" height="32" viewBox="0 0 32 32" fill="none" xmlns="http://www.w3.org/2000/svg">
<path d="M29.0785 5.25313C27.3318 9.61313 23.3452 15.3065 19.5452 19.0265C18.9985 15.5865 16.2518 12.8931 12.7852 12.4131C16.5185 8.59979 22.2518 4.55979 26.6252 2.79979C27.3985 2.50646 28.1718 2.73313 28.6518 3.21313C29.1585 3.71979 29.3985 4.47979 29.0785 5.25313Z" fill="#549A72"/>
<path d="M18.3735 20.1199C18.1068 20.3466 17.8402 20.5733 17.5735 20.7866L15.1868 22.6933C15.1868 22.6533 15.1735 22.5999 15.1735 22.5466C14.9868 21.1199 14.3202 19.7999 13.2402 18.7199C12.1468 17.6266 10.7868 16.9599 9.29349 16.7733C9.25349 16.7733 9.20016 16.7599 9.16016 16.7599L11.0935 14.3199C11.2802 14.0799 11.4802 13.8533 11.6935 13.6133L12.6002 13.7333C15.4668 14.1333 17.7735 16.3866 18.2268 19.2399L18.3735 20.1199Z" fill="#549A72"/>
<path d="M13.9077 23.4934C13.9077 24.9601 13.3477 26.3601 12.281 27.4134C11.4677 28.2401 10.3743 28.8001 9.04099 28.9601L5.77432 29.3201C3.98765 29.5201 2.45432 27.9868 2.65432 26.1868L3.01432 22.9068C3.33432 19.9868 5.77432 18.1201 8.36099 18.0668C8.61432 18.0534 8.89432 18.0668 9.16099 18.0934C10.2943 18.2401 11.3877 18.7601 12.3077 19.6668C13.201 20.5601 13.7077 21.6134 13.8543 22.7201C13.881 22.9868 13.9077 23.2401 13.9077 23.4934Z" fill="#549A72"/>
</svg>
