<svg width="531" height="416" viewBox="0 0 531 416" fill="none" xmlns="http://www.w3.org/2000/svg">
<rect x="50" width="481" height="416" rx="24" fill="#252424"/>
<path d="M88.291 44.7744H85.6104C85.3232 46.0811 84.7227 47.124 83.8086 47.9033C82.8359 48.7354 81.6436 49.1514 80.2314 49.1514H80.1963C78.4795 49.1514 77.1113 48.5684 76.0918 47.4023C75.1191 46.3008 74.6328 44.8975 74.6328 43.1924V41.6631C74.6328 41.0596 74.7412 40.6494 74.958 40.4326C75.1689 40.2217 75.541 40.1162 76.0742 40.1162C76.3848 40.1162 76.7363 40.1982 77.1289 40.3623C76.8418 41.1064 76.6982 42.0498 76.6982 43.1924C76.6982 44.4404 76.9795 45.4893 77.542 46.3389C78.1807 47.2881 79.0713 47.7627 80.2139 47.7627C81.3389 47.7627 82.2207 47.2822 82.8594 46.3213C83.4219 45.4834 83.7031 44.4404 83.7031 43.1924V34.2451C83.7031 33.6475 83.8115 33.2402 84.0283 33.0234C84.2451 32.8066 84.6172 32.6982 85.1445 32.6982C85.4668 32.6982 85.8271 32.7803 86.2256 32.9443C85.9209 33.6885 85.7686 34.6318 85.7686 35.7744V43.3857H88.291V44.7744ZM92.5801 48.0703C92.2461 48.0703 91.9648 47.9619 91.7363 47.7451C91.5078 47.5166 91.3936 47.2354 91.3936 46.9014C91.3936 46.5732 91.5137 46.2949 91.7539 46.0664C91.9941 45.8555 92.2812 45.75 92.6152 45.75C92.9258 45.75 93.1953 45.8555 93.4238 46.0664C93.6523 46.2949 93.7666 46.5732 93.7666 46.9014C93.7666 47.2354 93.6465 47.5107 93.4062 47.7275C93.166 47.9561 92.8906 48.0703 92.5801 48.0703ZM89.5215 48.0703C89.1816 48.0703 88.8975 47.9619 88.6689 47.7451C88.4463 47.5166 88.335 47.2354 88.335 46.9014C88.335 46.5732 88.4551 46.2949 88.6953 46.0664C88.9297 45.8555 89.2168 45.75 89.5566 45.75C89.8672 45.75 90.1367 45.8555 90.3652 46.0664C90.5938 46.2949 90.708 46.5732 90.708 46.9014C90.708 47.2354 90.5879 47.5107 90.3477 47.7275C90.1074 47.9561 89.832 48.0703 89.5215 48.0703ZM93.1338 35.9941C93.4619 35.9941 93.8164 36.0762 94.1973 36.2402C93.9102 36.9844 93.7666 37.9277 93.7666 39.0703V40.3975C93.7549 41.6572 93.4004 42.6855 92.7031 43.4824C91.9473 44.3438 90.9336 44.7744 89.6621 44.7744H88.0801V43.3857H89.6621C91.0215 43.3857 91.7012 42.3838 91.7012 40.3799V37.541C91.7012 36.9375 91.8066 36.5273 92.0176 36.3105C92.2344 36.0996 92.6064 35.9941 93.1338 35.9941ZM102.301 40.3799C102.301 39.4951 102.14 38.7891 101.817 38.2617C101.454 37.6699 100.933 37.374 100.253 37.374C99.5908 37.374 99.0723 37.6699 98.6973 38.2617C98.375 38.8008 98.2139 39.5068 98.2139 40.3799C98.2139 41.2705 98.375 41.9795 98.6973 42.5068C99.0488 43.0928 99.5674 43.3857 100.253 43.3857H102.301V40.3799ZM106.643 43.3857V44.7744H104.375C104.363 46.0342 104.003 47.0596 103.294 47.8506C102.55 48.7178 101.542 49.1514 100.271 49.1514H98.9521C98.1963 49.1514 97.7275 48.9346 97.5459 48.501C97.5107 48.4248 97.4932 48.3428 97.4932 48.2549C97.4932 47.9736 97.6689 47.6543 98.0205 47.2969C98.3076 47.6074 98.7119 47.7627 99.2334 47.7627H100.253C101.606 47.7627 102.289 46.7666 102.301 44.7744H100.253C98.9814 44.7744 97.9736 44.3438 97.2295 43.4824C96.5088 42.6621 96.1484 41.6279 96.1484 40.3799C96.1484 39.1201 96.5088 38.083 97.2295 37.2686C97.9854 36.4189 98.9932 35.9941 100.253 35.9941C101.536 35.9941 102.55 36.4189 103.294 37.2686C104.015 38.083 104.375 39.1201 104.375 40.3799V43.3857H106.643ZM115.326 43.3857H117.497V44.7744H114.597C114.526 44.7803 114.456 44.7832 114.386 44.7832H106.379V43.3945H113.34C113.205 42.668 113.117 41.9033 113.076 41.1006V39.4131C113.088 39.249 113.094 39.0996 113.094 38.9648C113.094 38.6133 113.062 38.3379 112.997 38.1387C112.921 37.8867 112.745 37.6729 112.47 37.4971C112.271 37.374 112.004 37.3125 111.67 37.3125C110.902 37.3125 110.398 37.3682 110.158 37.4795C109.701 37.6963 109.461 38.083 109.438 38.6396C108.611 38.5928 108.198 38.2734 108.198 37.6816C108.198 37.1191 108.491 36.7061 109.077 36.4424C109.733 36.1436 110.51 35.9941 111.406 35.9941C112.812 35.9941 113.791 36.2227 114.342 36.6797C114.869 37.125 115.133 37.9424 115.133 39.1318V41.54C115.133 42.1787 115.197 42.7939 115.326 43.3857ZM122.155 35.0186C121.815 35.0186 121.531 34.9102 121.303 34.6934C121.074 34.4766 120.96 34.2012 120.96 33.8672C120.96 33.5332 121.08 33.252 121.32 33.0234C121.561 32.8066 121.851 32.6982 122.19 32.6982C122.501 32.6982 122.771 32.8066 122.999 33.0234C123.228 33.252 123.342 33.5332 123.342 33.8672C123.342 34.1895 123.222 34.4648 122.981 34.6934C122.741 34.9102 122.466 35.0186 122.155 35.0186ZM119.088 35.0186C118.766 35.0186 118.484 34.9102 118.244 34.6934C118.016 34.4766 117.901 34.2012 117.901 33.8672C117.901 33.5332 118.021 33.252 118.262 33.0234C118.502 32.8066 118.792 32.6982 119.132 32.6982C119.442 32.6982 119.712 32.8066 119.94 33.0234C120.169 33.252 120.283 33.5332 120.283 33.8672C120.283 34.1895 120.163 34.4648 119.923 34.6934C119.683 34.9102 119.404 35.0186 119.088 35.0186ZM123.86 43.3857V44.7744H123.685C122.413 44.7744 121.394 44.3291 120.626 43.4385C119.882 44.3174 118.859 44.7627 117.559 44.7744H117.383V43.3857H117.541C118.912 43.3857 119.598 42.3838 119.598 40.3799V37.541C119.598 36.9375 119.706 36.5273 119.923 36.3105C120.14 36.0996 120.512 35.9941 121.039 35.9941C121.35 35.9941 121.701 36.0762 122.094 36.2402C121.807 36.9844 121.663 37.9277 121.663 39.0703V40.3799C121.663 41.2705 121.821 41.9795 122.138 42.5068C122.495 43.0928 123.017 43.3857 123.702 43.3857H123.86ZM127.341 32.6982C127.669 32.6982 128.029 32.7803 128.422 32.9443C128.135 33.6885 127.991 34.6318 127.991 35.7744V40.3975C127.979 41.6572 127.619 42.6855 126.91 43.4824C126.166 44.3438 125.158 44.7744 123.887 44.7744H123.799V43.3857H123.869C125.229 43.3857 125.914 42.3838 125.926 40.3799V34.2451C125.926 33.6475 126.031 33.2402 126.242 33.0234C126.459 32.8066 126.825 32.6982 127.341 32.6982ZM131.841 32.6982C132.163 32.6982 132.523 32.7803 132.922 32.9443C132.617 33.6885 132.465 34.6318 132.465 35.7744V43.2275C132.465 43.8252 132.356 44.2324 132.14 44.4492C131.929 44.666 131.565 44.7744 131.05 44.7744C130.722 44.7744 130.361 44.6895 129.969 44.5195C130.256 43.7754 130.399 42.835 130.399 41.6982V34.2451C130.399 33.6475 130.514 33.2402 130.742 33.0234C130.959 32.8066 131.325 32.6982 131.841 32.6982ZM145.525 52.4385C145.197 52.4385 144.913 52.333 144.673 52.1221C144.444 51.9053 144.33 51.6211 144.33 51.2695C144.33 50.9473 144.45 50.6719 144.69 50.4434C144.931 50.2266 145.221 50.1182 145.561 50.1182C145.871 50.1182 146.141 50.2266 146.369 50.4434C146.609 50.6719 146.729 50.9473 146.729 51.2695C146.729 51.6094 146.604 51.8877 146.352 52.1045C146.111 52.3271 145.836 52.4385 145.525 52.4385ZM142.458 52.4385C142.136 52.4385 141.86 52.333 141.632 52.1221C141.392 51.9053 141.271 51.6211 141.271 51.2695C141.271 50.9473 141.392 50.6719 141.632 50.4434C141.884 50.2266 142.171 50.1182 142.493 50.1182C142.81 50.1182 143.082 50.2266 143.311 50.4434C143.551 50.6719 143.671 50.9473 143.671 51.2695C143.671 51.6094 143.551 51.8877 143.311 52.1045C143.059 52.3271 142.774 52.4385 142.458 52.4385ZM151.388 44.7744H149.753C149.431 46.0693 148.766 47.1123 147.758 47.9033C146.709 48.7354 145.473 49.1514 144.049 49.1514H144.014C142.273 49.1514 140.844 48.5684 139.725 47.4023C138.623 46.2715 138.072 44.8682 138.072 43.1924V41.6631C138.072 41.0596 138.181 40.6494 138.397 40.4326C138.608 40.2217 138.98 40.1162 139.514 40.1162C139.824 40.1162 140.176 40.1982 140.568 40.3623C140.281 41.1064 140.138 42.0498 140.138 43.1924C140.138 44.4053 140.48 45.4541 141.166 46.3389C141.922 47.2881 142.877 47.7627 144.031 47.7627C144.904 47.7627 145.672 47.4756 146.334 46.9014C146.943 46.3623 147.38 45.6533 147.644 44.7744H146.264C145.52 44.7744 145.051 44.5576 144.857 44.124C144.822 44.042 144.805 43.957 144.805 43.8691C144.805 43.5938 144.978 43.2832 145.323 42.9375C145.622 43.2363 146.026 43.3857 146.536 43.3857H151.388V44.7744ZM157.619 35.0273C157.291 35.0273 157.01 34.916 156.775 34.6934C156.547 34.4766 156.433 34.1982 156.433 33.8584C156.433 33.5303 156.553 33.2549 156.793 33.0322C157.039 32.8096 157.323 32.6982 157.646 32.6982C157.962 32.6982 158.237 32.8096 158.472 33.0322C158.7 33.2549 158.814 33.5303 158.814 33.8584C158.814 34.1865 158.694 34.4619 158.454 34.6846C158.214 34.9131 157.936 35.0273 157.619 35.0273ZM157.628 43.3945C158.313 43.3945 158.835 43.0986 159.192 42.5068C159.509 41.9795 159.667 41.2705 159.667 40.3799C159.667 39.501 159.503 38.792 159.175 38.2529C158.812 37.667 158.296 37.374 157.628 37.374C156.942 37.374 156.421 37.667 156.063 38.2529C155.741 38.7803 155.58 39.4893 155.58 40.3799V43.3945H157.628ZM157.628 35.9854C158.888 35.9854 159.896 36.4131 160.651 37.2686C161.372 38.083 161.732 39.1172 161.732 40.3711C161.732 41.625 161.375 42.6621 160.66 43.4824C159.91 44.3438 158.902 44.7744 157.637 44.7744H151.133V43.3945H153.515V40.3711C153.515 39.1113 153.872 38.0771 154.587 37.2686C155.337 36.4131 156.351 35.9854 157.628 35.9854ZM170.987 37.374C170.302 37.374 169.783 37.6699 169.432 38.2617C169.109 38.7891 168.948 39.4951 168.948 40.3799C168.948 41.2588 169.109 41.9678 169.432 42.5068C169.807 43.0928 170.325 43.3857 170.987 43.3857C171.667 43.3857 172.188 43.0928 172.552 42.5068C172.874 41.9795 173.035 41.2705 173.035 40.3799V37.374H170.987ZM175.109 40.3975C175.109 41.6572 174.749 42.6914 174.028 43.5C173.284 44.3496 172.271 44.7744 170.987 44.7744C169.728 44.7744 168.72 44.3496 167.964 43.5C167.243 42.6797 166.883 41.6455 166.883 40.3975C166.883 39.1377 167.243 38.1006 167.964 37.2861C168.72 36.4248 169.728 35.9941 170.987 35.9941H175.109V40.3975ZM172.895 35.0186C172.555 35.0186 172.271 34.9102 172.042 34.6934C171.819 34.4766 171.708 34.2012 171.708 33.8672C171.708 33.5332 171.828 33.2578 172.068 33.041C172.303 32.8125 172.584 32.6982 172.912 32.6982C173.234 32.6982 173.51 32.8125 173.738 33.041C173.967 33.2578 174.081 33.5332 174.081 33.8672C174.081 34.1895 173.961 34.4648 173.721 34.6934C173.48 34.9102 173.205 35.0186 172.895 35.0186ZM169.836 35.0186C169.496 35.0186 169.212 34.9102 168.983 34.6934C168.755 34.4766 168.641 34.2012 168.641 33.8672C168.641 33.5332 168.761 33.2578 169.001 33.041C169.241 32.8125 169.525 32.6982 169.854 32.6982C170.176 32.6982 170.451 32.8125 170.68 33.041C170.908 33.2578 171.022 33.5332 171.022 33.8672C171.022 34.1895 170.902 34.4648 170.662 34.6934C170.422 34.9102 170.146 35.0186 169.836 35.0186ZM177.008 42.9199C177.307 43.2305 177.714 43.3857 178.229 43.3857H180.515C181.212 43.3857 181.733 43.0928 182.079 42.5068C182.401 41.9795 182.562 41.2705 182.562 40.3799C182.562 39.4951 182.396 38.7891 182.062 38.2617C181.704 37.6699 181.188 37.374 180.515 37.374H180.392C179.835 37.374 179.419 37.459 179.144 37.6289C178.616 37.9395 178.288 38.4258 178.159 39.0879C177.497 38.9531 177.166 38.6279 177.166 38.1123C177.166 37.4326 177.544 36.8936 178.3 36.4951C178.921 36.1729 179.659 36.0059 180.515 35.9941C181.774 35.9941 182.788 36.4189 183.556 37.2686C184.276 38.083 184.637 39.1143 184.637 40.3623C184.637 41.6221 184.282 42.6621 183.573 43.4824C182.817 44.332 181.815 44.7627 180.567 44.7744H177.939C177.195 44.7744 176.727 44.5576 176.533 44.124C176.498 44.0479 176.48 43.9658 176.48 43.8779C176.48 43.5967 176.656 43.2773 177.008 42.9199ZM190.2 43.3857V44.7744H190.112C188.853 44.7744 187.845 44.3438 187.089 43.4824C186.368 42.6738 186.008 41.6396 186.008 40.3799V34.2451C186.008 33.6475 186.116 33.2402 186.333 33.0234C186.544 32.8066 186.916 32.6982 187.449 32.6982C187.76 32.6982 188.111 32.7803 188.504 32.9443C188.217 33.6885 188.073 34.6318 188.073 35.7744V40.3799C188.073 41.2705 188.234 41.9795 188.557 42.5068C188.908 43.0928 189.427 43.3857 190.112 43.3857H190.2ZM194.621 48.0703C194.287 48.0703 194.006 47.9619 193.777 47.7451C193.549 47.5166 193.435 47.2354 193.435 46.9014C193.435 46.5732 193.555 46.2949 193.795 46.0664C194.035 45.8555 194.322 45.75 194.656 45.75C194.967 45.75 195.236 45.8555 195.465 46.0664C195.693 46.2949 195.808 46.5732 195.808 46.9014C195.808 47.2354 195.688 47.5107 195.447 47.7275C195.207 47.9561 194.932 48.0703 194.621 48.0703ZM191.562 48.0703C191.223 48.0703 190.938 47.9619 190.71 47.7451C190.487 47.5166 190.376 47.2354 190.376 46.9014C190.376 46.5732 190.496 46.2949 190.736 46.0664C190.971 45.8555 191.258 45.75 191.598 45.75C191.908 45.75 192.178 45.8555 192.406 46.0664C192.635 46.2949 192.749 46.5732 192.749 46.9014C192.749 47.2354 192.629 47.5107 192.389 47.7275C192.148 47.9561 191.873 48.0703 191.562 48.0703ZM195.175 35.9941C195.503 35.9941 195.857 36.0762 196.238 36.2402C195.951 36.9844 195.808 37.9277 195.808 39.0703V40.3975C195.796 41.6572 195.441 42.6855 194.744 43.4824C193.988 44.3438 192.975 44.7744 191.703 44.7744H190.121V43.3857H191.703C193.062 43.3857 193.742 42.3838 193.742 40.3799V37.541C193.742 36.9375 193.848 36.5273 194.059 36.3105C194.275 36.0996 194.647 35.9941 195.175 35.9941ZM201.547 35.9941C201.869 35.9941 202.229 36.0762 202.628 36.2402C202.323 36.9844 202.171 37.9277 202.171 39.0703V44.7744C202.159 46.0342 201.808 47.0596 201.116 47.8506C200.36 48.7178 199.347 49.1514 198.075 49.1514H197.715C196.971 49.1514 196.502 48.9346 196.309 48.501C196.273 48.4189 196.256 48.334 196.256 48.2461C196.256 47.9707 196.429 47.6543 196.774 47.2969C197.073 47.6074 197.48 47.7627 197.996 47.7627H198.075C199.429 47.7627 200.105 46.7666 200.105 44.7744V37.541C200.105 36.9375 200.214 36.5273 200.431 36.3105C200.647 36.0996 201.02 35.9941 201.547 35.9941ZM201.397 35.0361C201.063 35.0361 200.782 34.9219 200.554 34.6934C200.325 34.4766 200.211 34.2012 200.211 33.8672C200.211 33.5332 200.331 33.2578 200.571 33.041C200.812 32.8125 201.093 32.6982 201.415 32.6982C201.743 32.6982 202.021 32.8125 202.25 33.041C202.479 33.2578 202.593 33.5332 202.593 33.8672C202.593 34.1895 202.473 34.4648 202.232 34.6934C201.992 34.9219 201.714 35.0361 201.397 35.0361Z" fill="white"/>
<path d="M93.6875 98.2549C97.8867 98.2549 102.047 98.0303 106.168 97.5811C106.324 98.0693 106.402 98.9092 106.402 100.101C106.402 101.116 106.109 101.976 105.523 102.679C104.957 103.362 104.205 103.704 103.268 103.704C102.311 103.704 100.807 103.606 98.7559 103.411C96.7246 103.216 95.0156 103.118 93.6289 103.118C93.6289 106.282 93.8438 110.325 94.2734 115.247C93.4336 115.403 92.5742 115.481 91.6953 115.481C90.7383 115.481 89.8984 115.228 89.1758 114.72C88.4531 114.192 88.0918 113.421 88.0918 112.405C88.0918 112.093 88.1699 111.106 88.3262 109.446C88.502 107.786 88.6289 105.657 88.707 103.06C86.8711 103.06 82.75 103.274 76.3438 103.704C76.1875 102.864 76.1094 102.024 76.1094 101.185C76.1094 100.267 76.3535 99.4365 76.8418 98.6943C77.3496 97.9521 78.1406 97.5811 79.2148 97.5811C79.5469 97.5811 80.6211 97.6689 82.4375 97.8447C84.2539 98.001 86.3828 98.1182 88.8242 98.1963C88.8242 94.0752 88.5801 90.0322 88.0918 86.0674C88.6191 85.9111 89.4785 85.833 90.6699 85.833C91.6855 85.833 92.5352 86.1162 93.2188 86.6826C93.9219 87.2295 94.2734 87.9619 94.2734 88.8799C94.2734 89.8564 94.1758 91.3018 93.9805 93.2158C93.7852 95.1299 93.6875 96.8096 93.6875 98.2549ZM115.888 86.8584C112.938 86.0186 111.464 84.4365 111.464 82.1123C111.464 80.5107 112.977 78.9971 116.005 77.5713C119.052 76.126 122.294 75.4033 125.731 75.4033C129.325 75.4033 132.362 76.3896 134.843 78.3623C137.323 80.335 138.563 83.1475 138.563 86.7998C138.563 88.0303 138.339 89.3193 137.889 90.667C137.46 92.0146 136.971 93.2158 136.425 94.2705C135.897 95.3252 135.048 96.5361 133.876 97.9033C132.723 99.251 131.805 100.296 131.122 101.038C130.458 101.78 129.354 102.825 127.811 104.173C126.268 105.501 125.233 106.38 124.706 106.81C124.198 107.22 123.182 108.05 121.659 109.3C121.737 109.339 122.177 109.358 122.977 109.358C127.86 109.358 131.356 109.28 133.466 109.124C135.595 108.948 137.714 108.509 139.823 107.806C140.35 109.192 140.614 110.364 140.614 111.321C140.614 113.099 140.096 114.28 139.061 114.866C137.811 115.55 134.052 115.892 127.782 115.892C125.985 115.892 123.505 115.872 120.341 115.833C117.177 115.794 114.95 115.774 113.661 115.774C111.552 115.774 110.497 114.573 110.497 112.171C110.497 111.487 110.614 110.589 110.848 109.476C118.563 102.718 123.583 98.0205 125.907 95.3838C128.231 92.7471 129.393 90.1201 129.393 87.5029C129.393 85.4326 128.954 83.8994 128.075 82.9033C127.196 81.8877 126.034 81.3799 124.589 81.3799C123.026 81.3799 121.425 81.9072 119.784 82.9619C118.143 83.9971 116.845 85.2959 115.888 86.8584ZM170.929 110.794C168.078 114.505 164.259 116.36 159.474 116.36C154.67 116.36 150.851 114.515 148.019 110.823C145.207 107.132 143.8 102.161 143.8 95.9111C143.8 89.6416 145.207 84.6611 148.019 80.9697C150.851 77.2588 154.67 75.4033 159.474 75.4033C164.259 75.4033 168.078 77.2588 170.929 80.9697C173.8 84.6611 175.236 89.6416 175.236 95.9111C175.236 102.122 173.8 107.083 170.929 110.794ZM165.832 96.9365C165.832 92.9326 165.265 89.3291 164.132 86.126C163.019 82.9229 161.466 81.3213 159.474 81.3213C157.58 81.3213 156.037 82.5518 154.845 85.0127C153.654 87.4736 153.058 90.4912 153.058 94.0654C153.058 98.3818 153.615 102.2 154.728 105.521C155.841 108.841 157.404 110.501 159.416 110.501C161.33 110.501 162.873 109.202 164.045 106.604C165.236 104.007 165.832 100.784 165.832 96.9365ZM217.27 116.36C214.106 116.36 211.586 115.462 209.711 113.665C207.856 111.868 206.928 109.456 206.928 106.429C206.928 103.343 207.856 100.911 209.711 99.1338C211.586 97.3564 214.106 96.4678 217.27 96.4678C220.375 96.4678 222.846 97.3662 224.682 99.1631C226.537 100.96 227.465 103.372 227.465 106.399C227.465 109.446 226.537 111.868 224.682 113.665C222.846 115.462 220.375 116.36 217.27 116.36ZM220.375 106.839C220.375 105.276 220.102 103.89 219.555 102.679C219.028 101.448 218.266 100.833 217.27 100.833C216.293 100.833 215.493 101.292 214.868 102.21C214.262 103.128 213.959 104.29 213.959 105.696C213.959 107.337 214.233 108.792 214.78 110.062C215.346 111.312 216.157 111.937 217.211 111.937C218.168 111.937 218.93 111.458 219.496 110.501C220.082 109.544 220.375 108.323 220.375 106.839ZM189.526 113.138L203.53 90.9893C207.651 84.5049 211.069 78.7822 213.784 73.8213C214.78 73.8604 215.678 74.1436 216.479 74.6709C217.28 75.1982 217.68 75.8428 217.68 76.6045C217.68 77.1904 217.475 77.7861 217.065 78.3916L203.09 100.599C199.457 106.36 196.02 112.083 192.778 117.767C190.297 117.239 188.979 116.38 188.823 115.188C188.823 114.505 189.057 113.821 189.526 113.138ZM188.705 95.7939C185.541 95.7939 183.032 94.8955 181.176 93.0986C179.321 91.3018 178.393 88.8799 178.393 85.833C178.393 82.7471 179.321 80.3154 181.176 78.5381C183.032 76.7607 185.541 75.8721 188.705 75.8721C191.83 75.8721 194.311 76.7705 196.147 78.5674C197.983 80.3643 198.901 82.7861 198.901 85.833C198.901 88.8799 197.983 91.3018 196.147 93.0986C194.311 94.8955 191.83 95.7939 188.705 95.7939ZM191.811 86.2432C191.811 84.7002 191.537 83.3232 190.991 82.1123C190.463 80.8818 189.702 80.2666 188.705 80.2666C187.748 80.2666 186.957 80.7256 186.332 81.6436C185.707 82.5615 185.395 83.7139 185.395 85.1006C185.395 86.7412 185.668 88.1963 186.215 89.4658C186.782 90.7158 187.592 91.3408 188.647 91.3408C189.604 91.3408 190.366 90.8623 190.932 89.9053C191.518 88.9482 191.811 87.7275 191.811 86.2432Z" fill="white"/>
<path d="M112.393 278.47V279.837H112.037C111.153 279.837 110.417 279.575 109.829 279.051C109.246 279.575 108.512 279.837 107.628 279.837H102.795C101.788 279.837 100.981 279.505 100.375 278.839C99.7964 278.206 99.507 277.402 99.507 276.426V275.107C99.507 274.373 99.8762 274.006 100.614 274.006C101.047 274.006 101.485 274.072 101.927 274.205C101.754 274.806 101.667 275.54 101.667 276.406V276.426C101.667 277.789 102.045 278.47 102.802 278.47H107.614C108.371 278.47 108.749 277.789 108.749 276.426V271.539C108.749 270.805 109.121 270.438 109.863 270.438C110.296 270.438 110.732 270.506 111.169 270.643C111.001 271.24 110.916 271.972 110.916 272.837V276.433C110.916 277.791 111.294 278.47 112.051 278.47H112.393ZM106.637 274.17C106.66 274.221 106.671 274.271 106.671 274.321C106.671 274.371 106.66 274.421 106.637 274.471C106.555 274.663 106.377 274.758 106.104 274.758H104.743C104.666 274.758 104.613 274.767 104.586 274.786C104.522 274.827 104.481 274.89 104.463 274.977L104.436 275.114L104.422 275.203L104.333 275.182L104.196 275.155C104.064 275.127 103.964 275.077 103.896 275.004C103.827 274.927 103.793 274.827 103.793 274.704C103.793 274.458 103.918 274.266 104.169 274.129C104.242 274.088 104.322 274.054 104.408 274.027C104.345 273.867 104.313 273.692 104.313 273.5C104.313 273.15 104.418 272.858 104.627 272.625C104.846 272.375 105.138 272.25 105.502 272.25C105.739 272.254 105.946 272.304 106.124 272.4C106.384 272.537 106.514 272.728 106.514 272.974C106.514 273.097 106.477 273.197 106.404 273.275C106.332 273.348 106.229 273.398 106.097 273.425L105.96 273.453L105.878 273.466L105.864 273.384L105.837 273.248C105.814 273.156 105.771 273.093 105.707 273.056C105.675 273.038 105.616 273.029 105.529 273.029H105.502C105.334 273.029 105.249 273.188 105.249 273.507C105.249 273.826 105.334 273.986 105.502 273.986H106.029C106.092 273.986 106.136 273.972 106.158 273.945L106.261 273.842L106.322 273.781L106.384 273.842L106.48 273.945C106.557 274.018 106.61 274.093 106.637 274.17ZM118.354 278.47V279.837H117.451C116.567 279.837 115.831 279.573 115.243 279.044C114.655 279.573 113.919 279.837 113.035 279.837H112.112V278.47H113.029C113.785 278.47 114.163 277.789 114.163 276.426V274.102C114.163 273.368 114.535 273.001 115.278 273.001C115.706 273.001 116.141 273.068 116.583 273.2C116.41 273.801 116.323 274.535 116.323 275.401V276.426C116.328 277.789 116.709 278.47 117.465 278.47H118.354ZM116.638 283.235C116.319 283.235 116.052 283.125 115.838 282.907C115.619 282.688 115.51 282.408 115.51 282.066C115.51 281.747 115.624 281.476 115.852 281.252C116.084 281.029 116.353 280.917 116.658 280.917C116.964 280.917 117.226 281.029 117.445 281.252C117.663 281.476 117.773 281.747 117.773 282.066C117.773 282.399 117.656 282.677 117.424 282.9C117.196 283.123 116.934 283.235 116.638 283.235ZM113.842 283.235C113.528 283.235 113.261 283.125 113.042 282.907C112.823 282.688 112.714 282.408 112.714 282.066C112.714 281.747 112.83 281.476 113.063 281.252C113.295 281.029 113.564 280.917 113.869 280.917C114.175 280.917 114.437 281.029 114.655 281.252C114.874 281.476 114.984 281.747 114.984 282.066C114.984 282.399 114.867 282.677 114.635 282.9C114.403 283.123 114.138 283.235 113.842 283.235ZM122.879 272.208C122.565 272.208 122.298 272.099 122.079 271.88C121.861 271.662 121.751 271.381 121.751 271.04C121.751 270.721 121.867 270.449 122.1 270.226C122.328 270.003 122.597 269.891 122.906 269.891C123.207 269.891 123.467 270.003 123.686 270.226C123.909 270.449 124.021 270.721 124.021 271.04C124.021 271.372 123.904 271.65 123.672 271.874C123.44 272.097 123.175 272.208 122.879 272.208ZM122.975 278.47C123.736 278.47 124.116 277.787 124.116 276.419C124.116 275.822 124.021 275.339 123.829 274.97C123.629 274.569 123.344 274.369 122.975 274.369C122.606 274.369 122.319 274.569 122.113 274.97C121.931 275.335 121.84 275.818 121.84 276.419V278.47H122.975ZM122.975 273.001C123.987 273.001 124.798 273.334 125.408 274C125.987 274.633 126.277 275.437 126.277 276.413C126.277 277.388 125.989 278.194 125.415 278.833C124.809 279.502 124 279.837 122.988 279.837H118.073V278.47H119.68V276.413C119.68 275.433 119.967 274.628 120.541 274C121.147 273.334 121.959 273.001 122.975 273.001ZM128.984 270.438C129.417 270.438 129.852 270.506 130.289 270.643C130.121 271.24 130.036 271.972 130.036 272.837V278.737C130.036 279.471 129.665 279.837 128.922 279.837C128.489 279.837 128.054 279.771 127.616 279.639C127.785 279.038 127.869 278.304 127.869 277.438V271.539C127.869 270.805 128.241 270.438 128.984 270.438ZM136.421 279.837H134.917C134.913 280.808 134.621 281.608 134.042 282.237C133.436 282.902 132.632 283.235 131.629 283.235H131.274C130.54 283.235 130.08 283.018 129.893 282.585C129.861 282.508 129.845 282.426 129.845 282.339C129.845 282.066 130.016 281.756 130.358 281.41C130.654 281.715 131.066 281.868 131.595 281.868H131.615C132.372 281.868 132.752 281.186 132.757 279.824V274.102C132.757 273.368 133.126 273.001 133.864 273.001C134.297 273.001 134.735 273.068 135.177 273.2C135.004 273.801 134.917 274.535 134.917 275.401V278.47H136.421V279.837ZM140.502 283.235C140.188 283.235 139.921 283.125 139.702 282.907C139.484 282.688 139.374 282.408 139.374 282.066C139.374 281.747 139.49 281.476 139.723 281.252C139.955 281.029 140.224 280.917 140.529 280.917C140.835 280.917 141.097 281.029 141.316 281.252C141.534 281.476 141.644 281.747 141.644 282.066C141.644 282.399 141.528 282.677 141.295 282.9C141.063 283.123 140.798 283.235 140.502 283.235ZM143.079 278.47H144.918V279.837H136.127V278.47H141.056C140.933 277.987 140.871 277.458 140.871 276.884V275.852C140.871 275.319 140.798 274.918 140.653 274.649C140.525 274.421 140.27 274.307 139.887 274.307C139.39 274.307 139.076 274.355 138.944 274.451C138.734 274.606 138.604 274.922 138.554 275.401C137.729 275.374 137.317 275.023 137.317 274.348C137.317 273.915 137.529 273.596 137.952 273.391C138.495 273.131 139.098 273.001 139.764 273.001C141.026 273.001 141.892 273.188 142.362 273.562C142.813 273.922 143.038 274.544 143.038 275.428V277.39C143.038 277.8 143.052 278.16 143.079 278.47ZM148.48 270.636C148.307 271.242 148.22 271.976 148.22 272.837V276.426C148.215 277.402 147.926 278.206 147.352 278.839C146.746 279.505 145.939 279.837 144.932 279.837H144.583V278.47H144.925C145.677 278.47 146.055 277.789 146.06 276.426V271.539C146.06 270.805 146.429 270.438 147.167 270.438C147.605 270.438 148.042 270.504 148.48 270.636ZM151.187 270.438C151.62 270.438 152.055 270.506 152.492 270.643C152.324 271.24 152.239 271.972 152.239 272.837V278.737C152.239 279.471 151.868 279.837 151.125 279.837C150.692 279.837 150.257 279.771 149.82 279.639C149.988 279.038 150.072 278.304 150.072 277.438V271.539C150.072 270.805 150.444 270.438 151.187 270.438Z" fill="white"/>
<rect x="74" y="289.837" width="103.541" height="104.649" rx="12" fill="#FEEDC5"/>
<rect x="79" y="293.837" width="94.1285" height="40.5913" rx="9.02268" fill="#FDFEFE"/>
<path d="M112.609 309.938C112.365 309.906 112.172 309.821 112.031 309.68C111.896 309.534 111.828 309.36 111.828 309.156C111.828 308.74 112.18 308.339 112.883 307.953C113.586 307.563 114.344 307.367 115.156 307.367C116.031 307.367 116.784 307.623 117.414 308.133C118.049 308.643 118.367 309.362 118.367 310.289C118.367 310.878 118.266 311.438 118.062 311.969C117.859 312.495 117.518 313.039 117.039 313.602C116.56 314.159 116.073 314.667 115.578 315.125C115.083 315.584 114.393 316.175 113.508 316.899C113.711 316.909 114.125 316.914 114.75 316.914C115.839 316.914 116.635 316.888 117.141 316.836C117.651 316.784 118.156 316.662 118.656 316.469C118.807 316.787 118.883 317.058 118.883 317.281C118.883 317.615 118.75 317.834 118.484 317.938C118.068 318.089 117.182 318.164 115.828 318.164C114.172 318.164 113.008 318.154 112.336 318.133C111.826 318.133 111.57 317.883 111.57 317.383C111.57 317.274 111.576 317.198 111.586 317.156C113.591 315.365 114.945 314.024 115.648 313.133C116.352 312.242 116.703 311.396 116.703 310.594C116.703 309.979 116.523 309.49 116.164 309.125C115.81 308.761 115.378 308.578 114.867 308.578C114.451 308.578 114.036 308.706 113.625 308.961C113.214 309.211 112.875 309.537 112.609 309.938ZM126.742 316.805C126.023 317.795 125.062 318.289 123.859 318.289C122.656 318.289 121.695 317.797 120.977 316.813C120.263 315.828 119.906 314.503 119.906 312.836C119.906 311.164 120.263 309.836 120.977 308.852C121.695 307.862 122.656 307.367 123.859 307.367C125.062 307.367 126.023 307.862 126.742 308.852C127.466 309.836 127.828 311.164 127.828 312.836C127.828 314.492 127.466 315.815 126.742 316.805ZM126.102 313.094C126.102 312.36 126.023 311.659 125.867 310.992C125.711 310.326 125.456 309.753 125.102 309.274C124.753 308.789 124.344 308.547 123.875 308.547C123.224 308.547 122.688 308.92 122.266 309.664C121.844 310.404 121.633 311.308 121.633 312.375C121.633 313.162 121.711 313.906 121.867 314.61C122.023 315.308 122.273 315.899 122.617 316.383C122.966 316.867 123.38 317.11 123.859 317.11C124.531 317.11 125.073 316.727 125.484 315.961C125.896 315.19 126.102 314.235 126.102 313.094ZM138.023 318.289C137.253 318.289 136.643 318.045 136.195 317.555C135.747 317.065 135.523 316.404 135.523 315.571C135.523 314.742 135.747 314.086 136.195 313.602C136.643 313.112 137.253 312.867 138.023 312.867C138.779 312.867 139.38 313.112 139.828 313.602C140.276 314.086 140.5 314.742 140.5 315.571C140.5 316.404 140.276 317.065 139.828 317.555C139.38 318.045 138.779 318.289 138.023 318.289ZM138.953 315.688C138.953 315.219 138.87 314.8 138.703 314.43C138.536 314.06 138.31 313.875 138.023 313.875C137.737 313.875 137.503 314.024 137.32 314.321C137.138 314.612 137.047 314.977 137.047 315.414C137.047 315.893 137.128 316.323 137.289 316.703C137.456 317.078 137.695 317.266 138.008 317.266C138.294 317.266 138.523 317.117 138.695 316.821C138.867 316.524 138.953 316.146 138.953 315.688ZM131.859 318.664C131.094 318.545 130.711 318.331 130.711 318.024C130.711 317.893 130.753 317.766 130.836 317.641L135.539 310.18C136.247 309.071 136.883 308.011 137.445 307C138.19 307.052 138.562 307.276 138.562 307.672C138.562 307.787 138.526 307.904 138.453 308.024L133.766 315.477C133.052 316.607 132.417 317.67 131.859 318.664ZM131.242 312.914C130.471 312.914 129.862 312.67 129.414 312.18C128.966 311.69 128.742 311.029 128.742 310.196C128.742 309.362 128.966 308.703 129.414 308.219C129.862 307.735 130.471 307.492 131.242 307.492C131.997 307.492 132.599 307.735 133.047 308.219C133.495 308.703 133.719 309.362 133.719 310.196C133.719 311.029 133.495 311.69 133.047 312.18C132.599 312.67 131.997 312.914 131.242 312.914ZM132.164 310.313C132.164 309.839 132.081 309.42 131.914 309.055C131.753 308.685 131.529 308.5 131.242 308.5C130.951 308.5 130.714 308.649 130.531 308.946C130.354 309.237 130.266 309.602 130.266 310.039C130.266 310.518 130.346 310.948 130.508 311.328C130.674 311.703 130.911 311.891 131.219 311.891C131.51 311.891 131.74 311.742 131.906 311.446C132.078 311.149 132.164 310.771 132.164 310.313Z" fill="#0F0E0E"/>
<path d="M202.699 181.668C203.041 182.015 203.212 182.327 203.212 182.605V182.667C203.112 183.856 202.599 184.854 201.674 185.661C200.744 186.481 199.635 186.891 198.345 186.891H198.318C196.955 186.891 195.8 186.438 194.852 185.531C193.908 184.633 193.437 183.544 193.437 182.263V180.958C193.437 180.224 193.806 179.857 194.544 179.857C194.982 179.857 195.419 179.923 195.857 180.055C195.683 180.657 195.597 181.39 195.597 182.256V182.263C195.597 183.207 195.818 183.97 196.26 184.553C196.748 185.2 197.438 185.524 198.331 185.524C199.68 185.524 200.539 184.845 200.908 183.487H200.15C199.129 183.487 198.315 183.152 197.709 182.482C197.144 181.848 196.862 181.042 196.862 180.062C196.862 179.087 197.149 178.282 197.723 177.649C198.329 176.988 199.14 176.658 200.156 176.658H200.218C200.984 176.658 201.578 176.788 202.002 177.047C202.462 177.33 202.693 177.663 202.693 178.045C202.693 178.734 202.342 179.116 201.64 179.194C201.635 178.706 201.483 178.367 201.182 178.175C201.027 178.07 200.722 178.018 200.266 178.018H200.156C199.4 178.032 199.022 178.718 199.022 180.076C199.022 181.438 199.398 182.122 200.15 182.126H201.462C201.986 182.126 202.399 181.974 202.699 181.668ZM208.852 180.069C208.852 179.467 208.758 178.982 208.571 178.613C208.371 178.212 208.084 178.011 207.71 178.011C207.346 178.011 207.061 178.212 206.856 178.613C206.669 178.986 206.575 179.472 206.575 180.069C206.575 181.436 206.954 182.12 207.71 182.12H208.852V180.069ZM212.516 183.487H211.012C211.007 184.458 210.716 185.257 210.137 185.886C209.531 186.552 208.726 186.884 207.724 186.884H206.835C206.097 186.884 205.634 186.668 205.447 186.235C205.416 186.157 205.4 186.075 205.4 185.989C205.4 185.715 205.571 185.405 205.912 185.059C206.213 185.364 206.626 185.517 207.15 185.517H207.71C208.462 185.517 208.843 184.84 208.852 183.487H207.703C206.692 183.487 205.883 183.15 205.277 182.475C204.702 181.842 204.415 181.035 204.415 180.055C204.415 179.08 204.705 178.278 205.283 177.649C205.894 176.984 206.703 176.651 207.71 176.651C208.731 176.651 209.544 176.984 210.151 177.649C210.725 178.278 211.012 179.08 211.012 180.055V182.12H212.516V183.487ZM216.46 175.858C216.146 175.858 215.881 175.749 215.667 175.53C215.448 175.311 215.339 175.031 215.339 174.689C215.339 174.37 215.453 174.099 215.681 173.875C215.913 173.652 216.182 173.541 216.487 173.541C216.793 173.541 217.055 173.652 217.274 173.875C217.492 174.099 217.602 174.37 217.602 174.689C217.602 175.022 217.486 175.3 217.253 175.523C217.025 175.746 216.761 175.858 216.46 175.858ZM213.671 175.858C213.357 175.858 213.09 175.749 212.871 175.53C212.653 175.311 212.543 175.031 212.543 174.689C212.543 174.37 212.659 174.099 212.892 173.875C213.12 173.652 213.386 173.541 213.692 173.541C214.001 173.541 214.264 173.652 214.478 173.875C214.701 174.099 214.813 174.37 214.813 174.689C214.813 175.022 214.696 175.3 214.464 175.523C214.232 175.746 213.967 175.858 213.671 175.858ZM217.868 182.12V183.487H217.28C216.396 183.487 215.66 183.222 215.072 182.694C214.485 183.222 213.749 183.487 212.864 183.487H212.277V182.12H212.858C213.614 182.12 213.992 181.438 213.992 180.076V177.751C213.992 177.018 214.364 176.651 215.107 176.651C215.54 176.651 215.975 176.717 216.412 176.849C216.239 177.451 216.153 178.184 216.153 179.05V180.076C216.157 181.438 216.535 182.12 217.287 182.12H217.868ZM224.581 182.12H226.42V183.487H217.629V182.12H222.558C222.435 181.637 222.373 181.108 222.373 180.534V179.501C222.373 178.968 222.3 178.567 222.154 178.298C222.027 178.07 221.772 177.957 221.389 177.957C220.892 177.957 220.578 178.004 220.446 178.1C220.236 178.255 220.106 178.572 220.056 179.05C219.231 179.023 218.819 178.672 218.819 177.998C218.819 177.565 219.03 177.246 219.454 177.041C219.997 176.781 220.6 176.651 221.266 176.651C222.528 176.651 223.394 176.838 223.863 177.211C224.315 177.571 224.54 178.194 224.54 179.078V181.04C224.54 181.45 224.554 181.81 224.581 182.12ZM230.857 182.12C231.618 182.12 231.998 181.436 231.998 180.069C231.998 179.467 231.905 178.984 231.718 178.62C231.517 178.219 231.23 178.018 230.857 178.018C230.492 178.018 230.207 178.219 230.002 178.62C229.815 178.989 229.722 179.472 229.722 180.069C229.722 181.436 230.1 182.12 230.857 182.12ZM235.635 182.12V183.487H235.286C234.402 183.487 233.666 183.225 233.078 182.701C232.49 183.225 231.748 183.487 230.85 183.487C229.966 183.487 229.23 183.225 228.642 182.701C228.054 183.225 227.318 183.487 226.434 183.487H226.085V182.12H226.42C227.177 182.12 227.557 181.438 227.562 180.076V180.062C227.562 179.087 227.851 178.282 228.43 177.649C229.041 176.984 229.849 176.651 230.857 176.651C231.877 176.651 232.691 176.984 233.297 177.649C233.871 178.278 234.158 179.082 234.158 180.062V180.076C234.158 181.438 234.537 182.12 235.293 182.12H235.635ZM239.251 174.286C239.078 174.892 238.991 175.625 238.991 176.487V180.076C238.987 181.051 238.697 181.855 238.123 182.489C237.517 183.154 236.71 183.487 235.703 183.487H235.355V182.12H235.696C236.448 182.12 236.827 181.438 236.831 180.076V175.188C236.831 174.454 237.2 174.087 237.939 174.087C238.376 174.087 238.814 174.153 239.251 174.286ZM241.958 174.087C242.391 174.087 242.826 174.156 243.264 174.292C243.095 174.889 243.011 175.621 243.011 176.487V182.386C243.011 183.12 242.64 183.487 241.897 183.487C241.464 183.487 241.029 183.421 240.591 183.289C240.76 182.687 240.844 181.953 240.844 181.087V175.188C240.844 174.454 241.215 174.087 241.958 174.087ZM251.699 178.018H250.558C250.184 178.018 249.897 178.219 249.696 178.62C249.514 178.984 249.423 179.467 249.423 180.069C249.423 180.666 249.516 181.149 249.703 181.518C249.908 181.919 250.193 182.12 250.558 182.12C250.932 182.12 251.219 181.919 251.419 181.518C251.606 181.153 251.699 180.67 251.699 180.069V178.018ZM255.336 182.12V183.487H254.981C254.101 183.487 253.37 183.225 252.786 182.701C252.198 183.225 251.456 183.487 250.558 183.487C249.551 183.487 248.742 183.154 248.131 182.489C247.552 181.855 247.263 181.053 247.263 180.083C247.263 179.103 247.55 178.294 248.124 177.656C248.73 176.986 249.539 176.651 250.551 176.651H253.86V180.076C253.86 181.438 254.238 182.12 254.994 182.12H255.336ZM252.164 175.858C251.854 175.858 251.59 175.749 251.371 175.53C251.153 175.306 251.043 175.026 251.043 174.689C251.043 174.37 251.157 174.099 251.385 173.875C251.617 173.652 251.886 173.541 252.192 173.541C252.497 173.541 252.759 173.652 252.978 173.875C253.196 174.099 253.306 174.37 253.306 174.689C253.306 175.022 253.192 175.3 252.964 175.523C252.732 175.746 252.465 175.858 252.164 175.858ZM249.375 175.858C249.061 175.858 248.794 175.749 248.575 175.53C248.357 175.311 248.247 175.031 248.247 174.689C248.247 174.37 248.363 174.099 248.596 173.875C248.828 173.652 249.097 173.541 249.403 173.541C249.708 173.541 249.97 173.652 250.189 173.875C250.407 174.099 250.517 174.37 250.517 174.689C250.517 175.022 250.401 175.3 250.168 175.523C249.936 175.746 249.671 175.858 249.375 175.858ZM257.612 186.884C257.303 186.884 257.038 186.775 256.82 186.556C256.601 186.337 256.491 186.059 256.491 185.722C256.491 185.399 256.605 185.125 256.833 184.902C257.066 184.679 257.335 184.567 257.64 184.567C257.945 184.567 258.207 184.679 258.426 184.902C258.645 185.125 258.754 185.399 258.754 185.722C258.754 186.05 258.638 186.326 258.405 186.549C258.178 186.773 257.913 186.884 257.612 186.884ZM259.021 176.849C258.848 177.455 258.761 178.189 258.761 179.05V180.076C258.756 181.046 258.467 181.848 257.893 182.482C257.287 183.152 256.48 183.487 255.473 183.487H255.124V182.12H255.466C256.223 182.12 256.601 181.438 256.601 180.076V177.751C256.601 177.018 256.97 176.651 257.708 176.651C258.146 176.651 258.583 176.717 259.021 176.849ZM264.271 182.12V183.487H263.922C262.915 183.487 262.108 183.154 261.502 182.489C260.923 181.855 260.634 181.051 260.634 180.076V175.195C260.634 174.457 261.003 174.087 261.741 174.087C262.174 174.087 262.612 174.156 263.054 174.292C262.881 174.894 262.794 175.625 262.794 176.487V180.076C262.794 181.438 263.172 182.12 263.929 182.12H264.271ZM268.236 175.858C267.921 175.858 267.657 175.749 267.443 175.53C267.224 175.311 267.114 175.031 267.114 174.689C267.114 174.37 267.228 174.099 267.456 173.875C267.689 173.652 267.958 173.541 268.263 173.541C268.568 173.541 268.83 173.652 269.049 173.875C269.268 174.099 269.377 174.37 269.377 174.689C269.377 175.022 269.261 175.3 269.029 175.523C268.801 175.746 268.536 175.858 268.236 175.858ZM265.446 175.858C265.132 175.858 264.865 175.749 264.647 175.53C264.428 175.311 264.319 175.031 264.319 174.689C264.319 174.37 264.435 174.099 264.667 173.875C264.895 173.652 265.162 173.541 265.467 173.541C265.777 173.541 266.039 173.652 266.253 173.875C266.476 174.099 266.588 174.37 266.588 174.689C266.588 175.022 266.472 175.3 266.239 175.523C266.007 175.746 265.743 175.858 265.446 175.858ZM269.644 182.12V183.487H269.056C268.172 183.487 267.436 183.222 266.848 182.694C266.26 183.222 265.524 183.487 264.64 183.487H264.052V182.12H264.633C265.39 182.12 265.768 181.438 265.768 180.076V177.751C265.768 177.018 266.139 176.651 266.882 176.651C267.315 176.651 267.75 176.717 268.188 176.849C268.015 177.451 267.928 178.184 267.928 179.05V180.076C267.932 181.438 268.311 182.12 269.063 182.12H269.644ZM275.126 180.363C276.261 181.329 277.099 181.864 277.642 181.969C277.314 182.698 276.99 183.154 276.671 183.336C276.493 183.437 276.327 183.487 276.172 183.487H269.322V182.12H274.538L271.428 179.652C271.159 179.392 270.974 179.105 270.874 178.791C270.833 178.672 270.813 178.554 270.813 178.435C270.813 178.175 270.915 177.934 271.12 177.71L273.643 175.919C274.577 175.181 275.16 174.57 275.393 174.087C275.999 174.525 276.348 174.889 276.439 175.181C276.484 175.318 276.507 175.448 276.507 175.571C276.507 175.894 276.357 176.184 276.056 176.439L273.041 178.599L275.126 180.363Z" fill="white"/>
<rect x="183.543" y="195.487" width="103.541" height="199" rx="12" fill="#FEEDC5"/>
<rect x="187.543" y="199.487" width="94.1285" height="40.5913" rx="9.02268" fill="#FDFEFE"/>
<path d="M220.434 223.267C221.298 222.361 222.238 221.006 223.254 219.204C224.275 217.402 225.04 215.845 225.551 214.532C224.014 214.574 222.639 214.595 221.426 214.595C220.613 214.595 220.207 214.309 220.207 213.736C220.207 213.553 220.262 213.329 220.371 213.064C220.902 213.147 221.514 213.189 222.207 213.189C224.973 213.189 226.637 213.178 227.199 213.157C227.288 213.329 227.332 213.527 227.332 213.751C227.332 213.965 227.298 214.168 227.23 214.361C227.038 214.923 226.467 216.137 225.52 218.001C224.572 219.861 223.717 221.473 222.957 222.837C222.556 223.572 222.126 223.939 221.668 223.939C221.241 223.939 220.829 223.715 220.434 223.267ZM234.035 214.595C233.202 214.595 232.225 214.564 231.105 214.501L230.879 216.9C231.275 216.837 231.65 216.806 232.004 216.806C233.155 216.806 234.027 217.113 234.621 217.728C235.22 218.342 235.52 219.144 235.52 220.134C235.52 221.223 235.165 222.129 234.457 222.853C233.749 223.577 232.775 223.939 231.535 223.939C230.717 223.939 230.085 223.842 229.637 223.65C229.189 223.452 228.965 223.202 228.965 222.9C228.965 222.473 229.215 222.212 229.715 222.118C230.043 222.545 230.603 222.759 231.395 222.759C232.15 222.759 232.738 222.519 233.16 222.04C233.582 221.561 233.793 221.001 233.793 220.361C233.793 219.699 233.548 219.131 233.059 218.657C232.569 218.178 231.897 217.939 231.043 217.939C230.605 217.939 230.184 217.967 229.777 218.025C229.673 217.915 229.621 217.657 229.621 217.251C229.621 217.095 229.689 215.73 229.824 213.157C230.158 213.178 231.283 213.189 233.199 213.189C234.001 213.189 234.632 213.147 235.09 213.064C235.199 213.256 235.254 213.48 235.254 213.736C235.254 214.309 234.848 214.595 234.035 214.595ZM246.566 223.939C245.796 223.939 245.186 223.694 244.738 223.204C244.29 222.715 244.066 222.053 244.066 221.22C244.066 220.392 244.29 219.736 244.738 219.251C245.186 218.762 245.796 218.517 246.566 218.517C247.322 218.517 247.923 218.762 248.371 219.251C248.819 219.736 249.043 220.392 249.043 221.22C249.043 222.053 248.819 222.715 248.371 223.204C247.923 223.694 247.322 223.939 246.566 223.939ZM247.496 221.337C247.496 220.868 247.413 220.449 247.246 220.079C247.079 219.71 246.853 219.525 246.566 219.525C246.28 219.525 246.046 219.673 245.863 219.97C245.681 220.262 245.59 220.626 245.59 221.064C245.59 221.543 245.671 221.973 245.832 222.353C245.999 222.728 246.238 222.915 246.551 222.915C246.837 222.915 247.066 222.767 247.238 222.47C247.41 222.173 247.496 221.795 247.496 221.337ZM240.402 224.314C239.637 224.194 239.254 223.98 239.254 223.673C239.254 223.543 239.296 223.415 239.379 223.29L244.082 215.829C244.79 214.72 245.426 213.66 245.988 212.65C246.733 212.702 247.105 212.926 247.105 213.322C247.105 213.436 247.069 213.553 246.996 213.673L242.309 221.126C241.595 222.256 240.96 223.319 240.402 224.314ZM239.785 218.564C239.014 218.564 238.405 218.319 237.957 217.829C237.509 217.34 237.285 216.678 237.285 215.845C237.285 215.012 237.509 214.353 237.957 213.868C238.405 213.384 239.014 213.142 239.785 213.142C240.54 213.142 241.142 213.384 241.59 213.868C242.038 214.353 242.262 215.012 242.262 215.845C242.262 216.678 242.038 217.34 241.59 217.829C241.142 218.319 240.54 218.564 239.785 218.564ZM240.707 215.962C240.707 215.488 240.624 215.069 240.457 214.704C240.296 214.335 240.072 214.15 239.785 214.15C239.493 214.15 239.257 214.298 239.074 214.595C238.897 214.887 238.809 215.251 238.809 215.689C238.809 216.168 238.889 216.598 239.051 216.978C239.217 217.353 239.454 217.54 239.762 217.54C240.053 217.54 240.283 217.392 240.449 217.095C240.621 216.798 240.707 216.42 240.707 215.962Z" fill="#0F0E0E"/>
<path d="M314.05 234.301C313.736 234.301 313.469 234.192 313.25 233.973C313.031 233.754 312.922 233.476 312.922 233.139C312.922 232.816 313.038 232.542 313.271 232.319C313.499 232.096 313.765 231.984 314.071 231.984C314.376 231.984 314.638 232.096 314.857 232.319C315.075 232.542 315.185 232.816 315.185 233.139C315.185 233.467 315.069 233.743 314.836 233.966C314.608 234.19 314.346 234.301 314.05 234.301ZM321.105 229.537V230.904H320.749C319.865 230.904 319.129 230.639 318.541 230.111C317.958 230.639 317.224 230.904 316.34 230.904H311.507C310.5 230.904 309.693 230.569 309.087 229.899C308.513 229.265 308.223 228.463 308.219 227.493V226.173C308.219 225.44 308.588 225.073 309.326 225.073C309.764 225.073 310.201 225.139 310.639 225.271C310.466 225.873 310.379 226.606 310.379 227.472V227.493C310.379 228.855 310.757 229.537 311.514 229.537H316.326C317.083 229.537 317.461 228.855 317.461 227.493V225.168C317.461 224.435 317.833 224.068 318.575 224.068C319.008 224.068 319.444 224.134 319.881 224.266C319.712 224.868 319.628 225.601 319.628 226.467V227.493C319.628 228.855 320.006 229.537 320.763 229.537H321.105ZM326.532 224.266C326.364 224.868 326.279 225.601 326.279 226.467V227.493C326.275 228.463 325.986 229.265 325.411 229.899C324.805 230.569 323.999 230.904 322.991 230.904H320.824V229.537H322.978C323.734 229.537 324.115 228.855 324.119 227.493V225.168C324.119 224.435 324.488 224.068 325.227 224.068C325.66 224.068 326.095 224.134 326.532 224.266ZM325.261 234.301C324.946 234.301 324.68 234.192 324.461 233.973C324.242 233.754 324.133 233.474 324.133 233.132C324.133 232.813 324.249 232.542 324.482 232.319C324.71 232.096 324.976 231.984 325.281 231.984C325.587 231.984 325.849 232.096 326.068 232.319C326.286 232.542 326.396 232.813 326.396 233.132C326.396 233.465 326.282 233.743 326.054 233.966C325.821 234.19 325.557 234.301 325.261 234.301ZM322.465 234.301C322.151 234.301 321.884 234.192 321.665 233.973C321.446 233.754 321.337 233.474 321.337 233.132C321.337 232.813 321.453 232.542 321.686 232.319C321.918 232.096 322.187 231.984 322.492 231.984C322.798 231.984 323.06 232.096 323.279 232.319C323.497 232.542 323.607 232.813 323.607 233.132C323.607 233.465 323.49 233.743 323.258 233.966C323.026 234.19 322.761 234.301 322.465 234.301ZM332.548 227.486C332.548 226.884 332.455 226.399 332.268 226.03C332.067 225.629 331.78 225.428 331.406 225.428C331.042 225.428 330.757 225.629 330.552 226.03C330.365 226.403 330.272 226.889 330.272 227.486C330.272 228.853 330.65 229.537 331.406 229.537H332.548V227.486ZM336.212 230.904H334.708C334.704 231.875 334.412 232.674 333.833 233.303C333.227 233.969 332.423 234.301 331.42 234.301H330.531C329.793 234.301 329.331 234.085 329.144 233.652C329.112 233.574 329.096 233.492 329.096 233.406C329.096 233.132 329.267 232.822 329.609 232.476C329.909 232.781 330.322 232.934 330.846 232.934H331.406C332.158 232.934 332.539 232.257 332.548 230.904H331.4C330.388 230.904 329.579 230.567 328.973 229.892C328.399 229.259 328.112 228.452 328.112 227.472C328.112 226.497 328.401 225.695 328.98 225.066C329.59 224.401 330.399 224.068 331.406 224.068C332.427 224.068 333.241 224.401 333.847 225.066C334.421 225.695 334.708 226.497 334.708 227.472V229.537H336.212V230.904ZM339.842 221.703C339.669 222.309 339.582 223.042 339.582 223.904V227.493C339.578 228.468 339.288 229.272 338.714 229.906C338.108 230.571 337.301 230.904 336.294 230.904H335.946V229.537H336.287C337.039 229.537 337.418 228.855 337.422 227.493V222.605C337.422 221.871 337.791 221.504 338.529 221.504C338.967 221.504 339.404 221.57 339.842 221.703ZM342.549 221.504C342.982 221.504 343.417 221.573 343.855 221.709C343.686 222.306 343.602 223.038 343.602 223.904V229.803C343.602 230.537 343.23 230.904 342.487 230.904C342.055 230.904 341.619 230.838 341.182 230.706C341.35 230.104 341.435 229.37 341.435 228.504V222.605C341.435 221.871 341.806 221.504 342.549 221.504ZM351.32 225.579L352.27 229.537H352.283C353.04 229.537 353.418 228.853 353.418 227.486C353.418 226.884 353.327 226.401 353.145 226.037C352.944 225.636 352.659 225.433 352.29 225.428L351.32 225.579ZM350.062 230.904C349.816 230.908 349.615 230.986 349.46 231.136C349.296 231.3 349.214 231.56 349.214 231.916C349.214 232.271 349.296 232.531 349.46 232.695C349.615 232.85 349.816 232.93 350.062 232.934H350.793C351.322 232.934 351.734 232.781 352.03 232.476C352.377 232.822 352.55 233.132 352.55 233.406C352.55 233.492 352.534 233.574 352.502 233.652C352.315 234.085 351.853 234.301 351.114 234.301H350.069C349.462 234.301 348.947 234.096 348.524 233.686C348.082 233.258 347.858 232.672 347.854 231.929V231.909C347.858 231.161 348.082 230.576 348.524 230.152C348.947 229.742 349.456 229.537 350.048 229.537H350.287L349.481 226.173C349.362 225.654 349.116 225.282 348.742 225.059C349.029 224.603 349.317 224.36 349.604 224.328L352.29 224.068C353.307 224.068 354.118 224.401 354.724 225.066C355.298 225.695 355.585 226.497 355.585 227.472C355.585 228.265 355.391 228.953 355.004 229.537H357.246V230.904H350.062ZM363.146 223.275C362.836 223.275 362.571 223.166 362.353 222.947C362.134 222.728 362.025 222.448 362.025 222.106C362.025 221.787 362.139 221.516 362.366 221.292C362.599 221.069 362.868 220.958 363.173 220.958C363.478 220.958 363.74 221.069 363.959 221.292C364.178 221.516 364.287 221.787 364.287 222.106C364.287 222.439 364.171 222.717 363.939 222.94C363.706 223.163 363.442 223.275 363.146 223.275ZM360.357 223.275C360.042 223.275 359.776 223.166 359.557 222.947C359.338 222.728 359.229 222.448 359.229 222.106C359.229 221.787 359.345 221.516 359.577 221.292C359.805 221.069 360.072 220.958 360.377 220.958C360.682 220.958 360.945 221.069 361.163 221.292C361.382 221.516 361.491 221.787 361.491 222.106C361.491 222.439 361.377 222.717 361.15 222.94C360.917 223.163 360.653 223.275 360.357 223.275ZM361.737 229.537C362.499 229.537 362.879 228.853 362.879 227.486C362.879 226.889 362.783 226.406 362.592 226.037C362.391 225.636 362.107 225.435 361.737 225.435C361.368 225.435 361.081 225.636 360.876 226.037C360.694 226.401 360.603 226.884 360.603 227.486V229.537H361.737ZM361.737 224.068C362.749 224.068 363.56 224.401 364.171 225.066C364.75 225.699 365.039 226.504 365.039 227.479C365.039 228.454 364.752 229.261 364.178 229.899C363.572 230.569 362.763 230.904 361.751 230.904H356.973V229.537H358.443V227.479C358.443 226.499 358.73 225.695 359.304 225.066C359.91 224.401 360.721 224.068 361.737 224.068ZM370.474 227.486C370.474 226.884 370.38 226.399 370.194 226.03C369.993 225.629 369.706 225.428 369.332 225.428C368.968 225.428 368.683 225.629 368.478 226.03C368.291 226.403 368.197 226.889 368.197 227.486C368.197 228.853 368.576 229.537 369.332 229.537H370.474V227.486ZM374.138 230.904H372.634C372.629 231.875 372.338 232.674 371.759 233.303C371.153 233.969 370.348 234.301 369.346 234.301H368.457C367.719 234.301 367.256 234.085 367.07 233.652C367.038 233.574 367.022 233.492 367.022 233.406C367.022 233.132 367.193 232.822 367.534 232.476C367.835 232.781 368.248 232.934 368.772 232.934H369.332C370.084 232.934 370.465 232.257 370.474 230.904H369.325C368.314 230.904 367.505 230.567 366.899 229.892C366.324 229.259 366.037 228.452 366.037 227.472C366.037 226.497 366.327 225.695 366.905 225.066C367.516 224.401 368.325 224.068 369.332 224.068C370.353 224.068 371.167 224.401 371.773 225.066C372.347 225.695 372.634 226.497 372.634 227.472V229.537H374.138V230.904ZM378.643 229.537C379.404 229.537 379.784 228.853 379.784 227.486C379.784 226.884 379.691 226.401 379.504 226.037C379.304 225.636 379.016 225.435 378.643 225.435C378.278 225.435 377.993 225.636 377.788 226.037C377.601 226.406 377.508 226.889 377.508 227.486C377.508 228.853 377.886 229.537 378.643 229.537ZM378.643 224.068C379.664 224.068 380.477 224.401 381.083 225.066C381.657 225.695 381.945 226.499 381.945 227.479C381.945 228.459 381.66 229.265 381.09 229.899C380.484 230.569 379.666 230.904 378.636 230.904C377.752 230.904 377.016 230.642 376.428 230.118C375.84 230.642 375.104 230.904 374.22 230.904H373.871V229.537H374.206C374.963 229.537 375.343 228.855 375.348 227.493V227.479C375.348 226.504 375.637 225.699 376.216 225.066C376.827 224.401 377.636 224.068 378.643 224.068Z" fill="white"/>
<rect x="293.082" y="242.904" width="103.541" height="151.583" rx="12" fill="#FEEDC5"/>
<rect x="298.082" y="246.904" width="94.1285" height="40.5913" rx="9.02268" fill="#FDFEFE"/>
<path d="M335.293 262.465C334.267 263.71 333.254 265.124 332.254 266.707C332.723 266.739 333.207 266.754 333.707 266.754C334.238 266.754 334.757 266.739 335.262 266.707C335.262 265.561 335.272 264.147 335.293 262.465ZM335.215 260.621C335.413 260.496 335.785 260.434 336.332 260.434C336.483 260.434 336.686 260.444 336.941 260.465C336.941 260.496 336.931 260.726 336.91 261.153C336.889 261.58 336.863 262.171 336.832 262.926C336.806 263.676 336.793 264.455 336.793 265.262V266.653C337.585 266.59 338.108 266.502 338.363 266.387C338.447 266.621 338.488 266.866 338.488 267.121C338.488 267.491 338.382 267.72 338.168 267.809C337.913 267.913 337.449 267.97 336.777 267.981C336.777 269.496 336.889 270.58 337.113 271.231C336.879 271.314 336.592 271.356 336.254 271.356C335.858 271.356 335.587 271.288 335.441 271.153C335.301 271.012 335.23 270.778 335.23 270.449C335.23 270.033 335.241 269.215 335.262 267.996C333.012 267.996 331.587 267.96 330.988 267.887C330.743 267.856 330.621 267.611 330.621 267.153C330.621 266.991 330.632 266.824 330.652 266.653C331.111 265.866 331.866 264.77 332.918 263.364C333.975 261.952 334.741 261.038 335.215 260.621ZM345.824 269.871C345.105 270.861 344.145 271.356 342.941 271.356C341.738 271.356 340.777 270.864 340.059 269.879C339.345 268.895 338.988 267.569 338.988 265.903C338.988 264.231 339.345 262.903 340.059 261.918C340.777 260.929 341.738 260.434 342.941 260.434C344.145 260.434 345.105 260.929 345.824 261.918C346.548 262.903 346.91 264.231 346.91 265.903C346.91 267.559 346.548 268.882 345.824 269.871ZM345.184 266.16C345.184 265.426 345.105 264.726 344.949 264.059C344.793 263.392 344.538 262.819 344.184 262.34C343.835 261.856 343.426 261.614 342.957 261.614C342.306 261.614 341.77 261.986 341.348 262.731C340.926 263.47 340.715 264.374 340.715 265.442C340.715 266.228 340.793 266.973 340.949 267.676C341.105 268.374 341.355 268.965 341.699 269.449C342.048 269.934 342.462 270.176 342.941 270.176C343.613 270.176 344.155 269.793 344.566 269.028C344.978 268.257 345.184 267.301 345.184 266.16ZM357.105 271.356C356.335 271.356 355.725 271.111 355.277 270.621C354.829 270.132 354.605 269.47 354.605 268.637C354.605 267.809 354.829 267.153 355.277 266.668C355.725 266.179 356.335 265.934 357.105 265.934C357.861 265.934 358.462 266.179 358.91 266.668C359.358 267.153 359.582 267.809 359.582 268.637C359.582 269.47 359.358 270.132 358.91 270.621C358.462 271.111 357.861 271.356 357.105 271.356ZM358.035 268.754C358.035 268.285 357.952 267.866 357.785 267.496C357.618 267.127 357.392 266.942 357.105 266.942C356.819 266.942 356.585 267.09 356.402 267.387C356.22 267.679 356.129 268.043 356.129 268.481C356.129 268.96 356.21 269.39 356.371 269.77C356.538 270.145 356.777 270.332 357.09 270.332C357.376 270.332 357.605 270.184 357.777 269.887C357.949 269.59 358.035 269.212 358.035 268.754ZM350.941 271.731C350.176 271.611 349.793 271.397 349.793 271.09C349.793 270.96 349.835 270.832 349.918 270.707L354.621 263.246C355.329 262.137 355.965 261.077 356.527 260.067C357.272 260.119 357.645 260.343 357.645 260.739C357.645 260.853 357.608 260.97 357.535 261.09L352.848 268.543C352.134 269.673 351.499 270.736 350.941 271.731ZM350.324 265.981C349.553 265.981 348.944 265.736 348.496 265.246C348.048 264.757 347.824 264.095 347.824 263.262C347.824 262.429 348.048 261.77 348.496 261.285C348.944 260.801 349.553 260.559 350.324 260.559C351.079 260.559 351.681 260.801 352.129 261.285C352.577 261.77 352.801 262.429 352.801 263.262C352.801 264.095 352.577 264.757 352.129 265.246C351.681 265.736 351.079 265.981 350.324 265.981ZM351.246 263.379C351.246 262.905 351.163 262.486 350.996 262.121C350.835 261.752 350.611 261.567 350.324 261.567C350.033 261.567 349.796 261.715 349.613 262.012C349.436 262.304 349.348 262.668 349.348 263.106C349.348 263.585 349.428 264.015 349.59 264.395C349.757 264.77 349.993 264.957 350.301 264.957C350.592 264.957 350.822 264.809 350.988 264.512C351.16 264.215 351.246 263.837 351.246 263.379Z" fill="#0F0E0E"/>
<path d="M410.659 74.5137C411.416 74.5137 411.794 73.8301 411.794 72.4629C411.794 71.8613 411.703 71.376 411.521 71.0068C411.32 70.6058 411.033 70.4053 410.659 70.4053C410.295 70.4053 410.01 70.6058 409.805 71.0068C409.618 71.3805 409.525 71.8659 409.525 72.4629C409.525 73.8301 409.903 74.5137 410.659 74.5137ZM410.659 69.0449C411.68 69.0449 412.494 69.3776 413.1 70.043C413.674 70.6719 413.961 71.474 413.961 72.4492C413.961 73.4336 413.676 74.2425 413.107 74.876C412.496 75.5459 411.678 75.8809 410.653 75.8809C409.153 75.8809 408.144 75.2178 407.624 73.8916C407.615 73.9007 407.601 73.9144 407.583 73.9326C407.433 74.124 407.358 74.4134 407.358 74.8008V78.1777C407.358 78.9115 406.986 79.2783 406.243 79.2783C405.81 79.2783 405.375 79.2122 404.938 79.0801C405.106 78.4785 405.191 77.7448 405.191 76.8789V74.418C405.191 73.7435 405.398 73.224 405.813 72.8594C406.218 72.4993 406.736 72.3171 407.364 72.3125C407.396 71.3691 407.699 70.5967 408.274 69.9951C408.88 69.3617 409.675 69.0449 410.659 69.0449ZM422.855 74.5137V75.8809H422.499C421.62 75.8809 420.886 75.6188 420.298 75.0947C419.715 75.6143 418.976 75.8763 418.083 75.8809H416.463C415.725 75.8809 415.262 75.6667 415.075 75.2383C415.043 75.1608 415.028 75.0788 415.028 74.9922C415.028 74.7142 415.198 74.402 415.54 74.0557C415.832 74.361 416.235 74.5137 416.75 74.5137H418.083C418.835 74.5091 419.211 73.8255 419.211 72.4629C419.211 71.1094 418.833 70.4258 418.076 70.4121H417.96C417.514 70.4121 417.21 70.4622 417.051 70.5625C416.755 70.7585 416.602 71.1003 416.593 71.5879C415.896 71.5059 415.547 71.123 415.547 70.4395C415.547 70.0521 415.777 69.7171 416.237 69.4346C416.661 69.1748 417.256 69.0449 418.022 69.0449H418.076C419.097 69.0449 419.911 69.3776 420.517 70.043C421.091 70.6719 421.378 71.4762 421.378 72.4561V72.4697C421.378 73.8324 421.756 74.5137 422.513 74.5137H422.855ZM426.546 68.2451C426.232 68.2451 425.965 68.1357 425.746 67.917C425.528 67.6982 425.418 67.418 425.418 67.0762C425.418 66.7572 425.534 66.486 425.767 66.2627C425.999 66.0394 426.268 65.9277 426.573 65.9277C426.879 65.9277 427.141 66.0394 427.36 66.2627C427.578 66.486 427.688 66.7572 427.688 67.0762C427.688 67.4089 427.571 67.6868 427.339 67.9102C427.111 68.1335 426.847 68.2451 426.546 68.2451ZM429.574 74.5137H431.413V75.8809H422.622V74.5137H427.551C427.428 74.0306 427.366 73.502 427.366 72.9277V71.8955C427.366 71.3623 427.293 70.9613 427.148 70.6924C427.02 70.4645 426.765 70.3506 426.382 70.3506C425.885 70.3506 425.571 70.3984 425.439 70.4941C425.229 70.6491 425.099 70.9658 425.049 71.4443C424.224 71.417 423.812 71.0661 423.812 70.3916C423.812 69.9587 424.024 69.6396 424.447 69.4346C424.99 69.1748 425.594 69.0449 426.259 69.0449C427.521 69.0449 428.387 69.2318 428.857 69.6055C429.308 69.9655 429.533 70.5876 429.533 71.4717V73.4336C429.533 73.8438 429.547 74.2038 429.574 74.5137ZM435.289 68.252C434.975 68.252 434.71 68.1426 434.496 67.9238C434.278 67.7051 434.168 67.4248 434.168 67.083C434.168 66.764 434.282 66.4928 434.51 66.2695C434.742 66.0462 435.011 65.9346 435.317 65.9346C435.622 65.9346 435.884 66.0462 436.103 66.2695C436.321 66.4928 436.431 66.764 436.431 67.083C436.431 67.4157 436.315 67.6937 436.082 67.917C435.854 68.1403 435.59 68.252 435.289 68.252ZM432.5 68.252C432.186 68.252 431.919 68.1426 431.7 67.9238C431.482 67.7051 431.372 67.4248 431.372 67.083C431.372 66.764 431.488 66.4928 431.721 66.2695C431.949 66.0462 432.215 65.9346 432.521 65.9346C432.831 65.9346 433.093 66.0462 433.307 66.2695C433.53 66.4928 433.642 66.764 433.642 67.083C433.642 67.4157 433.526 67.6937 433.293 67.917C433.061 68.1403 432.796 68.252 432.5 68.252ZM436.697 74.5137V75.8809H436.11C435.225 75.8809 434.489 75.6165 433.902 75.0879C433.314 75.6165 432.578 75.8809 431.694 75.8809H431.106V74.5137H431.687C432.443 74.5137 432.821 73.8324 432.821 72.4697V70.1455C432.821 69.4118 433.193 69.0449 433.936 69.0449C434.369 69.0449 434.804 69.111 435.241 69.2432C435.068 69.8447 434.982 70.5785 434.982 71.4443V72.4697C434.986 73.8324 435.364 74.5137 436.116 74.5137H436.697ZM451.497 74.5137V75.8809H451.149C450.26 75.8809 449.524 75.6188 448.941 75.0947C448.353 75.6188 447.617 75.8809 446.733 75.8809H446.199C445.315 75.8809 444.582 75.6188 443.998 75.0947C443.41 75.6188 442.674 75.8809 441.79 75.8809H441.243C440.355 75.8809 439.619 75.6188 439.035 75.0947C438.447 75.6188 437.711 75.8809 436.827 75.8809H436.479V74.5137H436.821C437.572 74.5137 437.951 73.8324 437.955 72.4697V71.1504C437.955 70.4167 438.324 70.0498 439.063 70.0498C439.496 70.0498 439.933 70.1159 440.375 70.248C440.207 70.8451 440.12 71.5651 440.115 72.4082V72.4697C440.12 73.8324 440.498 74.5137 441.25 74.5137H441.777C442.533 74.5137 442.911 73.8324 442.911 72.4697V71.1504C442.911 70.4167 443.283 70.0498 444.026 70.0498C444.459 70.0498 444.894 70.1159 445.331 70.248C445.163 70.8451 445.078 71.5651 445.078 72.4082V72.4697C445.078 73.8324 445.457 74.5137 446.213 74.5137H446.719C447.475 74.5137 447.856 73.8324 447.861 72.4697V70.1455C447.861 69.4118 448.23 69.0449 448.968 69.0449C449.401 69.0449 449.836 69.111 450.274 69.2432C450.105 69.8447 450.021 70.5785 450.021 71.4443V72.4697C450.021 73.8324 450.399 74.5137 451.155 74.5137H451.497ZM456.029 74.5137C456.791 74.5137 457.171 73.8301 457.171 72.4629C457.171 71.8613 457.078 71.3783 456.891 71.0137C456.69 70.6126 456.403 70.4121 456.029 70.4121C455.665 70.4121 455.38 70.6126 455.175 71.0137C454.988 71.3828 454.895 71.8659 454.895 72.4629C454.895 73.8301 455.273 74.5137 456.029 74.5137ZM460.808 74.5137V75.8809H460.459C459.575 75.8809 458.839 75.6188 458.251 75.0947C457.663 75.6188 456.92 75.8809 456.023 75.8809C455.139 75.8809 454.403 75.6188 453.815 75.0947C453.227 75.6188 452.491 75.8809 451.607 75.8809H451.258V74.5137H451.593C452.349 74.5137 452.73 73.8324 452.735 72.4697V72.4561C452.735 71.4808 453.024 70.6764 453.603 70.043C454.213 69.3776 455.022 69.0449 456.029 69.0449C457.05 69.0449 457.864 69.3776 458.47 70.043C459.044 70.6719 459.331 71.4762 459.331 72.4561V72.4697C459.331 73.8324 459.71 74.5137 460.466 74.5137H460.808ZM464.424 66.6797C464.251 67.2858 464.164 68.0195 464.164 68.8809V72.4697C464.16 73.445 463.87 74.2493 463.296 74.8828C462.69 75.5482 461.883 75.8809 460.876 75.8809H460.528V74.5137H460.869C461.621 74.5137 462 73.8324 462.004 72.4697V67.582C462.004 66.8483 462.373 66.4814 463.112 66.4814C463.549 66.4814 463.987 66.5475 464.424 66.6797ZM467.131 66.4814C467.564 66.4814 467.999 66.5498 468.437 66.6865C468.268 67.2835 468.184 68.015 468.184 68.8809V74.7803C468.184 75.514 467.812 75.8809 467.07 75.8809C466.637 75.8809 466.201 75.8148 465.764 75.6826C465.932 75.0811 466.017 74.3473 466.017 73.4814V67.582C466.017 66.8483 466.388 66.4814 467.131 66.4814ZM476.872 70.4121H475.731C475.357 70.4121 475.07 70.6126 474.869 71.0137C474.687 71.3783 474.596 71.8613 474.596 72.4629C474.596 73.0599 474.689 73.543 474.876 73.9121C475.081 74.3132 475.366 74.5137 475.731 74.5137C476.104 74.5137 476.391 74.3132 476.592 73.9121C476.779 73.5475 476.872 73.0645 476.872 72.4629V70.4121ZM480.509 74.5137V75.8809H480.154C479.274 75.8809 478.543 75.6188 477.959 75.0947C477.371 75.6188 476.628 75.8809 475.731 75.8809C474.723 75.8809 473.915 75.5482 473.304 74.8828C472.725 74.2493 472.436 73.4473 472.436 72.4766C472.436 71.4967 472.723 70.6878 473.297 70.0498C473.903 69.3799 474.712 69.0449 475.724 69.0449H479.032V72.4697C479.032 73.8324 479.411 74.5137 480.167 74.5137H480.509ZM477.337 68.252C477.027 68.252 476.763 68.1426 476.544 67.9238C476.325 67.7005 476.216 67.4202 476.216 67.083C476.216 66.764 476.33 66.4928 476.558 66.2695C476.79 66.0462 477.059 65.9346 477.364 65.9346C477.67 65.9346 477.932 66.0462 478.151 66.2695C478.369 66.4928 478.479 66.764 478.479 67.083C478.479 67.4157 478.365 67.6937 478.137 67.917C477.904 68.1403 477.638 68.252 477.337 68.252ZM474.548 68.252C474.234 68.252 473.967 68.1426 473.748 67.9238C473.529 67.7051 473.42 67.4248 473.42 67.083C473.42 66.764 473.536 66.4928 473.769 66.2695C474.001 66.0462 474.27 65.9346 474.575 65.9346C474.881 65.9346 475.143 66.0462 475.362 66.2695C475.58 66.4928 475.69 66.764 475.69 67.083C475.69 67.4157 475.573 67.6937 475.341 67.917C475.109 68.1403 474.844 68.252 474.548 68.252ZM482.785 79.2783C482.475 79.2783 482.211 79.1689 481.992 78.9502C481.774 78.7314 481.664 78.4535 481.664 78.1162C481.664 77.7926 481.778 77.5192 482.006 77.2959C482.238 77.0726 482.507 76.9609 482.813 76.9609C483.118 76.9609 483.38 77.0726 483.599 77.2959C483.818 77.5192 483.927 77.7926 483.927 78.1162C483.927 78.4443 483.811 78.7201 483.578 78.9434C483.35 79.1667 483.086 79.2783 482.785 79.2783ZM484.194 69.2432C484.02 69.8493 483.934 70.583 483.934 71.4443V72.4697C483.929 73.4404 483.64 74.2425 483.066 74.876C482.46 75.5459 481.653 75.8809 480.646 75.8809H480.297V74.5137H480.639C481.395 74.5137 481.774 73.8324 481.774 72.4697V70.1455C481.774 69.4118 482.143 69.0449 482.881 69.0449C483.319 69.0449 483.756 69.111 484.194 69.2432ZM490.879 75.8809H489.375C489.371 76.8516 489.079 77.6514 488.5 78.2803C487.894 78.9456 487.09 79.2783 486.087 79.2783H485.732C484.998 79.2783 484.538 79.0618 484.351 78.6289C484.319 78.5514 484.303 78.4694 484.303 78.3828C484.303 78.1094 484.474 77.7995 484.816 77.4531C485.112 77.7585 485.524 77.9111 486.053 77.9111H486.073C486.83 77.9111 487.21 77.2298 487.215 75.8672V70.1455C487.215 69.4118 487.584 69.0449 488.322 69.0449C488.755 69.0449 489.193 69.111 489.635 69.2432C489.462 69.8447 489.375 70.5785 489.375 71.4443V74.5137H490.879V75.8809ZM494.96 79.2783C494.646 79.2783 494.379 79.1689 494.16 78.9502C493.942 78.7314 493.832 78.4512 493.832 78.1094C493.832 77.7904 493.948 77.5192 494.181 77.2959C494.413 77.0726 494.682 76.9609 494.987 76.9609C495.293 76.9609 495.555 77.0726 495.774 77.2959C495.992 77.5192 496.102 77.7904 496.102 78.1094C496.102 78.4421 495.986 78.7201 495.753 78.9434C495.521 79.1667 495.256 79.2783 494.96 79.2783ZM497.537 74.5137H499.376V75.8809H490.585V74.5137H495.514C495.391 74.0306 495.329 73.502 495.329 72.9277V71.8955C495.329 71.3623 495.256 70.9613 495.111 70.6924C494.983 70.4645 494.728 70.3506 494.345 70.3506C493.848 70.3506 493.534 70.3984 493.402 70.4941C493.192 70.6491 493.062 70.9658 493.012 71.4443C492.187 71.417 491.775 71.0661 491.775 70.3916C491.775 69.9587 491.987 69.6396 492.41 69.4346C492.953 69.1748 493.557 69.0449 494.222 69.0449C495.484 69.0449 496.35 69.2318 496.82 69.6055C497.271 69.9655 497.496 70.5876 497.496 71.4717V73.4336C497.496 73.8438 497.51 74.2038 497.537 74.5137ZM503.17 68.252C502.856 68.252 502.589 68.1426 502.37 67.9238C502.152 67.7051 502.042 67.4248 502.042 67.083C502.042 66.764 502.158 66.4928 502.391 66.2695C502.623 66.0462 502.892 65.9346 503.197 65.9346C503.498 65.9346 503.76 66.0462 503.984 66.2695C504.202 66.4928 504.312 66.764 504.312 67.083C504.312 67.4157 504.196 67.6937 503.963 67.917C503.731 68.1403 503.466 68.252 503.17 68.252ZM500.374 68.252C500.06 68.252 499.795 68.1426 499.581 67.9238C499.358 67.7051 499.246 67.4248 499.246 67.083C499.246 66.764 499.362 66.4928 499.595 66.2695C499.827 66.0462 500.096 65.9346 500.402 65.9346C500.707 65.9346 500.969 66.0462 501.188 66.2695C501.406 66.4928 501.516 66.764 501.516 67.083C501.516 67.4157 501.4 67.6937 501.167 67.917C500.939 68.1403 500.675 68.252 500.374 68.252ZM503.779 69.2432C503.61 69.8493 503.526 70.583 503.526 71.4443V72.4697C503.521 73.445 503.232 74.2493 502.657 74.8828C502.051 75.5482 501.245 75.8809 500.237 75.8809H499.069V74.5137H500.224C500.98 74.5137 501.361 73.8324 501.365 72.4697V70.1455C501.365 69.4118 501.735 69.0449 502.473 69.0449C502.91 69.0449 503.346 69.111 503.779 69.2432Z" fill="white"/>
<rect x="402.625" y="86.8809" width="103.541" height="307.606" rx="12" fill="#89AF48"/>
<rect x="407.625" y="90.8809" width="94.1285" height="40.5913" rx="9.02268" fill="#0F0E0E"/>
<rect x="407.625" y="90.8809" width="94.1285" height="40.5913" rx="9.02268" fill="#252424"/>
<path d="M443.766 109.786C444.391 109.786 444.997 109.471 445.586 108.841C445.576 108.393 445.539 107.997 445.477 107.653C445.419 107.304 445.326 106.966 445.195 106.637C445.07 106.304 444.88 106.049 444.625 105.872C444.37 105.695 444.06 105.606 443.695 105.606C443.174 105.606 442.766 105.809 442.469 106.216C442.177 106.622 442.031 107.106 442.031 107.669C442.031 108.309 442.193 108.822 442.516 109.208C442.844 109.593 443.26 109.786 443.766 109.786ZM443.828 104.411C444.479 104.411 445.042 104.538 445.516 104.794C445.99 105.049 446.352 105.4 446.602 105.848C446.852 106.296 447.031 106.778 447.141 107.294C447.255 107.804 447.312 108.361 447.312 108.966C447.312 110.044 447.112 111.059 446.711 112.012C446.315 112.96 445.695 113.752 444.852 114.387C444.008 115.018 443.031 115.333 441.922 115.333C441.453 115.333 441.219 115.098 441.219 114.63C441.219 114.536 441.245 114.346 441.297 114.059C441.51 114.101 441.74 114.122 441.984 114.122C443.021 114.122 443.859 113.708 444.5 112.88C445.141 112.052 445.497 111.052 445.57 109.88C444.919 110.614 444.12 110.981 443.172 110.981C442.38 110.981 441.703 110.703 441.141 110.145C440.583 109.583 440.305 108.843 440.305 107.927C440.305 107.01 440.625 106.195 441.266 105.481C441.906 104.768 442.76 104.411 443.828 104.411ZM454.117 105.989C453.284 105.989 452.307 105.958 451.188 105.895L450.961 108.294C451.357 108.231 451.732 108.2 452.086 108.2C453.237 108.2 454.109 108.507 454.703 109.122C455.302 109.736 455.602 110.538 455.602 111.528C455.602 112.617 455.247 113.523 454.539 114.247C453.831 114.971 452.857 115.333 451.617 115.333C450.799 115.333 450.167 115.236 449.719 115.044C449.271 114.846 449.047 114.596 449.047 114.294C449.047 113.867 449.297 113.606 449.797 113.512C450.125 113.94 450.685 114.153 451.477 114.153C452.232 114.153 452.82 113.913 453.242 113.434C453.664 112.955 453.875 112.395 453.875 111.755C453.875 111.093 453.63 110.525 453.141 110.052C452.651 109.572 451.979 109.333 451.125 109.333C450.688 109.333 450.266 109.361 449.859 109.419C449.755 109.309 449.703 109.052 449.703 108.645C449.703 108.489 449.771 107.124 449.906 104.552C450.24 104.572 451.365 104.583 453.281 104.583C454.083 104.583 454.714 104.541 455.172 104.458C455.281 104.65 455.336 104.874 455.336 105.13C455.336 105.703 454.93 105.989 454.117 105.989ZM466.648 115.333C465.878 115.333 465.268 115.088 464.82 114.598C464.372 114.109 464.148 113.447 464.148 112.614C464.148 111.786 464.372 111.13 464.82 110.645C465.268 110.156 465.878 109.911 466.648 109.911C467.404 109.911 468.005 110.156 468.453 110.645C468.901 111.13 469.125 111.786 469.125 112.614C469.125 113.447 468.901 114.109 468.453 114.598C468.005 115.088 467.404 115.333 466.648 115.333ZM467.578 112.731C467.578 112.262 467.495 111.843 467.328 111.473C467.161 111.104 466.935 110.919 466.648 110.919C466.362 110.919 466.128 111.067 465.945 111.364C465.763 111.656 465.672 112.02 465.672 112.458C465.672 112.937 465.753 113.367 465.914 113.747C466.081 114.122 466.32 114.309 466.633 114.309C466.919 114.309 467.148 114.161 467.32 113.864C467.492 113.567 467.578 113.19 467.578 112.731ZM460.484 115.708C459.719 115.588 459.336 115.374 459.336 115.067C459.336 114.937 459.378 114.809 459.461 114.684L464.164 107.223C464.872 106.114 465.508 105.054 466.07 104.044C466.815 104.096 467.188 104.32 467.188 104.716C467.188 104.83 467.151 104.947 467.078 105.067L462.391 112.52C461.677 113.65 461.042 114.713 460.484 115.708ZM459.867 109.958C459.096 109.958 458.487 109.713 458.039 109.223C457.591 108.734 457.367 108.072 457.367 107.239C457.367 106.406 457.591 105.747 458.039 105.262C458.487 104.778 459.096 104.536 459.867 104.536C460.622 104.536 461.224 104.778 461.672 105.262C462.12 105.747 462.344 106.406 462.344 107.239C462.344 108.072 462.12 108.734 461.672 109.223C461.224 109.713 460.622 109.958 459.867 109.958ZM460.789 107.356C460.789 106.882 460.706 106.463 460.539 106.098C460.378 105.729 460.154 105.544 459.867 105.544C459.576 105.544 459.339 105.692 459.156 105.989C458.979 106.281 458.891 106.645 458.891 107.083C458.891 107.562 458.971 107.992 459.133 108.372C459.299 108.747 459.536 108.934 459.844 108.934C460.135 108.934 460.365 108.786 460.531 108.489C460.703 108.192 460.789 107.815 460.789 107.356Z" fill="white"/>
<path d="M119.59 182.718C117.071 182.161 114.514 184.563 114.795 186.935C114.393 187.3 113.996 187.664 113.603 188.039C112.363 189.217 111.135 190.407 109.901 191.588C107.43 193.955 104.966 196.326 102.503 198.701C97.4447 203.576 92.3327 208.401 87.1092 213.102C82.7349 217.042 78.2501 220.821 73.6821 224.491C77.9673 218.363 82.2502 212.237 86.5346 206.107C90.8749 199.898 95.2642 193.718 99.5525 187.471C103.202 182.161 106.146 176.829 106.542 170.288C106.738 167.009 102.677 165.748 100.3 167.136C87.4196 174.65 76.7863 185.206 66.5187 195.866C63.6895 198.803 60.8721 201.753 58.0468 204.695C65.7897 191.014 73.2037 177.149 80.2003 163.071C82.5734 158.297 86.5003 152.507 84.9292 146.893C83.2359 140.834 77.0271 140.762 72.6335 144.015C61.6443 152.147 52.7573 162.783 43.7143 172.918C38.5001 178.759 33.2718 184.589 28.0474 190.422C31.1182 183.465 34.1976 176.511 37.2558 169.548C40.3437 162.514 43.5406 155.516 46.5061 148.431C49.1623 142.083 50.9911 135.653 49.2916 128.811C48.6464 126.211 45.4583 125.597 43.4214 126.779C35.3279 131.468 27.8156 137.016 20.911 143.318C17.5236 146.409 14.3107 149.688 11.2875 153.136C9.77593 154.86 8.3021 156.619 6.91964 158.448C6.2795 159.293 5.65985 160.152 5.04336 161.013C4.66879 161.543 4.2966 162.072 3.92203 162.601C-0.418329 162.451 0.186833 169.363 4.39092 169.661C7.5681 169.887 9.4683 167.29 11.2252 165.076C13.3037 162.452 15.4492 159.872 17.6882 157.384C24.8534 149.432 33.0517 142.559 42.0219 136.774C41.416 140.959 39.3945 145.077 37.7357 148.806C34.7037 155.624 31.6718 162.442 28.6399 169.26C22.5761 182.896 16.5549 196.55 10.5257 210.203C8.72215 214.287 13.9796 218.221 17.1379 214.687C25.5899 205.242 34.0412 195.794 42.4925 186.346C50.629 177.248 58.5679 167.852 67.3125 159.325C69.4772 157.214 71.7001 155.16 74.0447 153.245C74.8539 152.586 75.6803 151.948 76.5146 151.318C75.0503 155.69 72.6185 159.85 70.5417 163.96C65.124 174.676 59.487 185.286 53.6339 195.775C46.9457 207.761 39.9823 219.598 32.7737 231.281C30.2378 235.389 36.4161 239.135 39.5348 235.866C50.2922 224.587 61.0363 213.298 71.8032 202.032C78.9662 194.531 86.2782 187.14 94.4674 180.827C93.3701 182.497 92.1949 184.106 91.1189 185.648C86.9103 191.679 82.7033 197.708 78.4946 203.739C70.1924 215.639 61.8926 227.538 53.5896 239.435C51.1725 242.9 54.7218 248.102 58.7693 245.386C74.2987 234.964 88.4539 222.467 101.992 209.624C105.438 206.355 108.867 203.069 112.231 199.722C115.274 196.696 118.879 193.714 121.405 190.243C123.209 187.764 123.253 183.528 119.59 182.718Z" fill="white" fill-opacity="0.42"/>
</svg>
