<svg width="32" height="32" viewBox="0 0 32 32" fill="none" xmlns="http://www.w3.org/2000/svg">
<path d="M15.9999 15.3733C12.3199 15.3733 9.33325 18.36 9.33325 22.04C9.33325 23.0267 9.54659 23.96 9.94659 24.7867C10.0533 25.0267 10.1733 25.2533 10.3066 25.4667C11.4533 27.4 13.5733 28.7067 15.9999 28.7067C18.4266 28.7067 20.5466 27.4 21.6933 25.4667C21.8266 25.2533 21.9466 25.0267 22.0533 24.7867C22.4533 23.96 22.6666 23.0267 22.6666 22.04C22.6666 18.36 19.6799 15.3733 15.9999 15.3733ZM18.7599 21.4667L15.9199 24.0933C15.7333 24.2667 15.4799 24.36 15.2399 24.36C14.9866 24.36 14.7333 24.2667 14.5333 24.0667L13.2133 22.7467C12.8266 22.36 12.8266 21.72 13.2133 21.3333C13.5999 20.9467 14.2399 20.9467 14.6266 21.3333L15.2666 21.9733L17.3999 20C17.8133 19.6267 18.4399 19.6533 18.8133 20.0533C19.1866 20.4533 19.1599 21.08 18.7599 21.4667Z" fill="#549A72"/>
<path d="M26.9337 22.76C26.4537 23.1867 25.9337 23.5467 25.3737 23.84C24.8937 24.08 24.4137 23.6133 24.4937 23.08C24.547 22.6933 24.5737 22.2933 24.5737 21.88C24.5737 17.1067 20.6803 13.2133 15.907 13.2133C11.1337 13.2133 7.24034 17.1067 7.24034 21.88C7.24034 22.4933 7.307 23.08 7.427 23.6533C7.52034 24.12 7.16034 24.5867 6.69367 24.4667C1.427 23.1867 1.40034 15.08 7.29367 14.6667H7.36034C3.08034 2.75999 21.1337 -2.00001 23.2003 10.5067C28.9737 11.24 31.307 18.9333 26.9337 22.76Z" fill="#549A72"/>
</svg>
