<svg width="32" height="32" viewBox="0 0 32 32" fill="none" xmlns="http://www.w3.org/2000/svg">
<path d="M29.3345 21.9998V25.9998C29.3345 27.8398 27.8412 29.3332 26.0012 29.3332H16.4812C15.2945 29.3332 14.7079 27.9065 15.5345 27.0665L23.3612 19.0665C23.6145 18.8132 23.9612 18.6665 24.3079 18.6665H26.0012C27.8412 18.6665 29.3345 20.1598 29.3345 21.9998Z" fill="#549A72"/>
<path d="M24.4936 15.0535L20.8803 18.6669L17.6003 21.9335C16.7603 22.7735 15.3203 22.1869 15.3203 21.0002C15.3203 16.7202 15.3203 9.68019 15.3203 9.68019C15.3203 9.32019 15.467 8.98686 15.707 8.73352L16.9336 7.50686C18.2403 6.20019 20.347 6.20019 21.6536 7.50686L24.4803 10.3335C25.8003 11.6402 25.8003 13.7469 24.4936 15.0535Z" fill="#549A72"/>
<path d="M10.0013 2.6665H6.0013C4.0013 2.6665 2.66797 3.99984 2.66797 5.99984V23.9998C2.66797 24.3598 2.70797 24.7198 2.77464 25.0665C2.81464 25.2398 2.85464 25.4132 2.90797 25.5865C2.97464 25.7865 3.0413 25.9865 3.1213 26.1732C3.13464 26.1865 3.13464 26.1998 3.13464 26.1998C3.14797 26.1998 3.14797 26.1998 3.13464 26.2132C3.3213 26.5865 3.53464 26.9465 3.78797 27.2798C3.93464 27.4532 4.0813 27.6132 4.22797 27.7732C4.37464 27.9332 4.53464 28.0665 4.70797 28.1998L4.7213 28.2132C5.05464 28.4665 5.41464 28.6798 5.78797 28.8665C5.8013 28.8532 5.8013 28.8532 5.8013 28.8665C6.0013 28.9598 6.2013 29.0265 6.41464 29.0932C6.58797 29.1465 6.7613 29.1865 6.93464 29.2265C7.2813 29.2932 7.6413 29.3332 8.0013 29.3332C8.54797 29.3332 9.10797 29.2532 9.62797 29.0798C9.77464 29.0265 9.9213 28.9732 10.068 28.9065C10.5346 28.7198 10.988 28.4532 11.388 28.1065C11.508 28.0132 11.6413 27.8932 11.7613 27.7732L11.8146 27.7198C12.748 26.7598 13.3346 25.4398 13.3346 23.9998V5.99984C13.3346 3.99984 12.0013 2.6665 10.0013 2.6665ZM8.0013 25.9998C6.89464 25.9998 6.0013 25.1065 6.0013 23.9998C6.0013 22.8932 6.89464 21.9998 8.0013 21.9998C9.10797 21.9998 10.0013 22.8932 10.0013 23.9998C10.0013 25.1065 9.10797 25.9998 8.0013 25.9998Z" fill="#549A72"/>
</svg>
