<svg width="48" height="48" viewBox="0 0 48 48" fill="none" xmlns="http://www.w3.org/2000/svg">
<path d="M25.1609 0H22.8398V48H25.1609V0Z" fill="white"/>
<path d="M48 22.8394H0V25.1604H48V22.8394Z" fill="white"/>
<path d="M7.84436 6.20691L6.20312 7.84814L40.1439 41.7889L41.7851 40.1477L7.84436 6.20691Z" fill="white"/>
<path d="M40.1439 6.20713L6.20312 40.1479L7.84436 41.7892L41.7852 7.84837L40.1439 6.20713Z" fill="white"/>
<path d="M2.21949 13.8778L1.34375 16.0273L45.7965 34.1377L46.6723 31.9882L2.21949 13.8778Z" fill="white"/>
<path d="M31.9893 1.34552L13.8789 45.7983L16.0285 46.6741L34.1389 2.22127L31.9893 1.34552Z" fill="white"/>
<path d="M45.8499 13.9586L1.32031 31.8818L2.187 34.0351L46.7166 16.1119L45.8499 13.9586Z" fill="white"/>
<path d="M16.1025 1.31957L13.9492 2.18604L31.8676 46.7156L34.0209 45.8492L16.1025 1.31957Z" fill="white"/>
</svg>
