<svg width="34" height="35" viewBox="0 0 34 35" fill="none" xmlns="http://www.w3.org/2000/svg">
<g clip-path="url(#clip0_8650_1049)">
<path fill-rule="evenodd" clip-rule="evenodd" d="M16.0858 6.11877C16.0882 7.48923 15.8459 8.8467 15.3728 10.1137C14.8998 11.3806 14.2052 12.5323 13.3287 13.5028C12.4522 14.4734 11.411 15.2439 10.2646 15.7703C9.11812 16.2968 7.88886 16.5688 6.64697 16.571L6.64705 16.6152L6.64701 16.6152L6.6496 18.1152L6.64963 18.1152L6.64971 18.1594C7.8916 18.1573 9.12179 18.4251 10.2701 18.9476C11.4183 19.47 12.4622 20.237 13.342 21.2045C14.2218 22.172 14.9204 23.3213 15.3978 24.5866C15.8752 25.8519 16.1222 27.2085 16.1246 28.579L17.6581 28.5764C17.6483 22.9154 14.1586 19.1648 9.46602 18.1104L26.6496 18.0807L26.647 16.5807L9.46332 16.6104C14.1523 15.5398 17.6291 11.7771 17.6193 6.11613L16.0858 6.11877Z" fill="#E6F0EA"/>
</g>
<defs>
<clipPath id="clip0_8650_1049">
<rect width="20" height="20" fill="white" transform="matrix(-0.00172503 -0.999999 -0.999999 0.00172503 26.6641 27.3315)"/>
</clipPath>
</defs>
</svg>
