<svg width="21" height="21" viewBox="0 0 21 21" fill="none" xmlns="http://www.w3.org/2000/svg">
<path fill-rule="evenodd" clip-rule="evenodd" d="M10.9142 -0.881227C10.9118 0.489233 11.1541 1.8467 11.6272 3.11365C12.1002 4.38061 12.7948 5.53226 13.6713 6.50283C14.5478 7.47341 15.589 8.24391 16.7354 8.77034C17.8819 9.29677 19.1111 9.56883 20.353 9.57097L20.353 9.61522L20.353 9.61522L20.3504 11.1152L20.3504 11.1152L20.3503 11.1594C19.1084 11.1573 17.8782 11.4251 16.7299 11.9476C15.5817 12.47 14.5378 13.237 13.658 14.2045C12.7782 15.172 12.0796 16.3213 11.6022 17.5866C11.1248 18.8519 10.8778 20.2085 10.8754 21.579L9.34191 21.5764C9.35167 15.9154 12.8414 12.1648 17.534 11.1104L0.350428 11.0807L0.353015 9.58072L17.5367 9.61036C12.8477 8.53975 9.37089 4.77711 9.38065 -0.883872L10.9142 -0.881227Z" fill="#E75050"/>
</svg>
