<svg width="99" height="60" viewBox="0 0 99 60" fill="none" xmlns="http://www.w3.org/2000/svg">
<mask id="mask0_8128_1327" style="mask-type:luminance" maskUnits="userSpaceOnUse" x="0" y="0" width="99" height="60">
<path d="M99 0H0V60H99V0Z" fill="white"/>
</mask>
<g mask="url(#mask0_8128_1327)">
<path d="M64.5059 0.0605469V24.0702L52.621 35.9906V47.9952L40.7364 60.0002V35.9906L52.5375 23.9857V12.0654H28.8516L40.7364 0.0605469H64.5059Z" fill="#C4C4C4" fill-opacity="0.02"/>
<path d="M64.5059 0.0605469V24.0702L52.621 35.9906V47.9952L40.7364 60.0002V35.9906L52.5375 23.9857V12.0654H28.8516L40.7364 0.0605469H64.5059Z" fill="black" fill-opacity="0.02"/>
<path d="M29.6842 41.7391C28.0693 41.7391 26.7559 41.6136 25.7443 41.3626C24.7327 41.0936 23.9074 40.762 23.2685 40.3678C22.6473 39.9554 22.1592 39.5072 21.8043 39.0232C21.4671 38.5391 21.1565 38.082 20.8725 37.6516C20.5885 37.2035 20.278 36.818 19.9407 36.4954C19.6213 36.1548 19.1776 35.9307 18.6096 35.8232C18.4854 35.8052 18.3612 35.7962 18.2369 35.7962C17.9175 35.7962 17.5359 35.8858 17.0922 36.0652C16.6662 36.2443 16.2048 36.5223 15.7078 36.8988C15.2286 37.2754 14.7672 37.7055 14.3235 38.1896C13.8798 38.6556 13.4805 39.1127 13.1255 39.5609C12.7883 40.0093 12.5132 40.4125 12.3002 40.771C12.0873 41.1116 11.9719 41.3536 11.9542 41.4971L9.39844 38.7812C9.4162 37.7771 9.59368 36.7554 9.93089 35.7156C10.2859 34.6759 10.7384 33.6719 11.2886 32.7038C11.8388 31.7177 12.4777 30.8035 13.2054 29.9609C13.933 29.1003 14.6962 28.3565 15.4949 27.729C16.2935 27.1015 17.1099 26.6175 17.9441 26.2769C18.654 25.99 19.3373 25.8466 19.994 25.8466H20.3134C21.0056 25.8825 21.5647 26.0349 21.9906 26.3038C22.4166 26.5727 22.7627 26.9133 23.0289 27.3256C23.3128 27.72 23.5347 28.1682 23.6944 28.6702C23.8719 29.1722 24.0494 29.6832 24.2269 30.2029C24.4043 30.7049 24.6085 31.2069 24.8392 31.709C25.0876 32.1927 25.4071 32.6232 25.7976 32.9997C26.2058 33.3759 26.7205 33.6809 27.3416 33.9139C27.9628 34.1469 28.7439 34.2635 29.6842 34.2635V41.7391ZM10.2504 14.5525C12.8415 13.4768 15.344 12.8404 17.7577 12.6432C18.5387 12.5715 19.3196 12.5356 20.1005 12.5356C21.7155 12.5356 23.3217 12.6791 24.9191 12.9659C24.9191 13.432 24.9102 13.8981 24.8924 14.3642C24.8924 14.8303 24.8924 15.2965 24.8924 15.7626C20.5087 16.3004 16.2048 17.7166 11.9808 20.0113C11.7323 19.348 11.5193 18.7564 11.3419 18.2365C11.1644 17.7166 11.0135 17.2416 10.8893 16.8113C10.765 16.381 10.6497 15.9867 10.5432 15.6281C10.4545 15.2696 10.3568 14.911 10.2504 14.5525ZM50.4229 41.7661C49.7663 41.7481 49.1006 41.6942 48.4262 41.6046C47.7519 41.5151 47.0153 41.3356 46.2167 41.0669C45.4181 40.78 44.5216 40.3678 43.5279 39.8298C42.5516 39.2742 41.4337 38.5391 40.1733 37.6249C39.0198 38.9693 37.5201 39.9913 35.6744 40.6904C33.8462 41.3716 31.6723 41.7301 29.1519 41.7661V34.2635C29.8974 34.2275 30.6163 34.2185 31.3084 34.2365C32.0005 34.2365 32.6749 34.2365 33.3314 34.2365C32.6571 33.6629 32.0981 33.0443 31.6545 32.3811C31.2283 31.7 30.9623 31.0006 30.8559 30.2838C30.8203 30.0864 30.8025 29.8803 30.8025 29.6652C30.8025 29.1632 30.9179 28.6074 31.1486 27.9979C31.3793 27.3884 31.8496 26.7699 32.5595 26.1424C33.2695 25.497 34.1125 24.9592 35.0888 24.529C36.0825 24.0987 37.1029 23.776 38.15 23.5609C39.1084 23.3816 40.058 23.292 40.9986 23.292C41.0873 23.292 41.407 23.3009 41.9571 23.3189C42.525 23.3189 43.226 23.4444 44.0602 23.6954C44.8944 23.9463 45.5776 24.3228 46.1102 24.8248C46.6425 25.3267 46.9355 25.9542 46.9886 26.7071V26.9223C46.9886 27.6214 46.7401 28.455 46.2433 29.4232C45.7641 30.3913 44.8855 31.5206 43.6076 32.8113C43.7675 32.9009 43.9359 33.0087 44.1135 33.1339C44.3087 33.2594 44.637 33.3939 45.0984 33.5374C45.5598 33.6809 46.1989 33.8243 47.0153 33.9675C47.8494 34.093 48.9852 34.1919 50.4229 34.2635V41.7661ZM40.0669 31.8165C40.0847 31.8165 40.0936 31.8075 40.0936 31.7896L40.2534 31.6551C41.2116 30.884 41.9393 30.2478 42.4363 29.7458C42.9511 29.2258 43.2527 28.8136 43.3413 28.5088C43.3591 28.4371 43.368 28.3654 43.368 28.2937C43.368 28.0965 43.2349 27.9352 42.9686 27.8097C42.7204 27.6842 42.2676 27.6035 41.611 27.5676C41.3803 27.5497 41.1496 27.5407 40.9189 27.5407C40.351 27.5407 39.7564 27.5856 39.1351 27.6752C38.5139 27.7648 37.9549 27.9172 37.4579 28.1323C36.9787 28.3475 36.6326 28.5985 36.4197 28.8853C36.2954 29.0646 36.2334 29.2438 36.2334 29.4232C36.2334 29.5487 36.2865 29.7278 36.393 29.9609C36.5172 30.1939 36.8722 30.4898 37.4579 30.8484C38.0613 31.189 38.9311 31.5206 40.0669 31.8432V31.8165ZM55.0816 45.5846C55.8627 45.7997 56.4484 46.1313 56.8386 46.5794C57.2292 47.0275 57.4777 47.5296 57.5841 48.0855C57.6375 48.3362 57.6639 48.5962 57.6639 48.8652C57.6639 49.1698 57.6108 49.5374 57.5044 49.9678C57.4154 50.4159 57.247 50.864 56.9985 51.3122C56.75 51.7782 56.4662 52.1368 56.1465 52.3878C55.898 52.5852 55.6584 52.6838 55.4277 52.6838C55.339 52.6838 55.2592 52.6748 55.1881 52.6568C53.9992 52.3342 53.1116 51.9577 52.526 51.5275C51.9581 51.1151 51.6031 50.6849 51.4611 50.2365C51.408 50.0394 51.3813 49.8513 51.3813 49.6719C51.3813 49.4029 51.4522 49.0803 51.5942 48.7038C51.7363 48.3272 51.967 47.924 52.2864 47.4939C52.6235 47.0635 52.9696 46.6603 53.3246 46.2838C53.6795 45.9252 53.9547 45.6113 54.1499 45.3426L55.0816 45.5846ZM50.0501 34.2365C51.1862 34.1649 52.0378 33.6629 52.6057 32.7307C53.1914 31.7985 53.5731 30.5974 53.7507 29.1272L56.2796 27.218C56.3152 27.738 56.3419 28.2309 56.3594 28.6971C56.3772 29.1632 56.3861 29.6293 56.3861 30.0954C56.6346 31.3145 57.0429 32.3006 57.6108 33.0533C58.1787 33.7884 58.9595 34.1829 59.9536 34.2365V41.7391C58.942 41.7212 58.0014 41.3806 57.1316 40.7174C56.2796 40.0539 55.5697 39.0858 55.0018 37.813C54.4339 39.0858 53.7151 40.0539 52.8453 40.7174C51.9937 41.3806 51.0619 41.7212 50.0501 41.7391V34.2365ZM90.5423 29.3156C89.9388 29.7817 89.1046 30.418 88.0397 31.2249C86.9926 32.0316 85.7501 32.8922 84.3127 33.8064C82.8929 34.7206 81.2865 35.6527 79.4941 36.6029C77.7015 37.5351 75.7669 38.3867 73.6904 39.1577C71.614 39.9104 69.4042 40.529 67.0615 41.013C64.7187 41.4971 62.2874 41.7391 59.767 41.7391H59.6873V34.2365H60.1932C61.0982 34.2185 62.2963 34.1559 63.787 34.0484C65.278 33.9229 66.9286 33.7435 68.7387 33.5104C70.5669 33.2594 72.4835 32.9368 74.489 32.5423C76.5124 32.1481 78.4912 31.664 80.4259 31.0904C82.3781 30.5168 84.2238 29.8443 85.9633 29.0736C87.7025 28.3027 89.2111 27.4063 90.4889 26.3845L90.5423 29.3156Z" fill="white"/>
<path d="M29.6842 41.7391C28.0693 41.7391 26.7559 41.6136 25.7443 41.3626C24.7327 41.0936 23.9074 40.762 23.2685 40.3678C22.6473 39.9554 22.1592 39.5072 21.8043 39.0232C21.4671 38.5391 21.1565 38.082 20.8725 37.6516C20.5885 37.2035 20.278 36.818 19.9407 36.4954C19.6213 36.1548 19.1776 35.9307 18.6096 35.8232C18.4854 35.8052 18.3612 35.7962 18.2369 35.7962C17.9175 35.7962 17.5359 35.8858 17.0922 36.0652C16.6662 36.2443 16.2048 36.5223 15.7078 36.8988C15.2286 37.2754 14.7672 37.7055 14.3235 38.1896C13.8798 38.6556 13.4805 39.1127 13.1255 39.5609C12.7883 40.0093 12.5132 40.4125 12.3002 40.771C12.0873 41.1116 11.9719 41.3536 11.9542 41.4971L9.39844 38.7812C9.4162 37.7771 9.59368 36.7554 9.93089 35.7156C10.2859 34.6759 10.7384 33.6719 11.2886 32.7038C11.8388 31.7177 12.4777 30.8035 13.2054 29.9609C13.933 29.1003 14.6962 28.3565 15.4949 27.729C16.2935 27.1015 17.1099 26.6175 17.9441 26.2769C18.654 25.99 19.3373 25.8466 19.994 25.8466H20.3134C21.0056 25.8825 21.5647 26.0349 21.9906 26.3038C22.4166 26.5727 22.7627 26.9133 23.0289 27.3256C23.3128 27.72 23.5347 28.1682 23.6944 28.6702C23.8719 29.1722 24.0494 29.6832 24.2269 30.2029C24.4043 30.7049 24.6085 31.2069 24.8392 31.709C25.0876 32.1927 25.4071 32.6232 25.7976 32.9997C26.2058 33.3759 26.7205 33.6809 27.3416 33.9139C27.9628 34.1469 28.7439 34.2635 29.6842 34.2635V41.7391ZM10.2504 14.5525C12.8415 13.4768 15.344 12.8404 17.7577 12.6432C18.5387 12.5715 19.3196 12.5356 20.1005 12.5356C21.7155 12.5356 23.3217 12.6791 24.9191 12.9659C24.9191 13.432 24.9102 13.8981 24.8924 14.3642C24.8924 14.8303 24.8924 15.2965 24.8924 15.7626C20.5087 16.3004 16.2048 17.7166 11.9808 20.0113C11.7323 19.348 11.5193 18.7564 11.3419 18.2365C11.1644 17.7166 11.0135 17.2416 10.8893 16.8113C10.765 16.381 10.6497 15.9867 10.5432 15.6281C10.4545 15.2696 10.3568 14.911 10.2504 14.5525ZM50.4229 41.7661C49.7663 41.7481 49.1006 41.6942 48.4262 41.6046C47.7519 41.5151 47.0153 41.3356 46.2167 41.0669C45.4181 40.78 44.5216 40.3678 43.5279 39.8298C42.5516 39.2742 41.4337 38.5391 40.1733 37.6249C39.0198 38.9693 37.5201 39.9913 35.6744 40.6904C33.8462 41.3716 31.6723 41.7301 29.1519 41.7661V34.2635C29.8974 34.2275 30.6163 34.2185 31.3084 34.2365C32.0005 34.2365 32.6749 34.2365 33.3314 34.2365C32.6571 33.6629 32.0981 33.0443 31.6545 32.3811C31.2283 31.7 30.9623 31.0006 30.8559 30.2838C30.8203 30.0864 30.8025 29.8803 30.8025 29.6652C30.8025 29.1632 30.9179 28.6074 31.1486 27.9979C31.3793 27.3884 31.8496 26.7699 32.5595 26.1424C33.2695 25.497 34.1125 24.9592 35.0888 24.529C36.0825 24.0987 37.1029 23.776 38.15 23.5609C39.1084 23.3816 40.058 23.292 40.9986 23.292C41.0873 23.292 41.407 23.3009 41.9571 23.3189C42.525 23.3189 43.226 23.4444 44.0602 23.6954C44.8944 23.9463 45.5776 24.3228 46.1102 24.8248C46.6425 25.3267 46.9355 25.9542 46.9886 26.7071V26.9223C46.9886 27.6214 46.7401 28.455 46.2433 29.4232C45.7641 30.3913 44.8855 31.5206 43.6076 32.8113C43.7675 32.9009 43.9359 33.0087 44.1135 33.1339C44.3087 33.2594 44.637 33.3939 45.0984 33.5374C45.5598 33.6809 46.1989 33.8243 47.0153 33.9675C47.8494 34.093 48.9852 34.1919 50.4229 34.2635V41.7661ZM40.0669 31.8165C40.0847 31.8165 40.0936 31.8075 40.0936 31.7896L40.2534 31.6551C41.2116 30.884 41.9393 30.2478 42.4363 29.7458C42.9511 29.2258 43.2527 28.8136 43.3413 28.5088C43.3591 28.4371 43.368 28.3654 43.368 28.2937C43.368 28.0965 43.2349 27.9352 42.9686 27.8097C42.7204 27.6842 42.2676 27.6035 41.611 27.5676C41.3803 27.5497 41.1496 27.5407 40.9189 27.5407C40.351 27.5407 39.7564 27.5856 39.1351 27.6752C38.5139 27.7648 37.9549 27.9172 37.4579 28.1323C36.9787 28.3475 36.6326 28.5985 36.4197 28.8853C36.2954 29.0646 36.2334 29.2438 36.2334 29.4232C36.2334 29.5487 36.2865 29.7278 36.393 29.9609C36.5172 30.1939 36.8722 30.4898 37.4579 30.8484C38.0613 31.189 38.9311 31.5206 40.0669 31.8432V31.8165ZM55.0816 45.5846C55.8627 45.7997 56.4484 46.1313 56.8386 46.5794C57.2292 47.0275 57.4777 47.5296 57.5841 48.0855C57.6375 48.3362 57.6639 48.5962 57.6639 48.8652C57.6639 49.1698 57.6108 49.5374 57.5044 49.9678C57.4154 50.4159 57.247 50.864 56.9985 51.3122C56.75 51.7782 56.4662 52.1368 56.1465 52.3878C55.898 52.5852 55.6584 52.6838 55.4277 52.6838C55.339 52.6838 55.2592 52.6748 55.1881 52.6568C53.9992 52.3342 53.1116 51.9577 52.526 51.5275C51.9581 51.1151 51.6031 50.6849 51.4611 50.2365C51.408 50.0394 51.3813 49.8513 51.3813 49.6719C51.3813 49.4029 51.4522 49.0803 51.5942 48.7038C51.7363 48.3272 51.967 47.924 52.2864 47.4939C52.6235 47.0635 52.9696 46.6603 53.3246 46.2838C53.6795 45.9252 53.9547 45.6113 54.1499 45.3426L55.0816 45.5846ZM50.0501 34.2365C51.1862 34.1649 52.0378 33.6629 52.6057 32.7307C53.1914 31.7985 53.5731 30.5974 53.7507 29.1272L56.2796 27.218C56.3152 27.738 56.3419 28.2309 56.3594 28.6971C56.3772 29.1632 56.3861 29.6293 56.3861 30.0954C56.6346 31.3145 57.0429 32.3006 57.6108 33.0533C58.1787 33.7884 58.9595 34.1829 59.9536 34.2365V41.7391C58.942 41.7212 58.0014 41.3806 57.1316 40.7174C56.2796 40.0539 55.5697 39.0858 55.0018 37.813C54.4339 39.0858 53.7151 40.0539 52.8453 40.7174C51.9937 41.3806 51.0619 41.7212 50.0501 41.7391V34.2365ZM90.5423 29.3156C89.9388 29.7817 89.1046 30.418 88.0397 31.2249C86.9926 32.0316 85.7501 32.8922 84.3127 33.8064C82.8929 34.7206 81.2865 35.6527 79.4941 36.6029C77.7015 37.5351 75.7669 38.3867 73.6904 39.1577C71.614 39.9104 69.4042 40.529 67.0615 41.013C64.7187 41.4971 62.2874 41.7391 59.767 41.7391H59.6873V34.2365H60.1932C61.0982 34.2185 62.2963 34.1559 63.787 34.0484C65.278 33.9229 66.9286 33.7435 68.7387 33.5104C70.5669 33.2594 72.4835 32.9368 74.489 32.5423C76.5124 32.1481 78.4912 31.664 80.4259 31.0904C82.3781 30.5168 84.2238 29.8443 85.9633 29.0736C87.7025 28.3027 89.2111 27.4063 90.4889 26.3845L90.5423 29.3156Z" fill="#00682C"/>
<path d="M12.0651 20.0001C12.0651 20.0001 10.7172 16.2539 10.332 14.4794C15.2616 12.1133 22.1426 12.3105 24.9668 12.7049V15.6624C23.9786 15.533 13.5652 18.2831 12.0651 20.0001Z" fill="#262525" stroke="#262525"/>
<path d="M51.5943 50.7708C50.641 49.343 52.9183 46.4737 54.176 45.2178C61.5241 47.5978 55.9635 52.754 55.7649 52.754C55.5663 52.754 52.786 52.5557 51.5943 50.7708Z" fill="#C1272D" stroke="#C1272D"/>
</g>
</svg>
