<svg width="200" height="147" viewBox="0 0 200 147" fill="none" xmlns="http://www.w3.org/2000/svg">
<path d="M135.828 0V58.8829L106.535 88.1171V117.559L77.2418 147V88.1171L106.329 58.6756V29.4415H47.9486L77.2418 0H135.828Z" fill="#C4C4C4" fill-opacity="0.02"/>
<path d="M135.828 0V58.8829L106.535 88.1171V117.559L77.2418 147V88.1171L106.329 58.6756V29.4415H47.9486L77.2418 0H135.828Z" fill="black" fill-opacity="0.06"/>
<path d="M50 102.216C46.0192 102.216 42.7822 101.908 40.2887 101.293C37.7953 100.633 35.7612 99.8197 34.1864 98.8524C32.6553 97.8412 31.4523 96.742 30.5774 95.555C29.7463 94.3679 28.9808 93.2467 28.2808 92.1916C27.5809 91.0924 26.8154 90.1471 25.9843 89.3558C25.1969 88.5204 24.1032 87.9708 22.7034 87.707C22.3972 87.6631 22.091 87.6411 21.7848 87.6411C20.9974 87.6411 20.0569 87.8609 18.9633 88.3006C17.9134 88.7402 16.776 89.4217 15.5512 90.345C14.3701 91.2683 13.2327 92.3235 12.1391 93.5105C11.0455 94.6537 10.0612 95.7748 9.18635 96.8739C8.35521 97.9731 7.67717 98.9623 7.15223 99.8416C6.6273 100.677 6.34296 101.271 6.29921 101.622L0 94.9614C0.0437445 92.4993 0.48119 89.9933 1.31234 87.4432C2.18723 84.8932 3.30271 82.4311 4.65879 80.057C6.01487 77.6388 7.58968 75.3966 9.3832 73.3302C11.1767 71.2198 13.0577 69.3952 15.0262 67.8564C16.9948 66.3176 19.007 65.1305 21.063 64.2952C22.8128 63.5917 24.4969 63.24 26.1155 63.24H26.9029C28.6089 63.3279 29.9869 63.7016 31.0367 64.3611C32.0866 65.0206 32.9396 65.8559 33.5958 66.8672C34.2957 67.8344 34.8425 68.9336 35.2362 70.1646C35.6737 71.3957 36.1111 72.6487 36.5486 73.9237C36.986 75.1547 37.4891 76.3858 38.0577 77.6168C38.6702 78.8039 39.4576 79.8591 40.4199 80.7824C41.4261 81.7057 42.6947 82.4531 44.2257 83.0247C45.7568 83.5962 47.6815 83.882 50 83.882V102.216ZM2.09974 35.5414C8.48644 32.9035 14.6544 31.3427 20.6037 30.859C22.5284 30.6832 24.4532 30.5952 26.378 30.5952C30.3587 30.5952 34.3176 30.947 38.2546 31.6504C38.2546 32.7935 38.2327 33.9366 38.189 35.0798C38.189 36.2229 38.189 37.366 38.189 38.5091C27.3841 39.8281 16.776 43.3014 6.36483 48.929C5.75241 47.3023 5.22747 45.8514 4.79003 44.5764C4.35258 43.3014 3.98075 42.1363 3.67454 41.0811C3.36833 40.0259 3.08399 39.0587 2.82152 38.1794C2.6028 37.3 2.3622 36.4207 2.09974 35.5414Z" fill="white"/>
<path d="M101.115 102.282C99.4969 102.238 97.8565 102.106 96.1942 101.886C94.5319 101.666 92.7165 101.227 90.748 100.567C88.7795 99.8636 86.5704 98.8524 84.1207 97.5334C81.7148 96.1705 78.9589 94.3679 75.853 92.1256C73.0096 95.4231 69.3132 97.9291 64.7638 99.6438C60.2581 101.314 54.8994 102.194 48.6877 102.282V83.882C50.5249 83.7941 52.2966 83.7721 54.0026 83.816C55.7087 83.816 57.371 83.816 58.9895 83.816C57.3272 82.4091 55.9493 80.8923 54.8556 79.2656C53.8058 77.5949 53.1496 75.8802 52.8871 74.1216C52.7997 73.6379 52.7559 73.1323 52.7559 72.6047C52.7559 71.3737 53.0402 70.0107 53.6089 68.5159C54.1776 67.021 55.3368 65.5042 57.0866 63.9654C58.8364 62.3826 60.9143 61.0637 63.3202 60.0085C65.7699 58.9533 68.2852 58.1619 70.8661 57.6343C73.2283 57.1946 75.5687 56.9748 77.8871 56.9748C78.1059 56.9748 78.8933 56.9968 80.2493 57.0408C81.6492 57.0408 83.3771 57.3485 85.4331 57.9641C87.4891 58.5796 89.1732 59.5029 90.4856 60.7339C91.7979 61.965 92.5197 63.5038 92.6509 65.3503V65.8779C92.6509 67.5926 92.0385 69.637 90.8137 72.0112C89.6326 74.3853 87.4672 77.1552 84.3176 80.3208C84.7113 80.5406 85.1269 80.8044 85.5643 81.1121C86.0455 81.4199 86.8548 81.7496 87.9921 82.1014C89.1295 82.4531 90.7043 82.8048 92.7165 83.1566C94.7725 83.4643 97.5722 83.7061 101.115 83.882V102.282ZM75.5906 77.8806C75.6343 77.8806 75.6562 77.8587 75.6562 77.8147L76.0499 77.4849C78.4121 75.5944 80.2056 74.0336 81.4305 72.8026C82.699 71.5276 83.4427 70.5163 83.6614 69.7689C83.7052 69.5931 83.727 69.4172 83.727 69.2413C83.727 68.7577 83.399 68.362 82.7428 68.0542C82.1304 67.7465 81.0149 67.5486 79.3963 67.4607C78.8277 67.4167 78.259 67.3948 77.6903 67.3948C76.2905 67.3948 74.825 67.5047 73.294 67.7245C71.7629 67.9443 70.385 68.318 69.1601 68.8456C67.979 69.3732 67.126 69.9887 66.6011 70.6922C66.2948 71.1319 66.1417 71.5715 66.1417 72.0112C66.1417 72.3189 66.273 72.7586 66.5354 73.3302C66.8416 73.9017 67.7165 74.6272 69.1601 75.5065C70.6474 76.3418 72.7909 77.1552 75.5906 77.9466V77.8806Z" fill="white"/>
<path d="M112.598 111.646C114.523 112.174 115.967 112.987 116.929 114.087C117.892 115.186 118.504 116.417 118.766 117.78C118.898 118.395 118.963 119.033 118.963 119.692C118.963 120.44 118.832 121.341 118.57 122.396C118.351 123.495 117.935 124.594 117.323 125.694C116.71 126.837 116.011 127.716 115.223 128.332C114.611 128.815 114.02 129.057 113.451 129.057C113.233 129.057 113.036 129.035 112.861 128.991C109.93 128.2 107.743 127.276 106.299 126.221C104.899 125.21 104.024 124.155 103.675 123.056C103.543 122.572 103.478 122.11 103.478 121.671C103.478 121.011 103.653 120.22 104.003 119.297C104.353 118.373 104.921 117.384 105.709 116.329C106.54 115.274 107.393 114.284 108.268 113.361C109.143 112.482 109.821 111.712 110.302 111.053L112.598 111.646ZM100.197 83.816C102.997 83.6402 105.096 82.4091 106.496 80.1229C107.94 77.8367 108.88 74.891 109.318 71.2857L115.551 66.6034C115.639 67.8784 115.704 69.0874 115.748 70.2306C115.792 71.3737 115.814 72.5168 115.814 73.6599C116.426 76.6496 117.432 79.0677 118.832 80.9143C120.232 82.7169 122.157 83.6842 124.606 83.816V102.216C122.113 102.172 119.794 101.336 117.651 99.7097C115.551 98.083 113.801 95.7088 112.402 92.5872C111.002 95.7088 109.23 98.083 107.087 99.7097C104.987 101.336 102.69 102.172 100.197 102.216V83.816Z" fill="white"/>
<path d="M200 71.7474C198.513 72.8905 196.457 74.4513 193.832 76.4298C191.251 78.4082 188.189 80.5186 184.646 82.7609C181.146 85.0031 177.187 87.2894 172.769 89.6196C168.351 91.9058 163.583 93.9942 158.465 95.8847C153.346 97.7313 147.9 99.2481 142.126 100.435C136.352 101.622 130.359 102.216 124.147 102.216H123.95V83.816H125.197C127.428 83.7721 130.381 83.6182 134.055 83.3544C137.73 83.0466 141.798 82.607 146.26 82.0354C150.766 81.4199 155.49 80.6285 160.433 79.6613C165.42 78.694 170.297 77.5069 175.066 76.1C179.878 74.6931 184.427 73.0444 188.714 71.1538C193.001 69.2633 196.719 67.065 199.869 64.559L200 71.7474Z" fill="white"/>
</svg>
