<svg width="132" height="132" viewBox="0 0 132 132" fill="none" xmlns="http://www.w3.org/2000/svg">
<rect width="132" height="132" rx="66" fill="#F8C9C9"/>
<path d="M87.2881 46.4498C86.63 45.7916 85.9718 45.1335 85.3137 44.4753C83.3392 42.3692 81.2331 40.2631 78.6005 38.9468C75.573 37.3673 72.2823 37.7621 68.9915 37.7621C63.9895 37.7621 51.4846 37.7621 44.1133 37.7621L49.1152 44.4753C58.1978 44.4753 72.4139 44.4753 78.9954 44.4753C81.7596 44.4753 84.129 45.0018 86.3667 46.4498C86.7616 46.5814 87.1565 46.5814 87.2881 46.4498Z" fill="#0F0E0E"/>
<path d="M92.8169 57.2457C92.1587 56.5875 91.5005 55.9293 90.8424 55.2712C88.8679 53.1651 86.7619 51.059 84.1292 49.7427C81.1017 48.1631 77.811 48.558 74.5202 48.558C70.1764 48.558 59.7776 48.558 52.4062 48.558L57.4082 55.2712C66.3591 55.2712 78.6007 55.2712 84.6558 55.2712C87.42 55.2712 89.7894 55.7977 92.0271 57.2457C92.2903 57.3773 92.5536 57.3773 92.8169 57.2457Z" fill="#0F0E0E"/>
<path d="M98.9974 67.7752C98.3393 67.1171 97.6811 66.4589 97.023 65.8008C95.0485 63.6947 92.9425 61.5886 90.3098 60.2722C87.2823 58.6927 83.9916 59.0876 80.7008 59.0876C76.6202 59.0876 67.6694 59.0876 60.4297 59.0876L65.4316 65.8008C74.1193 65.8008 85.1762 65.8008 90.7047 65.8008C93.469 65.8008 95.8383 66.3273 98.076 67.7752C98.4709 67.9068 98.7342 68.0385 98.9974 67.7752Z" fill="#0F0E0E"/>
<path d="M43.5859 85.545C44.2441 86.2032 44.9022 86.8613 45.5604 87.5195C47.5349 89.6256 49.6409 91.7316 52.2735 93.0479C55.3011 94.6275 58.5918 94.2326 61.8826 94.2326H86.7608L81.7588 87.5195C72.6763 87.5195 58.4602 87.5195 51.8787 87.5195C49.1144 87.5195 46.7451 86.9929 44.5073 85.545C44.1125 85.4134 43.8492 85.4134 43.5859 85.545Z" fill="#0F0E0E"/>
<path d="M38.0586 74.7538C38.7167 75.4119 39.3749 76.0701 40.0331 76.7282C42.0075 78.8343 44.1136 80.9404 46.7462 82.2567C49.7737 83.8363 53.0645 83.4414 56.3552 83.4414H78.4692L73.4672 76.7282C64.5163 76.7282 52.2747 76.7282 46.2197 76.7282C43.4554 76.7282 41.0861 76.2017 38.8484 74.7538C38.5851 74.6221 38.3219 74.6221 38.0586 74.7538Z" fill="#0F0E0E"/>
<path d="M32 64.0899C32.6582 64.7481 33.3163 65.4062 33.9745 66.0644C35.9489 68.1705 38.055 70.2766 40.6876 71.5929C43.7151 73.1725 47.0059 72.7776 50.2967 72.7776H70.5678L65.5658 66.0644C56.8782 66.0644 45.8212 66.0644 40.2927 66.0644C37.5285 66.0644 35.1591 65.5379 32.9214 64.0899C32.5265 63.9583 32.2633 63.9583 32 64.0899Z" fill="#0F0E0E"/>
</svg>
