<svg width="72" height="72" viewBox="0 0 72 72" fill="none" xmlns="http://www.w3.org/2000/svg">
<rect width="72" height="72" rx="36" fill="#E6F0EA"/>
<path d="M45.9984 30L44.0117 31.9867L40.0117 27.9867L41.9984 26C42.5584 25.44 43.2784 25.1733 43.9984 25.1733C44.7184 25.1733 45.4384 25.44 45.9984 26C47.1051 27.1067 47.1051 28.8933 45.9984 30Z" fill="#549A72"/>
<path d="M43.0793 32.9331L28.6659 47.3331C27.5593 48.4398 25.7726 48.4398 24.6659 47.3331C23.5593 46.2264 23.5593 44.4398 24.6659 43.3331L39.0793 28.9331L43.0793 32.9331Z" fill="#549A72"/>
<path d="M33.266 24.6667L33.8127 22.8134C33.866 22.64 33.8127 22.4534 33.6927 22.32C33.5727 22.1867 33.3594 22.1334 33.186 22.1867L31.3327 22.7334L29.4794 22.1867C29.306 22.1334 29.1194 22.1867 28.986 22.3067C28.8527 22.44 28.8127 22.6267 28.866 22.8L29.3994 24.6667L28.8527 26.52C28.7994 26.6934 28.8527 26.88 28.9727 27.0134C29.106 27.1467 29.2927 27.1867 29.466 27.1334L31.3327 26.6L33.186 27.1467C33.2394 27.16 33.2794 27.1734 33.3327 27.1734C33.466 27.1734 33.586 27.12 33.6927 27.0267C33.826 26.8934 33.866 26.7067 33.8127 26.5334L33.266 24.6667Z" fill="#549A72"/>
<path d="M27.934 32.6667L28.4807 30.8134C28.534 30.64 28.4807 30.4534 28.3607 30.32C28.2273 30.1867 28.0407 30.1467 27.8673 30.2L26.0007 30.7334L24.1473 30.1867C23.974 30.1334 23.7873 30.1867 23.654 30.3067C23.5207 30.44 23.4807 30.6267 23.534 30.8L24.0673 32.6667L23.5207 34.52C23.4673 34.6934 23.5207 34.88 23.6407 35.0134C23.774 35.1467 23.9607 35.1867 24.134 35.1334L25.9873 34.5867L27.8407 35.1334C27.8807 35.1467 27.934 35.1467 27.9873 35.1467C28.1207 35.1467 28.2407 35.0934 28.3473 35C28.4807 34.8667 28.5207 34.68 28.4673 34.5067L27.934 32.6667Z" fill="#549A72"/>
<path d="M47.933 39.3333L48.4796 37.4799C48.533 37.3066 48.4796 37.1199 48.3596 36.9866C48.2263 36.8533 48.0396 36.8133 47.8663 36.8666L46.013 37.4133L44.1596 36.8666C43.9863 36.8133 43.7996 36.8666 43.6663 36.9866C43.533 37.1199 43.493 37.3066 43.5463 37.4799L44.093 39.3333L43.5463 41.1866C43.493 41.3599 43.5463 41.5466 43.6663 41.6799C43.7996 41.8133 43.9863 41.8533 44.1596 41.7999L46.013 41.2533L47.8663 41.7999C47.9063 41.8133 47.9596 41.8133 48.013 41.8133C48.1463 41.8133 48.2663 41.7599 48.373 41.6666C48.5063 41.5333 48.5463 41.3466 48.493 41.1733L47.933 39.3333Z" fill="#549A72"/>
</svg>
