<svg width="32" height="32" viewBox="0 0 32 32" fill="none" xmlns="http://www.w3.org/2000/svg">
<path d="M21.3346 2.62646H10.668C5.33464 2.62646 2.66797 5.29313 2.66797 10.6265V17.2931C2.66797 23.9598 5.33464 25.2931 10.668 25.2931H11.3346C11.708 25.2931 12.188 25.5331 12.4013 25.8265L14.4013 28.4931C15.2813 29.6665 16.7213 29.6665 17.6013 28.4931L19.6013 25.8265C19.8546 25.4931 20.2546 25.2931 20.668 25.2931H21.3346C26.668 25.2931 29.3346 22.6265 29.3346 17.2931V10.6265C29.3346 5.29313 26.668 2.62646 21.3346 2.62646ZM11.3746 16.2265C11.7613 16.6131 11.7613 17.2531 11.3746 17.6398C11.1746 17.8398 10.9213 17.9331 10.668 17.9331C10.4146 17.9331 10.1613 17.8398 9.9613 17.6398L7.29463 14.9731C6.90797 14.5865 6.90797 13.9465 7.29463 13.5598L9.9613 10.8931C10.348 10.5065 10.988 10.5065 11.3746 10.8931C11.7613 11.2798 11.7613 11.9198 11.3746 12.3065L9.41463 14.2665L11.3746 16.2265ZM18.2546 11.5465L15.588 17.7731C15.428 18.1465 15.0546 18.3731 14.668 18.3731C14.5346 18.3731 14.4013 18.3465 14.268 18.2931C13.7613 18.0798 13.5213 17.4931 13.748 16.9731L16.4146 10.7465C16.628 10.2398 17.2146 9.9998 17.7346 10.2265C18.2413 10.4531 18.468 11.0398 18.2546 11.5465ZM24.708 14.9731L22.0413 17.6398C21.8413 17.8398 21.588 17.9331 21.3346 17.9331C21.0813 17.9331 20.828 17.8398 20.628 17.6398C20.2413 17.2531 20.2413 16.6131 20.628 16.2265L22.588 14.2665L20.628 12.3065C20.2413 11.9198 20.2413 11.2798 20.628 10.8931C21.0146 10.5065 21.6546 10.5065 22.0413 10.8931L24.708 13.5598C25.0946 13.9465 25.0946 14.5865 24.708 14.9731Z" fill="#549A72"/>
</svg>
