<svg width="32" height="32" viewBox="0 0 32 32" fill="none" xmlns="http://www.w3.org/2000/svg">
<path d="M23.9987 17.3335C20.3187 17.3335 17.332 20.3202 17.332 24.0002C17.332 27.6802 20.3187 30.6668 23.9987 30.6668C27.6787 30.6668 30.6654 27.6802 30.6654 24.0002C30.6654 20.3202 27.6787 17.3335 23.9987 17.3335ZM22.8787 25.6935C23.212 26.0268 23.212 26.5735 22.8787 26.9202C22.7054 27.0935 22.492 27.1735 22.2654 27.1735C22.0387 27.1735 21.8254 27.0935 21.652 26.9202L19.3454 24.6135C19.012 24.2802 19.012 23.7335 19.3454 23.3868L21.652 21.0802C21.9854 20.7468 22.532 20.7468 22.8787 21.0802C23.212 21.4135 23.212 21.9602 22.8787 22.3068L21.1854 24.0002L22.8787 25.6935ZM28.6387 24.6135L26.332 26.9202C26.1587 27.0935 25.9454 27.1735 25.7187 27.1735C25.492 27.1735 25.2787 27.0935 25.1054 26.9202C24.772 26.5868 24.772 26.0402 25.1054 25.6935L26.812 24.0002L25.1187 22.3068C24.7854 21.9735 24.7854 21.4268 25.1187 21.0802C25.452 20.7468 25.9987 20.7468 26.3454 21.0802L28.652 23.3868C28.972 23.7335 28.972 24.2668 28.6387 24.6135Z" fill="#549A72"/>
<path d="M28 9.33355V15.2936C28 15.7602 27.5467 16.0802 27.12 15.9202C25.64 15.3469 23.9867 15.1602 22.2533 15.5069C18.7867 16.2002 16.0267 19.0402 15.4533 22.5336C15.1067 24.6669 15.5333 26.6802 16.5067 28.3202C16.7733 28.7736 16.4533 29.3336 15.9333 29.3336H10.6667C6 29.3336 4 26.6669 4 22.6669V9.33355C4 5.78689 5.57333 3.29355 9.18667 2.77355C9.57333 2.72022 9.92 3.02689 9.93333 3.42689L9.97333 4.77355C10.0133 6.90689 11.8133 8.66689 13.9733 8.66689H18C20.2 8.66689 22 6.86689 22 4.66689V3.42689C22 3.02689 22.3467 2.70689 22.7333 2.76022C26.4 3.25355 28 5.76022 28 9.33355Z" fill="#549A72"/>
<path d="M19.9995 3.99984V4.6665C19.9995 5.75984 19.0928 6.6665 17.9995 6.6665H13.9595C12.8795 6.6665 11.9862 5.79984 11.9595 4.71984L11.9462 4.03984C11.9195 3.27984 12.5195 2.6665 13.2795 2.6665H18.6662C19.3995 2.6665 19.9995 3.2665 19.9995 3.99984Z" fill="#549A72"/>
</svg>
