<svg width="665" height="159" viewBox="0 0 665 159" fill="none" xmlns="http://www.w3.org/2000/svg">
<path opacity="0.5" d="M89.6913 40.2411C87.2377 35.8543 82.7394 32.0252 76.1964 28.7537C69.6534 25.4822 63.3334 23.8464 57.2366 23.8464C52.255 23.8464 48.2028 25.1848 45.08 27.8615C41.9572 30.4638 40.3958 34.516 40.3958 40.0181C40.3958 44.9253 42.1802 49.0518 45.7491 52.3977C49.318 55.7435 53.7048 58.2343 58.9095 59.8701C64.1885 61.4315 69.9508 63.439 76.1964 65.8926C82.442 68.2719 88.2043 70.837 93.4833 73.5881C98.7623 76.3391 103.186 80.6144 106.755 86.4138C110.324 92.2133 112.108 99.2024 112.108 107.381C112.108 116.378 110.398 124.148 106.978 130.691C103.558 137.234 98.8738 142.29 92.9256 145.858C86.9774 149.427 80.6203 152.067 73.8543 153.777C67.0882 155.413 59.8017 156.231 51.9947 156.231C38.0165 156.231 25.9343 154.26 15.748 150.32C5.63612 146.379 0.580171 141.211 0.580171 134.817C0.580171 130.059 1.88133 126.267 4.48366 123.441C7.08599 120.542 11.5099 117.419 17.7555 114.073C21.5475 119.352 27.2354 123.813 34.8194 127.456C42.4776 131.025 49.8757 132.81 57.0135 132.81C63.1104 132.81 68.0548 131.36 71.8468 128.46C75.7131 125.56 77.6462 121.062 77.6462 114.965C77.6462 109.166 75.1554 104.519 70.1738 101.024C65.1922 97.5295 59.2069 94.7041 52.2178 92.5479C45.2287 90.3917 38.2396 87.8637 31.2505 84.964C24.2614 81.9899 18.276 77.0826 13.2944 70.2422C8.3128 63.3275 5.822 54.4796 5.822 43.6985C5.822 35.8915 7.49493 29.1255 10.8408 23.4003C14.261 17.6009 18.7965 13.0654 24.4472 9.79388C30.1724 6.52238 36.4179 4.14311 43.184 2.65607C49.95 1.09467 57.3109 0.313972 65.2666 0.313972C77.7578 0.313972 88.5017 2.1356 97.4983 5.77886C106.495 9.42212 110.993 14.5152 110.993 21.0582C110.993 24.9989 109.097 28.7537 105.305 32.3226C101.588 35.8172 96.383 38.4567 89.6913 40.2411ZM203.673 88.1983C201.22 79.8708 198.32 69.1269 194.974 55.9666C191.628 42.7319 189.658 35.0736 189.063 32.9918C179.62 65.8554 174.267 84.2576 173.003 88.1983C180.364 88.4957 186.163 88.6444 190.401 88.6444C196.35 88.6444 200.774 88.4957 203.673 88.1983ZM187.39 111.285C181.145 111.285 174.378 110.987 167.092 110.392C156.757 135.375 150.511 151.286 148.355 158.127C143.076 157.383 139.21 156.751 136.756 156.231C134.303 155.784 131.477 155.004 128.28 153.888C125.083 152.773 122.852 151.286 121.588 149.427C120.399 147.569 119.804 145.301 119.804 142.624C119.804 139.427 122.443 131.657 127.722 119.315C133.001 106.972 140.028 89.9084 148.801 68.1232C157.649 46.338 165.122 25.0361 171.219 4.21746C178.356 3.10218 184.23 2.54454 188.84 2.54454C201.629 2.54454 209.844 8.12095 213.488 19.2738C224.715 53.9963 232.782 77.6031 237.689 90.0943C249.586 120.95 257.653 140.579 261.891 148.981C254.753 153.814 247.69 156.231 240.701 156.231C231.704 156.231 225.905 153.368 223.302 147.643C221.592 143.628 219.324 137.977 216.499 130.691C213.748 123.404 211.146 116.787 208.692 110.839C196.796 111.136 189.695 111.285 187.39 111.285ZM315.871 62.4352C323.603 62.4352 329.886 60.6508 334.719 57.0819C339.626 53.4386 342.08 48.0481 342.08 40.9103C342.08 34.6647 339.589 30.2036 334.608 27.5269C329.7 24.7759 323.603 23.4003 316.317 23.4003C313.12 23.4003 310.146 23.6234 307.395 24.0695C307.989 33.5122 308.287 46.1521 308.287 61.9891C309.997 62.2865 312.525 62.4352 315.871 62.4352ZM307.172 83.8487C307.172 90.8378 306.577 105.299 305.387 127.233C312.376 131.1 319.068 133.033 325.462 133.033C332.005 133.033 337.284 130.951 341.299 126.787C345.389 122.549 347.433 116.526 347.433 108.72C347.433 101.582 345.166 95.5592 340.63 90.6519C336.169 85.6703 329.44 83.1795 320.443 83.1795C315.536 83.1795 311.112 83.4026 307.172 83.8487ZM269.475 141.843C271.929 124.519 273.155 99.0909 273.155 65.558C273.155 37.2298 272.152 16.3741 270.144 2.99065C283.23 1.2062 297.246 0.313972 312.19 0.313972C321.187 0.313972 329.403 0.983142 336.838 2.32148C344.348 3.58547 351.262 5.66733 357.582 8.56707C363.902 11.3925 368.847 15.4446 372.416 20.7237C375.985 26.0027 377.769 32.2854 377.769 39.5719C377.769 55.409 369.627 66.0042 353.344 71.3575C363.977 74.8521 371.635 79.685 376.319 85.8562C381.078 92.0274 383.457 100.206 383.457 110.392C383.457 120.727 380.52 129.501 374.646 136.713C368.772 143.851 361.449 148.907 352.675 151.881C343.976 154.781 334.199 156.231 323.343 156.231C302.078 156.231 284.122 151.435 269.475 141.843ZM473.46 70.9114C485.654 75.7443 493.944 81.3207 498.331 87.6406C502.792 93.9606 505.023 101.619 505.023 110.615C505.023 122.958 499.446 133.665 488.294 142.736C477.215 151.732 462.01 156.231 442.678 156.231C439.035 156.231 435.429 156.082 431.86 155.784C428.291 155.487 424.053 154.855 419.146 153.888C414.313 152.922 410.372 151.212 407.324 148.758C404.276 146.305 402.751 143.256 402.751 139.613C402.751 136.118 404.09 132.81 406.766 129.687C409.517 126.564 412.975 124.408 417.138 123.218C418.923 126.415 422.232 129.055 427.064 131.137C431.972 133.144 437.251 134.148 442.901 134.148C449.891 134.148 456.025 132.14 461.304 128.125C466.583 124.036 469.222 118.497 469.222 111.508C469.222 103.255 466.508 96.6373 461.081 91.6557C455.653 86.5997 448.441 84.0717 439.444 84.0717C436.693 84.0717 434.611 83.9974 433.199 83.8487C431.786 83.7 430.15 83.2539 428.291 82.5103C426.432 81.7668 425.131 80.5028 424.388 78.7184C423.644 76.8596 423.272 74.4803 423.272 71.5806C423.272 68.6808 423.496 66.1529 423.942 63.9966C437.325 63.9966 447.4 61.4315 454.166 56.3012C461.006 51.0965 464.426 44.9997 464.426 38.0105C464.426 32.9546 462.977 29.1255 460.077 26.5231C457.177 23.9208 453.422 22.6196 448.812 22.6196C443.533 22.6196 438.366 24.3297 433.31 27.7499C428.254 31.0958 424.908 35.4082 423.272 40.6872C417.622 39.9437 413.272 38.0849 410.224 35.1108C407.175 32.1367 405.651 28.9024 405.651 25.4078C405.651 19.1623 410.224 13.4371 419.369 8.23248C428.514 2.95348 439.927 0.313972 453.608 0.313972C468.256 0.313972 479.669 3.77135 487.847 10.6861C496.1 17.6009 500.227 25.854 500.227 35.4454C500.227 51.7285 491.305 63.5505 473.46 70.9114ZM606.29 88.1983C603.837 79.8708 600.937 69.1269 597.591 55.9666C594.245 42.7319 592.275 35.0736 591.68 32.9918C582.238 65.8554 576.884 84.2576 575.62 88.1983C582.981 88.4957 588.781 88.6444 593.019 88.6444C598.967 88.6444 603.391 88.4957 606.29 88.1983ZM590.007 111.285C583.762 111.285 576.996 110.987 569.709 110.392C559.374 135.375 553.129 151.286 550.972 158.127C545.693 157.383 541.827 156.751 539.373 156.231C536.92 155.784 534.094 155.004 530.897 153.888C527.7 152.773 525.47 151.286 524.206 149.427C523.016 147.569 522.421 145.301 522.421 142.624C522.421 139.427 525.061 131.657 530.34 119.315C535.619 106.972 542.645 89.9084 551.419 68.1232C560.266 46.338 567.739 25.0361 573.836 4.21746C580.974 3.10218 586.847 2.54454 591.457 2.54454C604.246 2.54454 612.462 8.12095 616.105 19.2738C627.332 53.9963 635.399 77.6031 640.307 90.0943C652.203 120.95 660.27 140.579 664.508 148.981C657.37 153.814 650.307 156.231 643.318 156.231C634.321 156.231 628.522 153.368 625.919 147.643C624.209 143.628 621.942 137.977 619.116 130.691C616.365 123.404 613.763 116.787 611.309 110.839C599.413 111.136 592.312 111.285 590.007 111.285Z" fill="url(#paint0_linear_8128_2774)" fill-opacity="0.42"/>
<defs>
<linearGradient id="paint0_linear_8128_2774" x1="-82.3936" y1="73.521" x2="727.226" y2="73.5211" gradientUnits="userSpaceOnUse">
<stop stop-color="white" stop-opacity="0"/>
<stop offset="0.536458" stop-color="#E75050"/>
<stop offset="1" stop-color="white" stop-opacity="0"/>
</linearGradient>
</defs>
</svg>
