<svg width="123" height="121" viewBox="0 0 123 121" fill="none" xmlns="http://www.w3.org/2000/svg">
<path d="M119.59 56.7178C117.071 56.1606 114.514 58.5628 114.795 60.9346C114.393 61.2999 113.996 61.6636 113.603 62.0393C112.363 63.2172 111.135 64.4072 109.901 65.5883C107.43 67.9546 104.966 70.3263 102.503 72.7005C97.4447 77.5762 92.3327 82.401 87.1092 87.1022C82.7349 91.0421 78.2501 94.8212 73.6821 98.491C77.9673 92.3634 82.2502 86.2365 86.5346 80.1065C90.8749 73.8979 95.2642 67.7178 99.5525 61.471C103.202 56.1609 106.146 50.8294 106.542 44.2883C106.738 41.0091 102.677 39.7484 100.3 41.1359C87.4196 48.6501 76.7863 59.2061 66.5187 69.8656C63.6895 72.8034 60.8721 75.7532 58.0468 78.695C65.7897 65.0139 73.2037 51.1488 80.2003 37.071C82.5734 32.2967 86.5003 26.5069 84.9292 20.8933C83.2359 14.8338 77.0271 14.7619 72.6335 18.0148C61.6443 26.1473 52.7573 36.783 43.7143 46.9183C38.5001 52.759 33.2718 58.5885 28.0474 64.422C31.1182 57.4652 34.1976 50.5109 37.2558 43.5477C40.3437 36.5144 43.5406 29.5164 46.5061 22.4312C49.1623 16.0829 50.9911 9.65342 49.2916 2.81055C48.6464 0.211278 45.4583 -0.40265 43.4214 0.778764C35.3279 5.46834 27.8156 11.0157 20.911 17.3177C17.5236 20.4093 14.3107 23.6882 11.2875 27.136C9.77593 28.86 8.3021 30.6188 6.91964 32.4475C6.2795 33.2926 5.65985 34.1521 5.04336 35.0132C4.66879 35.5429 4.2966 36.0718 3.92203 36.6015C-0.418329 36.4512 0.186833 43.3633 4.39092 43.6606C7.5681 43.8868 9.4683 41.2897 11.2252 39.0758C13.3037 36.4519 15.4492 33.8717 17.6882 31.3844C24.8534 23.4318 33.0517 16.5593 42.0219 10.7738C41.416 14.9593 39.3945 19.0773 37.7357 22.8063C34.7037 29.6242 31.6718 36.4422 28.6399 43.2602C22.5761 56.8962 16.5549 70.5497 10.5257 84.2032C8.72215 88.2868 13.9796 92.2212 17.1379 88.6871C25.5899 79.2416 34.0412 69.7938 42.4925 60.3459C50.629 51.248 58.5679 41.8523 67.3125 33.3249C69.4772 31.2139 71.7001 29.1601 74.0447 27.2449C74.8539 26.5861 75.6803 25.948 76.5146 25.3178C75.0503 29.6896 72.6185 33.85 70.5417 37.96C65.124 48.6765 59.487 59.2862 53.6339 69.7748C46.9457 81.7608 39.9823 93.5977 32.7737 105.281C30.2378 109.389 36.4161 113.135 39.5348 109.866C50.2922 98.5866 61.0363 87.2984 71.8032 76.0316C78.9662 68.5314 86.2782 61.14 94.4674 54.8274C93.3701 56.4972 92.1949 58.1058 91.1189 59.6478C86.9103 65.6794 82.7033 71.7078 78.4946 77.7395C70.1924 89.639 61.8926 101.538 53.5896 113.435C51.1725 116.9 54.7218 122.102 58.7693 119.386C74.2987 108.964 88.4539 96.4672 101.992 83.6236C105.438 80.3553 108.867 77.0687 112.231 73.7219C115.274 70.6958 118.879 67.7142 121.405 64.2427C123.209 61.7636 123.253 57.5282 119.59 56.7178Z" fill="white" fill-opacity="0.42"/>
</svg>
