<svg width="24" height="25" viewBox="0 0 24 25" fill="none" xmlns="http://www.w3.org/2000/svg">
<path d="M5.74132 16.5C5.85132 16.01 5.65132 15.31 5.30132 14.96L2.87132 12.53C2.11132 11.77 1.81132 10.96 2.03132 10.26C2.26132 9.56 2.97132 9.08 4.03132 8.9L7.15132 8.38C7.60132 8.3 8.15132 7.9 8.36132 7.49L10.0813 4.04C10.5813 3.05 11.2613 2.5 12.0013 2.5C12.7413 2.5 13.4213 3.05 13.9213 4.04L15.6413 7.49C15.7713 7.75 16.0413 8 16.3313 8.17L5.56132 18.94C5.42132 19.08 5.18132 18.95 5.22132 18.75L5.74132 16.5Z" fill="#E75050"/>
<path d="M18.7008 14.9599C18.3408 15.3199 18.1408 16.0099 18.2608 16.4999L18.9508 19.5099C19.2408 20.7599 19.0608 21.6999 18.4408 22.1499C18.1908 22.3299 17.8908 22.4199 17.5408 22.4199C17.0308 22.4199 16.4308 22.2299 15.7708 21.8399L12.8408 20.0999C12.3808 19.8299 11.6208 19.8299 11.1608 20.0999L8.23078 21.8399C7.12078 22.4899 6.17078 22.5999 5.56078 22.1499C5.33078 21.9799 5.16078 21.7499 5.05078 21.4499L17.2108 9.2899C17.6708 8.8299 18.3208 8.6199 18.9508 8.7299L19.9608 8.8999C21.0208 9.0799 21.7308 9.5599 21.9608 10.2599C22.1808 10.9599 21.8808 11.7699 21.1208 12.5299L18.7008 14.9599Z" fill="#E75050"/>
</svg>
