<svg width="28" height="28" viewBox="0 0 28 28" fill="none" xmlns="http://www.w3.org/2000/svg">
<path d="M19.588 0.666504H8.41464C3.5613 0.666504 0.667969 3.55984 0.667969 8.41317V19.5732C0.667969 24.4398 3.5613 27.3332 8.41464 27.3332H19.5746C24.428 27.3332 27.3213 24.4398 27.3213 19.5865V8.41317C27.3346 3.55984 24.4413 0.666504 19.588 0.666504ZM19.6013 22.3332C18.0946 22.3332 16.868 21.1065 16.868 19.5998C16.868 18.7198 17.2946 17.9465 17.948 17.4398C17.388 15.9732 15.988 14.9598 14.4146 15.0132L11.668 15.0265H11.6546C10.8413 15.0265 10.068 14.7865 9.41464 14.3732V17.0665C10.428 17.4665 11.148 18.4532 11.148 19.5998C11.148 21.1065 9.9213 22.3332 8.41464 22.3332C6.90797 22.3332 5.6813 21.1065 5.6813 19.5998C5.6813 18.4398 6.4013 17.4665 7.41464 17.0665V11.2665C6.4013 10.7998 5.6813 9.7865 5.6813 8.59984C5.6813 6.9865 7.0013 5.6665 8.61464 5.6665C10.228 5.6665 11.548 6.9865 11.548 8.59984C11.548 9.9065 10.6813 10.9998 9.49464 11.3865C9.7613 12.3598 10.6413 13.0398 11.6546 13.0398C11.6546 13.0398 11.6546 13.0398 11.668 13.0398L14.4146 13.0265C14.428 13.0265 14.428 13.0265 14.4413 13.0265C16.8946 13.0265 19.0946 14.5865 19.8946 16.9065C21.268 17.0532 22.348 18.1998 22.348 19.6132C22.3346 21.1065 21.108 22.3332 19.6013 22.3332Z" fill="#549A72"/>
</svg>
