<svg width="18" height="18" viewBox="0 0 18 18" fill="none" xmlns="http://www.w3.org/2000/svg">
<path fill-rule="evenodd" clip-rule="evenodd" d="M1.58401 0.31833C2.55308 1.28739 3.68561 2.074 4.91696 2.63325C6.14832 3.19249 7.45436 3.51341 8.76054 3.5777C10.0667 3.64198 11.3474 3.44837 12.5296 3.00791C13.7117 2.56745 14.7722 1.88877 15.6503 1.01062L15.6816 1.04191L15.6816 1.04188L16.7423 2.10254L16.7423 2.10257L16.7735 2.13384C15.8954 3.01199 15.2167 4.07241 14.7762 5.25456C14.3358 6.43671 14.1422 7.71743 14.2064 9.02361C14.2707 10.3298 14.5917 11.6358 15.1509 12.8672C15.7101 14.0985 16.4968 15.2311 17.4658 16.2001L16.3814 17.2845C12.3785 13.2816 12.1852 8.16225 14.7508 4.09406L2.60015 16.2447L1.53949 15.184L13.6902 3.03332C9.62198 5.59891 4.50256 5.40564 0.499634 1.40271L1.58401 0.31833Z" fill="#E6F0EA"/>
</svg>
