<svg width="44" height="68" viewBox="0 0 44 68" fill="none" xmlns="http://www.w3.org/2000/svg">
<path fill-rule="evenodd" clip-rule="evenodd" d="M9.35972 27.7994C12.9975 26.0368 20.6619 18.5906 22.1092 4.01009L22.3813 2.33707C22.5403 1.35906 23.385 0.640625 24.3758 0.640625C25.4088 0.640625 26.2806 1.4151 26.4482 2.43441C27.0236 5.93426 28.6923 13.7533 32.6563 18.5906C35.7652 22.3844 39.1779 24.5661 41.4342 25.7115C42.896 26.4537 43.9736 27.9151 43.9736 29.5546C43.9736 30.9812 43.1593 32.2817 41.9502 33.0389C38.5262 35.1835 31.7814 40.3237 29.9393 48.433C28.288 55.7029 27.6595 61.7463 27.423 65.0122C27.3176 66.469 26.114 67.6363 24.6534 67.6363C23.2273 67.6363 22.0435 66.5263 21.8955 65.108C21.3383 59.7664 19.4647 47.3791 13.7749 41.9526C8.97435 37.3743 4.77161 35.444 2.42937 34.6551C1.32316 34.2825 0.460937 33.2668 0.460937 32.0995C0.460937 30.8754 1.40864 29.8544 2.61937 29.6739C4.48243 29.3963 7.20564 28.8431 9.35972 27.7994Z" fill="#FFBD4F"/>
</svg>
