<svg width="54" height="54" viewBox="0 0 54 54" fill="none" xmlns="http://www.w3.org/2000/svg">
<rect width="54" height="54" rx="12" fill="#F6F2FF"/>
<path d="M43.6193 37.5497C43.6193 38.1497 43.4859 38.7663 43.2026 39.3663C42.9193 39.9663 42.5526 40.533 42.0693 41.0663C41.2526 41.9663 40.3526 42.6163 39.3359 43.033C38.3359 43.4497 37.2526 43.6663 36.0859 43.6663C34.3859 43.6663 32.5693 43.2663 30.6526 42.4497C28.7359 41.633 26.8193 40.533 24.9193 39.1497C23.0026 37.7497 21.1859 36.1997 19.4526 34.483C17.7359 32.7497 16.1859 30.933 14.8026 29.033C13.4359 27.133 12.3359 25.233 11.5359 23.3497C10.7359 21.4497 10.3359 19.633 10.3359 17.8997C10.3359 16.7663 10.5359 15.683 10.9359 14.683C11.3359 13.6663 11.9693 12.733 12.8526 11.8997C13.9193 10.8497 15.0859 10.333 16.3193 10.333C16.7859 10.333 17.2526 10.433 17.6693 10.633C18.1026 10.833 18.4859 11.133 18.7859 11.5663L22.6526 17.0163C22.9526 17.433 23.1693 17.8163 23.3193 18.183C23.4693 18.533 23.5526 18.883 23.5526 19.1997C23.5526 19.5997 23.4359 19.9997 23.2026 20.383C22.9859 20.7663 22.6693 21.1663 22.2693 21.5663L21.0026 22.883C20.8193 23.0663 20.7359 23.283 20.7359 23.5497C20.7359 23.683 20.7526 23.7997 20.7859 23.933C20.8359 24.0663 20.8859 24.1663 20.9193 24.2663C21.2193 24.8163 21.7359 25.533 22.4693 26.3997C23.2193 27.2663 24.0193 28.1497 24.8859 29.033C25.7859 29.9163 26.6526 30.733 27.5359 31.483C28.4026 32.2163 29.1193 32.7163 29.6859 33.0163C29.7693 33.0497 29.8693 33.0997 29.9859 33.1497C30.1193 33.1997 30.2526 33.2163 30.4026 33.2163C30.6859 33.2163 30.9026 33.1163 31.0859 32.933L32.3526 31.683C32.7693 31.2663 33.1693 30.9497 33.5526 30.7497C33.9359 30.5163 34.3193 30.3997 34.7359 30.3997C35.0526 30.3997 35.3859 30.4663 35.7526 30.6163C36.1193 30.7663 36.5026 30.983 36.9193 31.2663L42.4359 35.183C42.8693 35.483 43.1693 35.833 43.3526 36.2497C43.5193 36.6663 43.6193 37.083 43.6193 37.5497Z" stroke="#9F70FC" stroke-width="2.5" stroke-miterlimit="10"/>
</svg>
