<svg width="106" height="93" viewBox="0 0 106 93" fill="none" xmlns="http://www.w3.org/2000/svg">
<path fill-rule="evenodd" clip-rule="evenodd" d="M70.1644 33.8298C64.1225 28.037 55.645 25.3349 47.1821 26.8197C32.7079 29.359 23.0478 43.2002 25.5967 57.7287C28.1456 72.2571 41.9404 81.9833 56.4146 79.444C70.8888 76.9046 80.5489 63.0634 78 48.535L77.9511 48.2641C77.9343 48.1739 77.9171 48.0839 77.8995 47.9941L77.8808 47.9012L77.8914 47.8795C79.8402 43.8452 79.7127 39.7318 77.7004 36.8705L77.6247 36.7644C75.7438 34.1705 72.9664 33.2765 70.2997 33.9074L70.2555 33.9182L70.1644 33.8298ZM31.9339 56.6169C29.998 45.5823 37.3262 35.0823 48.293 33.1582C55.3398 31.9219 62.3975 34.5158 67.0173 39.8509C68.0763 41.0737 69.8784 41.3203 71.2269 40.4269C71.8352 40.0238 72.0676 40.0494 72.4354 40.5725C72.683 40.9245 72.8553 41.517 72.8449 42.268C72.8305 43.3023 72.4758 44.5016 71.7073 45.8052C71.2784 46.5328 71.1528 47.3998 71.3576 48.2192C71.4747 48.6879 71.5758 49.1642 71.6605 49.6472C73.5964 60.6818 66.2682 71.1818 55.3014 73.1058C44.3346 75.0298 33.8698 67.6515 31.9339 56.6169Z" fill="white"/>
<ellipse cx="51.7997" cy="53.1319" rx="23.3843" ry="23.4964" transform="rotate(-9.95075 51.7997 53.1319)" fill="#FFBD4F"/>
<ellipse cx="59.4025" cy="58.7183" rx="2.81855" ry="3.71536" transform="rotate(-9.95075 59.4025 58.7183)" fill="#312A46"/>
<path fill-rule="evenodd" clip-rule="evenodd" d="M53.3297 42.536C50.6188 38.6811 45.7693 41.7758 45.2715 45.2132C42.9282 42.1352 40.4821 41.4477 37.933 43.1506C34.1094 45.7049 36.4226 51.2203 39.7831 53.6959C42.0234 55.3463 44.6985 56.5824 47.3537 57.0816C55.1892 50.9931 55.137 45.1059 53.3297 42.536Z" fill="#F27A5F"/>
<path fill-rule="evenodd" clip-rule="evenodd" d="M75.068 38.722C72.357 34.8672 67.5076 37.9618 67.0098 41.3992C64.6665 38.3213 62.2203 37.6337 59.6713 39.3366C55.8476 41.891 58.1609 47.4064 61.5213 49.882C63.7616 51.5324 66.4367 52.7684 69.092 53.2676C76.9275 47.1791 76.8752 41.2919 75.068 38.722Z" fill="#F27A5F"/>
</svg>
