<svg width="155" height="22" viewBox="0 0 155 22" fill="none" xmlns="http://www.w3.org/2000/svg">
<g clip-path="url(#clip0_8164_2592)">
<path d="M9.72069 4.10742C10.4882 4.10742 11.1133 4.70647 11.1133 5.447V20.0917C11.1133 20.8301 10.4905 21.4313 9.72069 21.4313C8.95317 21.4313 8.32812 20.8323 8.32812 20.0917V5.447C8.32812 4.70868 8.95087 4.10742 9.72069 4.10742Z" fill="#1798D5"/>
<path d="M1.7285 3.23243C0.958684 3.23243 0.335938 2.63338 0.335938 1.89285C0.335938 1.15233 0.958684 0.553276 1.7262 0.553276L17.5178 0.544434C18.2853 0.544434 18.9103 1.14349 18.9103 1.8818C18.9103 2.62012 18.2876 3.22138 17.5201 3.22138L1.7285 3.23022V3.23243Z" fill="#1798D5"/>
<path d="M30.1513 3.13951L23.1838 20.6314C22.9081 21.3233 22.1038 21.6659 21.3868 21.4029C20.6699 21.1376 20.3091 20.3639 20.5849 19.6742L27.4351 2.47193C27.8717 1.3092 28.9356 0.557617 30.1467 0.557617H30.1559C31.3669 0.557617 32.4308 1.3092 32.8674 2.47193L39.72 19.672C39.9957 20.3617 39.6372 21.1376 38.918 21.4007C38.1987 21.6637 37.3944 21.3211 37.121 20.6292L30.1513 3.13951Z" fill="#1798D5"/>
<path d="M46.5527 0.530762C47.3202 0.530762 47.9453 1.12981 47.9453 1.87034V20.1448C47.9453 20.8831 47.3225 21.4843 46.5527 21.4843C45.7852 21.4843 45.1602 20.8853 45.1602 20.1448V1.87034C45.1602 1.13202 45.7829 0.530762 46.5527 0.530762Z" fill="#1798D5"/>
<path d="M51.1582 13.0026C50.3907 13.0026 49.7656 12.4036 49.7656 11.6653C49.7656 10.9247 50.3884 10.3257 51.1559 10.3257H54.697C55.4646 10.3257 56.0896 10.9247 56.0896 11.6631C56.0896 12.4036 55.4669 13.0026 54.6993 13.0026H51.1582Z" fill="#1798D5"/>
<path d="M59.3746 0.524414C60.1422 0.524414 60.7672 1.12347 60.7672 1.86399V20.1384C60.7672 20.8767 60.1445 21.478 59.3746 21.478C58.6071 21.478 57.9844 20.8789 57.9844 20.1406V1.86399C57.9844 1.12568 58.6071 0.524414 59.3769 0.524414H59.3746Z" fill="#1798D5"/>
<path d="M72.9164 21.4711C71.6457 21.4711 70.584 20.5891 70.2692 19.2738L66.188 2.15772C66.0157 1.43708 66.4845 0.718664 67.2336 0.552874C67.9827 0.387085 68.7296 0.838032 68.9019 1.55866L72.9164 18.3918L75.6257 6.97666C75.9383 5.6614 76.9999 4.77719 78.2707 4.77719C79.5392 4.77719 80.6031 5.65919 80.9179 6.97445L81.2006 8.19024C81.3683 8.91308 80.895 9.62708 80.1458 9.78845C79.3967 9.94982 78.6521 9.49666 78.4844 8.77382L78.273 7.85866L75.566 19.2716C75.2535 20.5869 74.1918 21.4711 72.921 21.4711H72.9164Z" fill="#1798D5"/>
<path d="M83.6428 21.4647C82.372 21.4647 81.3104 20.5827 80.9956 19.2674L79.5708 13.299C79.3985 12.5784 79.8673 11.86 80.6164 11.6942C81.3655 11.5284 82.1124 11.9793 82.2847 12.7L83.6405 18.3854L87.6367 1.54787C87.809 0.827235 88.5559 0.376288 89.3027 0.539867C90.0518 0.703446 90.5206 1.42187 90.3506 2.1425L86.2878 19.263C85.9752 20.5783 84.9136 21.4625 83.6428 21.4625V21.4647Z" fill="#1798D5"/>
<path d="M144.319 21.4778C143.411 21.4778 142.559 21.1373 141.915 20.5206C141.274 19.9039 140.92 19.0816 140.918 18.2084V1.86155C140.918 1.12103 141.541 0.521973 142.311 0.521973C143.08 0.521973 143.703 1.12103 143.703 1.86155V18.2106C143.703 18.4228 143.816 18.5643 143.882 18.6284C143.949 18.6925 144.096 18.8008 144.317 18.8008L152.941 18.7964C153.708 18.7964 154.333 19.3954 154.333 20.1338C154.333 20.8743 153.711 21.4733 152.943 21.4733L144.319 21.4778Z" fill="#1798D5"/>
<path d="M96.4953 7.7706C96.2586 7.7706 96.0196 7.71312 95.8013 7.59155C95.1349 7.22239 94.9074 6.40228 95.2935 5.76123C97.2353 2.52502 100.855 0.513441 104.738 0.51123H104.745C107.657 0.51123 110.396 1.60102 112.455 3.58165C112.999 4.10334 112.999 4.95218 112.455 5.47607C111.91 5.99997 111.03 5.99997 110.485 5.47607C108.95 4.00165 106.912 3.19039 104.743 3.19039H104.738C101.847 3.19039 99.1495 4.69134 97.7018 7.10302C97.4444 7.53186 96.9756 7.77281 96.4953 7.77281V7.7706Z" fill="#1798D5"/>
<path d="M104.743 21.5C98.729 21.5 93.8366 16.796 93.832 11.0111C93.832 10.2705 94.4548 9.67147 95.2223 9.67147C95.9898 9.67147 96.6149 10.2705 96.6149 11.0088C96.6172 15.3172 100.262 18.8208 104.74 18.8208H104.745C108.04 18.8208 110.812 16.8579 112.161 13.5775L114.766 7.08958C116.554 2.95368 120.263 0.502211 124.703 0.5H124.71C130.723 0.5 135.616 5.204 135.62 10.9889C135.62 11.7295 134.998 12.3285 134.23 12.3285C133.463 12.3285 132.838 11.7295 132.838 10.9912C132.835 6.68284 129.191 3.17916 124.712 3.17916H124.707C121.431 3.17916 118.682 5.01611 117.356 8.08653L114.76 14.5545C112.972 18.9071 109.231 21.5 104.752 21.5022H104.745L104.743 21.5Z" fill="#1798D5"/>
<path d="M124.683 21.4909C121.425 21.4909 118.362 20.1071 116.282 17.691C115.79 17.1207 115.873 16.2785 116.466 15.8054C117.056 15.3346 117.934 15.412 118.426 15.9823C119.977 17.7817 122.259 18.814 124.686 18.814H124.69C127.393 18.814 129.911 17.523 131.428 15.3633C131.857 14.751 132.724 14.5874 133.36 15.003C133.997 15.4164 134.165 16.2498 133.735 16.8621C131.701 19.7601 128.321 21.4909 124.692 21.4931H124.688L124.683 21.4909Z" fill="#1798D5"/>
</g>
<defs>
<clipPath id="clip0_8164_2592">
<rect width="154" height="21" fill="white" transform="translate(0.335938 0.5)"/>
</clipPath>
</defs>
</svg>
