<svg width="107" height="62" viewBox="0 0 107 62" fill="none" xmlns="http://www.w3.org/2000/svg">
<g clip-path="url(#clip0_8164_2496)">
<path d="M47.3911 21.1617V29.7292C47.3911 30.7287 46.5898 31.5283 45.5882 31.5283H36.4019C36.1443 31.5283 35.9154 31.4712 35.6865 31.3855L0.171875 15.7642V0H15.9689L46.5612 19.6481C47.0763 19.9908 47.3911 20.562 47.3911 21.1617Z" fill="white"/>
<path d="M0.171875 54.689H4.4073V55.6314H2.77609V60.2578H1.80308V55.6314H0.171875V54.689Z" fill="#052460"/>
<path d="M4.35156 60.2579V56.0598H5.18147L5.23871 56.6881C5.35318 56.4596 5.52489 56.3168 5.75383 56.2026C5.98277 56.0884 6.24033 56.0312 6.52651 56.0312C6.64098 56.0312 6.78406 56.0313 6.86992 56.0598L6.69821 56.9166C6.64098 56.9166 6.61236 56.9166 6.55513 56.9166C6.1831 56.9166 5.8683 57.0308 5.61074 57.2593C5.35318 57.4877 5.23871 57.859 5.23871 58.4016V60.2579H4.35156Z" fill="#052460"/>
<path d="M8.98889 60.315C8.61686 60.315 8.27345 60.2293 7.98727 60.0294C7.67248 59.8295 7.44353 59.5725 7.24321 59.2298C7.0715 58.8871 6.95703 58.5444 6.95703 58.1446C6.95703 57.7447 7.04288 57.402 7.24321 57.0593C7.41491 56.7166 7.67248 56.4596 7.98727 56.2597C8.30207 56.0598 8.61686 55.9741 8.98889 55.9741C9.30369 55.9741 9.58986 56.0598 9.84742 56.2026C10.105 56.3739 10.3053 56.5738 10.4484 56.8309L10.5056 56.0312H11.3355V60.2293H10.5056L10.4484 59.4297C10.3339 59.6867 10.1336 59.8866 9.84742 60.0294C9.58986 60.2293 9.30369 60.315 8.98889 60.315ZM9.16059 59.4297C9.38954 59.4297 9.58986 59.3726 9.79019 59.2583C9.99051 59.1441 10.1336 59.0013 10.2481 58.8014C10.3625 58.6015 10.4198 58.4016 10.4198 58.1731C10.4198 57.9446 10.3625 57.7447 10.2481 57.5448C10.1336 57.3449 9.99051 57.2021 9.79019 57.0879C9.58986 56.9737 9.38954 56.9165 9.16059 56.9165C8.93165 56.9165 8.73133 56.9737 8.53101 57.0879C8.33068 57.2021 8.1876 57.3449 8.07312 57.5448C7.95865 57.7447 7.90142 57.9446 7.90142 58.1731C7.90142 58.4016 7.95865 58.6015 8.07312 58.8014C8.1876 59.0013 8.33068 59.1441 8.53101 59.2583C8.70271 59.3726 8.93165 59.4297 9.16059 59.4297Z" fill="#052460"/>
<path d="M12.2773 60.2581V56.06H13.1073L13.1645 56.7454C13.279 56.517 13.4507 56.3456 13.6796 56.2028C13.8799 56.06 14.1375 56.0029 14.4237 56.0029C14.7671 56.0029 15.0533 56.0886 15.3108 56.2314C15.5684 56.3742 15.7687 56.6312 15.9118 56.9453C16.0549 57.2595 16.1121 57.6593 16.1121 58.1448V60.2867H15.1963V58.1448C15.1963 57.8592 15.1391 57.6308 15.0533 57.4594C14.9674 57.2881 14.8529 57.1453 14.6812 57.0596C14.5381 56.9739 14.3664 56.9168 14.1661 56.9168C13.9944 56.9168 13.8227 56.9739 13.651 57.0596C13.5079 57.1453 13.3934 57.2881 13.279 57.4594C13.1931 57.6308 13.1359 57.8878 13.1359 58.1448V60.2867H12.2773V60.2581Z" fill="#052460"/>
<path d="M18.631 60.3435C18.2875 60.3435 17.9441 60.2864 17.6007 60.1722C17.2573 60.058 16.9711 59.8581 16.7422 59.6296L17.3718 59.0299C17.5149 59.1727 17.6866 59.2869 17.9441 59.3726C18.1731 59.4582 18.4306 59.5154 18.6596 59.5154C18.8885 59.5154 19.0888 59.4868 19.2319 59.4011C19.375 59.3154 19.4323 59.2012 19.4323 59.0584C19.4323 58.9728 19.4036 58.8871 19.3178 58.83C19.2319 58.7728 19.1461 58.7157 19.003 58.6872C18.8885 58.6586 18.7168 58.6015 18.5451 58.5729C18.2017 58.5158 17.9441 58.4301 17.7152 58.3445C17.4863 58.2588 17.3145 58.116 17.1428 57.9446C16.9711 57.7733 16.8853 57.5163 16.8853 57.2307C16.8853 57.0022 16.9425 56.7738 17.0856 56.6024C17.2287 56.4311 17.4004 56.2883 17.658 56.174C17.9155 56.0598 18.1731 56.0312 18.5165 56.0312C18.8313 56.0312 19.1461 56.0884 19.4609 56.2026C19.7757 56.3168 20.0332 56.4882 20.2336 56.7452L19.6898 57.2878C19.5753 57.145 19.4036 57.0308 19.1747 56.9737C18.9458 56.9166 18.7454 56.8594 18.5451 56.8594C18.3162 56.8594 18.1445 56.888 18.0014 56.9737C17.8583 57.0308 17.801 57.145 17.801 57.2593C17.801 57.3449 17.8297 57.402 17.9155 57.4592C17.9728 57.5163 18.0872 57.5448 18.2017 57.602C18.3162 57.6305 18.4593 57.6591 18.6596 57.7162C19.003 57.8019 19.2892 57.859 19.5181 57.9446C19.7471 58.0303 19.9474 58.1731 20.1191 58.3445C20.2908 58.5444 20.3766 58.7728 20.3766 59.087C20.3766 59.3726 20.2908 59.6296 20.1477 59.8295C20.0046 60.0294 19.7757 60.1722 19.5181 60.2864C19.2319 60.315 18.9458 60.3435 18.631 60.3435Z" fill="#052460"/>
<path d="M21.0352 61.9428V56.0598H21.8651L21.9223 56.8594C22.0368 56.6024 22.2371 56.4025 22.5233 56.2597C22.7808 56.0884 23.067 56.0312 23.3818 56.0312C23.7538 56.0312 24.0686 56.1169 24.3834 56.3168C24.6982 56.5167 24.9272 56.7738 25.1275 57.1165C25.2992 57.4592 25.3851 57.8019 25.3851 58.2017C25.3851 58.6015 25.2992 58.9442 25.1275 59.2869C24.9558 59.6296 24.6982 59.8866 24.3834 60.0865C24.0686 60.2864 23.7252 60.3721 23.3818 60.3721C23.067 60.3721 22.7808 60.2864 22.5233 60.1436C22.2657 60.0008 22.0654 59.8009 21.9509 59.5439V61.9714H21.0352V61.9428ZM23.2387 59.4297C23.4677 59.4297 23.668 59.3726 23.8683 59.2583C24.0686 59.1441 24.2117 59.0013 24.3262 58.8014C24.4407 58.6015 24.4979 58.4016 24.4979 58.1731C24.4979 57.9447 24.4407 57.7447 24.3262 57.5448C24.2117 57.3449 24.0686 57.2021 23.8683 57.0879C23.668 56.9737 23.4677 56.9166 23.2387 56.9166C23.0098 56.9166 22.8095 56.9737 22.6091 57.0879C22.4088 57.2021 22.2657 57.3449 22.1512 57.5448C22.0368 57.7447 21.9795 57.9447 21.9795 58.1731C21.9795 58.4016 22.0368 58.6015 22.1512 58.8014C22.2657 59.0013 22.4088 59.1441 22.6091 59.2583C22.7808 59.3726 23.0098 59.4297 23.2387 59.4297Z" fill="#052460"/>
<path d="M28.1046 60.315C27.704 60.315 27.3606 60.2293 27.0172 60.0294C26.6737 59.8295 26.4162 59.5725 26.2159 59.2298C26.0155 58.8871 25.9297 58.5444 25.9297 58.1446C25.9297 57.7447 26.0155 57.402 26.2159 57.0593C26.4162 56.7166 26.6737 56.4596 27.0172 56.2597C27.3606 56.0598 27.704 55.9741 28.1046 55.9741C28.5053 55.9741 28.8487 56.0598 29.1921 56.2597C29.5355 56.4596 29.7931 56.7166 29.9934 57.0593C30.1937 57.402 30.2796 57.7447 30.2796 58.1446C30.2796 58.5444 30.1937 58.8871 29.9934 59.2298C29.7931 59.5725 29.5355 59.8295 29.1921 60.0294C28.8487 60.2293 28.4767 60.315 28.1046 60.315ZM28.1046 59.4011C28.3336 59.4011 28.5339 59.344 28.7342 59.2298C28.9345 59.1155 29.0776 58.9727 29.1921 58.7728C29.3066 58.5729 29.3638 58.373 29.3638 58.1446C29.3638 57.9161 29.3066 57.7162 29.1921 57.5163C29.0776 57.3164 28.9345 57.1736 28.7342 57.0593C28.5339 56.9451 28.3336 56.888 28.1046 56.888C27.8757 56.888 27.6754 56.9451 27.475 57.0593C27.2747 57.1736 27.1316 57.3164 27.0172 57.5163C26.9027 57.7162 26.8455 57.9161 26.8455 58.1446C26.8455 58.373 26.9027 58.5729 27.0172 58.7728C27.1316 58.9727 27.2747 59.1155 27.475 59.2298C27.6754 59.344 27.8757 59.4011 28.1046 59.4011Z" fill="#052460"/>
<path d="M30.9961 60.2579V56.0598H31.826L31.8832 56.6881C31.9977 56.4596 32.1694 56.3168 32.3984 56.2026C32.6273 56.0884 32.8849 56.0312 33.171 56.0312C33.2855 56.0312 33.4286 56.0313 33.5144 56.0598L33.3427 56.9166C33.2855 56.9166 33.2569 56.9166 33.1997 56.9166C32.8276 56.9166 32.5128 57.0308 32.2553 57.2593C31.9977 57.4877 31.8832 57.859 31.8832 58.4016V60.2579H30.9961Z" fill="#052460"/>
<path d="M36.0878 60.3435C35.6586 60.3435 35.2865 60.2007 35.0004 59.9151C34.7142 59.6295 34.5711 59.2012 34.5711 58.6015V56.8594H34.0273V56.0598H34.6283L34.7428 54.689H35.4868V56.0598H36.4598V56.8594H35.4868V58.5729C35.4868 58.8585 35.5441 59.0869 35.6872 59.2297C35.8016 59.3725 36.002 59.4582 36.2309 59.4582C36.3454 59.4582 36.4312 59.4296 36.5457 59.4011L36.7746 60.2007C36.5743 60.2864 36.3454 60.3435 36.0878 60.3435Z" fill="#052460"/>
<path d="M42.2706 60.372C41.7555 60.372 41.269 60.2293 40.8111 59.9722C40.3818 59.7152 40.0098 59.3725 39.7522 58.9156C39.4946 58.4872 39.3516 58.0017 39.3516 57.4877C39.3516 56.9736 39.4946 56.4881 39.7522 56.0597C40.0098 55.6314 40.3532 55.2601 40.8111 55.0031C41.2403 54.7461 41.7268 54.6318 42.2706 54.6318C42.7285 54.6318 43.1577 54.7175 43.5584 54.9174C43.959 55.1173 44.3024 55.4029 44.56 55.7456L43.7015 56.2597C43.5298 56.0597 43.3294 55.8884 43.0719 55.7742C42.8143 55.6599 42.5567 55.6028 42.2706 55.6028C41.9272 55.6028 41.6124 55.6885 41.3262 55.8598C41.04 56.0312 40.8111 56.2597 40.6394 56.5452C40.4677 56.8308 40.3818 57.145 40.3818 57.4877C40.3818 57.8304 40.4677 58.1445 40.6394 58.4301C40.8111 58.7157 41.04 58.9441 41.3262 59.1155C41.6124 59.2868 41.9272 59.3725 42.2706 59.3725C42.5854 59.3725 42.8715 59.3154 43.1005 59.2012C43.3294 59.0869 43.5298 58.9156 43.7015 58.6871C43.8445 58.4586 43.959 58.2016 43.9876 57.916H42.0702V57.0307H45.0179C45.0465 57.1735 45.0751 57.3163 45.0751 57.4591C45.0751 58.0303 44.9606 58.5158 44.7317 58.9727C44.5028 59.4011 44.1593 59.7438 43.7301 60.0008C43.3008 60.2293 42.8143 60.372 42.2706 60.372Z" fill="#052460"/>
<path d="M47.908 60.315C47.4787 60.315 47.1067 60.2293 46.7633 60.0294C46.4198 59.8295 46.1623 59.5725 45.962 59.2298C45.7616 58.8871 45.6758 58.5444 45.6758 58.1446C45.6758 57.7447 45.7616 57.402 45.962 57.0593C46.1623 56.7166 46.4198 56.4596 46.7346 56.2597C47.0494 56.0598 47.4215 55.9741 47.7935 55.9741C48.1941 55.9741 48.5662 56.0598 48.881 56.2597C49.1958 56.4596 49.4533 56.7166 49.6536 57.0308C49.854 57.3449 49.9398 57.7162 49.9398 58.116C49.9398 58.2302 49.9398 58.3445 49.9112 58.5158H46.6202C46.6488 58.6872 46.7346 58.8585 46.8491 59.0013C46.9636 59.1441 47.1067 59.2583 47.2784 59.344C47.4501 59.4297 47.6504 59.4582 47.8507 59.4582C48.0797 59.4582 48.3086 59.4297 48.4803 59.344C48.652 59.2583 48.8237 59.1441 48.9382 59.0013L49.6536 59.4582C49.4533 59.7153 49.1958 59.9152 48.8523 60.0865C48.6234 60.2579 48.28 60.315 47.908 60.315ZM49.0241 57.8304C48.9954 57.6591 48.9382 57.4877 48.8523 57.3449C48.7379 57.2021 48.5948 57.0879 48.4231 57.0022C48.2514 56.9165 48.0511 56.8594 47.8221 56.8594C47.6218 56.8594 47.4215 56.9165 47.2498 57.0022C47.078 57.0879 46.935 57.2021 46.8205 57.3449C46.706 57.4877 46.6488 57.6591 46.6488 57.8304H49.0241Z" fill="#052460"/>
<path d="M50.6836 60.2581V56.06H51.5135L51.5707 56.7454C51.6852 56.517 51.8569 56.3456 52.0859 56.2028C52.2862 56.06 52.5437 56.0029 52.8299 56.0029C53.1733 56.0029 53.4595 56.0886 53.7171 56.2314C53.9746 56.3742 54.175 56.6312 54.318 56.9453C54.4611 57.2595 54.5184 57.6593 54.5184 58.1448V60.2867H53.6026V58.1448C53.6026 57.8592 53.5454 57.6308 53.4595 57.4594C53.3737 57.2881 53.2592 57.1453 53.0875 57.0596C52.9444 56.9739 52.7727 56.9168 52.5724 56.9168C52.4007 56.9168 52.2289 56.9739 52.0572 57.0596C51.9142 57.1453 51.7997 57.2881 51.6852 57.4594C51.5994 57.6308 51.5421 57.8878 51.5421 58.1448V60.2867H50.6836V60.2581Z" fill="#052460"/>
<path d="M57.4353 60.315C57.006 60.315 56.634 60.2293 56.2906 60.0294C55.9472 59.8295 55.6896 59.5725 55.4893 59.2298C55.289 58.8871 55.2031 58.5444 55.2031 58.1446C55.2031 57.7447 55.289 57.402 55.4893 57.0593C55.6896 56.7166 55.9472 56.4596 56.262 56.2597C56.5768 56.0598 56.9488 55.9741 57.3208 55.9741C57.7215 55.9741 58.0935 56.0598 58.4083 56.2597C58.7231 56.4596 58.9807 56.7166 59.181 57.0308C59.3813 57.3449 59.4672 57.7162 59.4672 58.116C59.4672 58.2302 59.4672 58.3445 59.4386 58.5158H56.1475C56.1761 58.6872 56.262 58.8585 56.3765 59.0013C56.4909 59.1441 56.634 59.2583 56.8057 59.344C56.9774 59.4297 57.1777 59.4582 57.3781 59.4582C57.607 59.4582 57.836 59.4297 58.0077 59.344C58.1794 59.2583 58.3511 59.1441 58.4656 59.0013L59.181 59.4582C58.9807 59.7153 58.7231 59.9152 58.3797 60.0865C58.1221 60.2579 57.7787 60.315 57.4353 60.315ZM58.5228 57.8304C58.4942 57.6591 58.4369 57.4877 58.3511 57.3449C58.2366 57.2021 58.0935 57.0879 57.9218 57.0022C57.7501 56.9165 57.5498 56.8594 57.3208 56.8594C57.1205 56.8594 56.9202 56.9165 56.7485 57.0022C56.5768 57.0879 56.4337 57.2021 56.3192 57.3449C56.2048 57.4877 56.1475 57.6591 56.1475 57.8304H58.5228Z" fill="#052460"/>
<path d="M60.2148 60.2579V56.0598H61.0448L61.102 56.6881C61.2165 56.4596 61.3882 56.3168 61.6171 56.2026C61.8461 56.0884 62.1036 56.0312 62.3898 56.0312C62.5043 56.0312 62.6474 56.0313 62.7332 56.0598L62.5615 56.9166C62.5043 56.9166 62.4756 56.9166 62.4184 56.9166C62.0464 56.9166 61.7316 57.0308 61.474 57.2593C61.2165 57.4877 61.102 57.859 61.102 58.4016V60.2579H60.2148Z" fill="#052460"/>
<path d="M64.8483 60.315C64.4762 60.315 64.1328 60.2293 63.8466 60.0294C63.5319 59.8295 63.3029 59.5725 63.1026 59.2298C62.9309 58.8871 62.8164 58.5444 62.8164 58.1446C62.8164 57.7447 62.9023 57.402 63.1026 57.0593C63.2743 56.7166 63.5319 56.4596 63.8466 56.2597C64.1614 56.0598 64.4762 55.9741 64.8483 55.9741C65.1631 55.9741 65.4492 56.0598 65.7068 56.2026C65.9644 56.3739 66.1647 56.5738 66.3078 56.8309L66.365 56.0312H67.1949V60.2293H66.365L66.3078 59.4297C66.1933 59.6867 65.993 59.8866 65.7068 60.0294C65.4492 60.2293 65.1631 60.315 64.8483 60.315ZM64.9914 59.4297C65.2203 59.4297 65.4206 59.3726 65.6209 59.2583C65.8213 59.1441 65.9644 59.0013 66.0788 58.8014C66.1933 58.6015 66.2505 58.4016 66.2505 58.1731C66.2505 57.9446 66.1933 57.7447 66.0788 57.5448C65.9644 57.3449 65.8213 57.2021 65.6209 57.0879C65.4206 56.9737 65.2203 56.9165 64.9914 56.9165C64.7624 56.9165 64.5621 56.9737 64.3618 57.0879C64.1614 57.2021 64.0184 57.3449 63.9039 57.5448C63.7894 57.7447 63.7322 57.9446 63.7322 58.1731C63.7322 58.4016 63.7894 58.6015 63.9039 58.8014C64.0184 59.0013 64.1614 59.1441 64.3618 59.2583C64.5621 59.3726 64.7624 59.4297 64.9914 59.4297Z" fill="#052460"/>
<path d="M69.029 54.3179H68.1133V60.258H69.029V54.3179Z" fill="#052460"/>
<path d="M71.6602 60.2578L73.6348 54.689H74.6936L76.6683 60.2578H75.6094L75.1515 58.9727H73.1769L72.719 60.2578H71.6602ZM73.4631 58.0588H74.894L74.1785 56.0026L73.4631 58.0588Z" fill="#052460"/>
<path d="M78.7275 60.315C78.3841 60.315 78.0979 60.2293 77.8404 60.0865C77.5828 59.9437 77.3825 59.6867 77.2394 59.3726C77.0963 59.0584 77.0391 58.6586 77.0391 58.1731V56.0312H77.9548V58.1731C77.9548 58.4587 78.0121 58.6872 78.0979 58.8585C78.1838 59.0299 78.2982 59.1727 78.4699 59.2583C78.613 59.344 78.7847 59.4011 78.9851 59.4011C79.1854 59.4011 79.3571 59.344 79.5002 59.2583C79.6433 59.1727 79.7577 59.0299 79.8722 58.8585C79.9581 58.6872 80.0153 58.4587 80.0153 58.1731V56.0312H80.9311V60.2293H80.1012L80.0439 59.5439C79.9295 59.7724 79.7577 59.9437 79.5288 60.0865C79.2426 60.2579 79.0137 60.315 78.7275 60.315Z" fill="#052460"/>
<path d="M83.5097 60.3435C83.0804 60.3435 82.7084 60.2007 82.4222 59.9151C82.136 59.6295 81.993 59.2012 81.993 58.6015V56.8594H81.4492V56.0598H82.0502L82.1647 54.689H82.9087V56.0598H83.8817V56.8594H82.9087V58.5729C82.9087 58.8585 82.966 59.0869 83.109 59.2297C83.2235 59.3725 83.4238 59.4582 83.6528 59.4582C83.7673 59.4582 83.8531 59.4296 83.9676 59.4011L84.1965 60.2007C83.9962 60.2864 83.7673 60.3435 83.5097 60.3435Z" fill="#052460"/>
<path d="M84.7969 60.258V54.3179H85.7126V56.7168C85.8271 56.5169 85.9988 56.317 86.2278 56.2027C86.4281 56.0599 86.6856 56.0028 86.9718 56.0028C87.3152 56.0028 87.6014 56.0885 87.859 56.2313C88.1165 56.3741 88.3168 56.6311 88.4599 56.9452C88.603 57.2594 88.6603 57.6592 88.6603 58.1447V60.2865H87.7445V58.1447C87.7445 57.8591 87.6873 57.6306 87.6014 57.4593C87.5156 57.2879 87.4011 57.1451 87.2294 57.0595C87.0863 56.9738 86.9146 56.9167 86.7143 56.9167C86.5426 56.9167 86.3708 56.9738 86.1991 57.0595C86.0561 57.1451 85.9416 57.2879 85.8271 57.4593C85.7413 57.6306 85.684 57.8877 85.684 58.1447V60.2865H84.7969V60.258Z" fill="#052460"/>
<path d="M91.464 60.315C91.0634 60.315 90.72 60.2293 90.3765 60.0294C90.0331 59.8295 89.7756 59.5725 89.5752 59.2298C89.3749 58.8871 89.2891 58.5444 89.2891 58.1446C89.2891 57.7447 89.3749 57.402 89.5752 57.0593C89.7756 56.7166 90.0331 56.4596 90.3765 56.2597C90.72 56.0598 91.0634 55.9741 91.464 55.9741C91.8647 55.9741 92.2081 56.0598 92.5515 56.2597C92.8949 56.4596 93.1525 56.7166 93.3528 57.0593C93.5531 57.402 93.639 57.7447 93.639 58.1446C93.639 58.5444 93.5531 58.8871 93.3528 59.2298C93.1525 59.5725 92.8949 59.8295 92.5515 60.0294C92.2081 60.2293 91.836 60.315 91.464 60.315ZM91.464 59.4011C91.693 59.4011 91.8933 59.344 92.0936 59.2298C92.2939 59.1155 92.437 58.9727 92.5515 58.7728C92.666 58.5729 92.7232 58.373 92.7232 58.1446C92.7232 57.9161 92.666 57.7162 92.5515 57.5163C92.437 57.3164 92.2939 57.1736 92.0936 57.0593C91.8933 56.9451 91.693 56.888 91.464 56.888C91.2351 56.888 91.0347 56.9451 90.8344 57.0593C90.6341 57.1736 90.491 57.3164 90.3765 57.5163C90.2621 57.7162 90.2048 57.9161 90.2048 58.1446C90.2048 58.373 90.2621 58.5729 90.3765 58.7728C90.491 58.9727 90.6341 59.1155 90.8344 59.2298C91.0347 59.344 91.2351 59.4011 91.464 59.4011Z" fill="#052460"/>
<path d="M94.3555 60.2579V56.0598H95.1854L95.2426 56.6881C95.3571 56.4596 95.5288 56.3168 95.7577 56.2026C95.9867 56.0884 96.2442 56.0312 96.5304 56.0312C96.6449 56.0312 96.788 56.0313 96.8738 56.0598L96.7021 56.9166C96.6449 56.9166 96.6163 56.9166 96.559 56.9166C96.187 56.9166 95.8722 57.0308 95.6146 57.2593C95.3571 57.4877 95.2426 57.859 95.2426 58.4016V60.2579H94.3555Z" fill="#052460"/>
<path d="M98.417 54.689H97.4727V55.6314H98.417V54.689Z" fill="#052460"/>
<path d="M98.3884 56.0601H97.4727V60.2581H98.3884V56.0601Z" fill="#052460"/>
<path d="M101.049 60.3435C100.619 60.3435 100.247 60.2007 99.9613 59.9151C99.6751 59.6295 99.532 59.2012 99.532 58.6015V56.8594H98.9883V56.0598H99.5893L99.7037 54.689H100.448V56.0598H101.421V56.8594H100.448V58.5729C100.448 58.8585 100.505 59.0869 100.648 59.2297C100.763 59.3725 100.963 59.4582 101.192 59.4582C101.306 59.4582 101.392 59.4296 101.507 59.4011L101.736 60.2007C101.507 60.2864 101.306 60.3435 101.049 60.3435Z" fill="#052460"/>
<path d="M102.766 61.9999C102.623 61.9999 102.48 61.9999 102.337 61.9714C102.222 61.9428 102.079 61.9143 101.965 61.8572L102.222 61.0575C102.28 61.0861 102.365 61.1146 102.451 61.1432C102.537 61.1718 102.623 61.1718 102.709 61.1718C102.852 61.1718 102.966 61.1432 103.081 61.0575C103.195 60.9718 103.31 60.8862 103.396 60.7434C103.482 60.6006 103.567 60.4292 103.653 60.2293V60.2008C103.653 60.2008 103.653 60.2008 103.653 60.1722L101.993 56.0884H102.966L104.054 58.9442L105.113 56.0884H106.086L104.54 60.2864C104.369 60.7148 104.226 61.0575 104.054 61.3145C103.882 61.5716 103.682 61.7429 103.482 61.8572C103.31 61.9428 103.052 61.9999 102.766 61.9999Z" fill="#052460"/>
<path d="M66.4218 12.2798V7.88184H51.7695V12.2798H56.9207V31.728H61.2992V12.2798H66.4218Z" fill="#052460"/>
<path d="M77.3571 21.1332L81.1918 23.6178V23.7892C81.1918 26.1024 79.3031 28.0158 76.985 28.0158C74.667 28.0158 72.7496 26.1309 72.7496 23.7892V15.8785C72.7496 13.5653 74.6384 11.6519 76.985 11.6519C79.1886 11.6519 80.9915 13.3368 81.1918 15.4787H85.5703C85.37 10.9094 81.5925 7.25391 76.985 7.25391C72.2345 7.25391 68.3711 11.1093 68.3711 15.8499V23.7606C68.3711 28.5013 72.2345 32.3566 76.985 32.3566C81.7356 32.3566 85.599 28.5013 85.599 23.7606V19.0199H77.3571V21.1332Z" fill="#052460"/>
<path d="M100.248 25.9592L101.794 31.728H106.144L99.7618 7.88184H93.008L86.5977 31.728H90.9476L92.4929 25.9592H100.248ZM96.3849 11.5659L99.075 21.5898H93.6948L96.3849 11.5659Z" fill="#052460"/>
<path d="M27.732 46.4645C27.732 47.407 27.36 47.8639 26.6159 47.8639H26.1008C25.3567 47.8639 24.9847 47.407 24.9847 46.4645V38.2969H23.6397V46.4645C23.6397 47.407 23.2676 47.8639 22.5236 47.8639H21.9798C21.2358 47.8639 20.8638 47.407 20.8638 46.4645V42.2094H19.5187V46.4645C19.5187 47.407 19.1467 47.8639 18.4026 47.8639H16.9145V45.8077C16.9145 44.7796 16.5711 43.9229 15.9129 43.2375C15.2261 42.5521 14.3962 42.2094 13.4232 42.2094C12.4788 42.2094 11.6775 42.5235 11.0193 43.1803C10.3611 43.8372 10.0463 44.6083 10.0463 45.4936C10.0463 45.9791 10.1607 46.436 10.3897 46.8358C10.6186 47.2642 10.9048 47.5783 11.2768 47.8639H8.78708C8.04302 47.8639 7.67099 47.407 7.67099 46.4645V38.2969H6.32596V48.2923C6.32596 49.1205 6.09702 49.8059 5.63913 50.3199C5.18125 50.834 4.6089 51.0624 3.89345 51.0624C3.20663 51.0624 2.63427 50.8054 2.17639 50.3199C1.71851 49.8059 1.48957 49.149 1.48957 48.2923V43.6087H0.144531V48.2923C0.144531 49.4917 0.516562 50.4913 1.23201 51.2338C1.94745 52.0048 2.8346 52.3761 3.89345 52.3761C4.89507 52.3761 5.72498 52.0334 6.44043 51.3766C7.15587 50.6912 7.55652 49.8059 7.64237 48.7206C7.89993 49.0348 8.30058 49.2061 8.75846 49.2061H18.4312C19.2039 49.2061 19.8049 48.892 20.2055 48.2637C20.5776 48.892 21.1785 49.2061 21.9798 49.2061H22.5236C23.2963 49.2061 23.8972 48.892 24.2979 48.2637C24.6699 48.892 25.2709 49.2061 26.0722 49.2061H26.5873C27.3314 49.2061 27.9323 48.9491 28.3902 48.4636C28.8195 47.9496 29.0484 47.2927 29.0484 46.4645V38.2969H27.7034V46.4645H27.732ZM15.6267 47.8639H13.4804C12.8794 47.8639 12.3643 47.664 11.9636 47.2356C11.5344 46.8072 11.3341 46.2932 11.3341 45.722C11.3341 45.1509 11.5344 44.6083 11.9636 44.1799C12.3929 43.7515 12.8794 43.5516 13.4804 43.5516C14.0814 43.5516 14.5965 43.7515 14.9971 44.1799C15.4264 44.6083 15.6267 45.1223 15.6267 45.722V47.8639ZM45.5036 42.2094C44.5306 42.2094 43.7293 42.5521 43.0139 43.2375C42.327 43.9229 41.9836 44.751 41.9836 45.722C41.9836 46.179 42.0981 46.5788 42.2984 46.95C42.4987 47.3213 42.7849 47.6354 43.1283 47.8639H40.8961C40.1807 47.8639 39.8087 47.407 39.8087 46.4645V42.2094H36.4604C35.4874 42.2094 34.6861 42.5521 33.9993 43.2375C33.3125 43.9229 32.969 44.751 32.969 45.722C32.969 46.693 33.3125 47.5212 33.9993 48.2066C34.6861 48.892 35.516 49.2347 36.489 49.2347C37.6051 49.2347 38.435 48.8063 39.0074 47.921C39.3222 48.8063 39.9518 49.2347 40.9248 49.2347H45.5322C46.5052 49.2347 47.3351 48.892 48.022 48.2066C48.7088 47.5212 49.0522 46.693 49.0522 45.722C49.0522 44.751 48.7088 43.9229 48.022 43.2375C47.2779 42.5521 46.448 42.2094 45.5036 42.2094ZM38.4636 45.722C38.4636 46.3789 38.2633 46.8929 37.8913 47.2927C37.5193 47.6925 37.0328 47.8925 36.4604 47.8925C35.8594 47.8925 35.3443 47.6925 34.9437 47.2642C34.5144 46.8358 34.3141 46.3217 34.3141 45.7506C34.3141 45.1794 34.5144 44.6368 34.9437 44.2084C35.3729 43.7801 35.8594 43.5802 36.4604 43.5802H38.4636V45.722ZM47.0203 47.2356C46.5911 47.664 46.076 47.8639 45.5036 47.8639C44.9026 47.8639 44.3875 47.664 43.9869 47.2356C43.5576 46.8072 43.3573 46.2932 43.3573 45.722C43.3573 45.1509 43.5576 44.6083 43.9869 44.1799C44.4161 43.7515 44.9312 43.5516 45.5036 43.5516C46.1046 43.5516 46.6197 43.7515 47.0203 44.1799C47.4496 44.6083 47.6499 45.1223 47.6499 45.722C47.6499 46.3217 47.4496 46.8358 47.0203 47.2356ZM64.7633 46.4645C64.7633 47.407 64.3913 47.8639 63.6472 47.8639H60.1845C60.5851 47.4355 60.8713 47.1214 61.043 46.9215C61.2147 46.7216 61.4437 46.436 61.7298 46.0933C62.016 45.722 62.1877 45.4079 62.3308 45.0937C62.4453 44.7796 62.5025 44.494 62.5025 44.2084C62.5025 42.8948 61.5581 42.2094 59.698 42.2094H54.4037V44.5511L56.6359 47.8639H53.2876C52.5436 47.8639 52.1715 47.407 52.1715 46.4645V38.2969H50.8265V46.4645C50.8265 47.2927 51.0554 47.9496 51.4847 48.4636C51.914 48.9777 52.5149 49.2061 53.259 49.2061H63.6186C64.3627 49.2061 64.9636 48.9491 65.4215 48.4636C65.8508 47.9496 66.0797 47.2927 66.0797 46.4645V38.2969H64.7347V46.4645H64.7633ZM59.6121 46.8358C59.4977 46.95 59.3546 47.1214 59.1256 47.3784C58.8967 47.6069 58.7536 47.7782 58.6391 47.8925H58.2099L55.9777 44.494V43.5516H59.2115C59.8125 43.5516 60.2703 43.6373 60.5565 43.7801C60.8427 43.9229 60.9858 44.2084 60.9858 44.6368C60.9858 44.751 60.9572 44.8938 60.9285 45.0081C60.8999 45.1509 60.8141 45.2937 60.7282 45.4364C60.6424 45.6078 60.5279 45.7506 60.4421 45.8648C60.3562 46.0076 60.2131 46.1504 60.0414 46.3503C59.8697 46.5502 59.7266 46.693 59.6121 46.8358ZM68.455 38.2969H69.8V49.2061H68.455V38.2969ZM101.136 46.4645C101.136 47.407 100.764 47.8639 100.02 47.8639H98.5895V45.6649C98.5895 44.6939 98.246 43.8657 97.5592 43.1803C96.8724 42.4949 96.0425 42.1522 95.0695 42.1522H92.1791V47.8639H91.0344H90.1186C89.3745 47.8639 89.0025 47.407 89.0025 46.4645V42.2094H87.6575V46.4645C87.6575 47.407 87.2855 47.8639 86.57 47.8639H85.597C84.8816 47.8639 84.5095 47.407 84.5095 46.4645V42.2094H83.1645V46.4645C83.1645 47.407 82.7925 47.8639 82.0484 47.8639H81.5333C80.8179 47.8639 80.4458 47.407 80.4458 46.4645V42.2094H77.0975C76.1245 42.2094 75.3233 42.5521 74.6364 43.2375C73.9496 43.9229 73.6062 44.751 73.6062 45.722C73.6062 46.693 73.9496 47.5212 74.6364 48.2066C75.3233 48.892 76.1532 49.2347 77.1262 49.2347C78.2423 49.2347 79.0722 48.8063 79.6445 47.921C79.9593 48.8063 80.5889 49.2347 81.5619 49.2347H82.077C82.8783 49.2347 83.4793 48.9206 83.8513 48.2923C84.2234 48.9206 84.8243 49.2347 85.6256 49.2347H86.5986C87.3999 49.2347 87.9723 48.9206 88.3729 48.2923C88.745 48.9206 89.3459 49.2347 90.1472 49.2347H91.063H92.1791C92.2363 50.3199 92.5797 51.1767 93.1521 51.7764C93.7244 52.3761 94.4685 52.6902 95.3843 52.6902C96.2714 52.6902 97.0441 52.3761 97.6165 51.7478C98.2174 51.1195 98.5322 50.2913 98.5895 49.2347H100.049C100.793 49.2347 101.394 48.9777 101.852 48.4922C102.281 47.9781 102.51 47.3213 102.51 46.4931V38.3254H101.165V46.4645H101.136ZM79.1008 45.722C79.1008 46.3789 78.9005 46.8929 78.5284 47.2927C78.1564 47.6925 77.6699 47.8925 77.0975 47.8925C76.4966 47.8925 75.9815 47.6925 75.5808 47.2642C75.1516 46.8358 74.9512 46.3217 74.9512 45.7506C74.9512 45.1794 75.1516 44.6368 75.5808 44.2084C76.0101 43.7801 76.5252 43.5802 77.0975 43.5802H79.1008V45.722ZM97.2158 49.1205C97.2158 49.8059 97.0441 50.3485 96.6721 50.7768C96.3 51.1767 95.8708 51.3766 95.327 51.3766C94.7833 51.3766 94.354 51.2052 94.0106 50.834C93.6958 50.4627 93.4955 49.9201 93.4383 49.2061H94.6116C95.1839 49.2061 95.6991 49.0919 96.1569 48.8634C96.6148 48.635 96.9582 48.3494 97.2158 47.9781V49.1205ZM96.5576 47.2642C96.1283 47.664 95.556 47.8639 94.8691 47.8639H93.4669V43.4945H95.0409C95.6418 43.4945 96.1569 43.6944 96.5862 44.1228C97.0155 44.5511 97.2158 45.0652 97.2158 45.6649C97.2158 46.3217 97.0155 46.8644 96.5576 47.2642ZM106.145 49.2061H104.799V38.2969H106.145V49.2061ZM76.9831 41.2669H75.5522V39.839H76.9831V41.2669ZM79.1008 41.2669H77.6699V39.839H79.1008V41.2669ZM86.5414 50.5769H87.9723V52.0048H86.5414V50.5769ZM88.6877 50.5769H90.1186V52.0048H88.6877V50.5769ZM36.3459 41.2669H34.9151V39.839H36.3459V41.2669ZM38.4636 41.2669H37.0328V39.839H38.4636V41.2669ZM13.3373 41.2669H11.9064V39.839H13.3373V41.2669ZM15.455 41.2669H14.0241V39.839H15.455V41.2669ZM20.9782 41.2669H19.5473V39.839H20.9782V41.2669Z" fill="#052460"/>
<path d="M85.0548 41.2666H82.5078V40.6668H83.1088C82.9371 40.4669 82.8512 40.2385 82.8512 39.9529C82.8512 39.6387 82.9657 39.3817 83.1946 39.1818C83.4236 38.9819 83.6811 38.8677 84.0245 38.8677C84.3966 38.8677 84.7114 39.0105 84.9689 39.296L84.5683 39.6959C84.4538 39.5245 84.2821 39.4674 84.0532 39.4674C83.8815 39.4674 83.7384 39.5245 83.6239 39.6388C83.5094 39.753 83.4522 39.8958 83.4522 40.0671C83.4522 40.2385 83.5094 40.3813 83.6239 40.4955C83.7384 40.6097 83.8815 40.6954 84.0532 40.6954H85.112V41.2666H85.0548Z" fill="#052460"/>
<mask id="mask0_8164_2496" style="mask-type:luminance" maskUnits="userSpaceOnUse" x="0" y="0" width="48" height="32">
<path d="M5.35296 18.0488L35.6877 31.3855C35.9167 31.4998 36.1742 31.5283 36.4032 31.5283H41.6116L9.01602 16.3353L5.35296 18.0488ZM0.173151 15.7642L4.1224 17.5062L7.81408 15.7927L0.144531 12.2229V15.7642H0.173151ZM10.1894 15.7927L43.9583 31.5283H45.5895C46.5911 31.5283 47.3924 30.7287 47.3924 29.7292V21.1617C47.3924 20.562 47.0776 19.9908 46.5625 19.6481L27.7606 7.5965L10.1894 15.7927ZM5.5819 10.1953L8.24335 7.13957C8.3292 7.02533 8.47229 6.96821 8.61538 6.96821H9.38805C9.53114 6.96821 9.67423 7.02533 9.76008 7.13957L12.4215 10.1953L11.6775 10.8521L9.50253 8.36758V13.0511H8.50091V8.36758L6.32596 10.8521L5.5819 10.1953ZM10.1035 5.14049L14.5679 4.36942L14.7396 5.3404L11.3627 5.91156L14.5679 8.39613L13.9669 9.19577L9.98903 6.14003H8.04302L4.06516 9.19577L3.46419 8.39613L6.66937 5.91156L3.29248 5.3404L3.46419 4.36942L7.92855 5.14049H10.1035ZM9.96041 3.34132L11.7633 1.5707L12.4501 2.28466L10.5041 4.19807C10.4183 4.28374 10.2752 4.34086 10.1607 4.34086H7.89993C7.75684 4.34086 7.64237 4.28374 7.55652 4.19807L5.61052 2.28466L6.29734 1.5707L8.10026 3.34132H9.96041ZM9.50253 0V2.19899H8.50091V0H0.173151V11.1092L9.01602 15.2216L26.7876 6.93966L15.9701 0H9.50253Z" fill="white"/>
</mask>
<g mask="url(#mask0_8164_2496)">
<path d="M61.7301 9.16697L33.7134 52.9182L-14.1641 22.3894L13.8813 -21.3618L61.7301 9.16697Z" fill="url(#paint0_linear_8164_2496)"/>
</g>
</g>
<defs>
<linearGradient id="paint0_linear_8164_2496" x1="44.6192" y1="29.0738" x2="0.624724" y2="0.889398" gradientUnits="userSpaceOnUse">
<stop stop-color="#FFCF01"/>
<stop offset="0.1765" stop-color="#D5CB29"/>
<stop offset="0.4636" stop-color="#95C664"/>
<stop offset="0.7066" stop-color="#67C28F"/>
<stop offset="0.8928" stop-color="#4BC0AA"/>
<stop offset="1" stop-color="#40BFB4"/>
</linearGradient>
<clipPath id="clip0_8164_2496">
<rect width="106" height="62" fill="white" transform="translate(0.144531)"/>
</clipPath>
</defs>
</svg>
